<?xml version="1.0" encoding="utf-8"?>
<!-- Generator: Adobe Illustrator 22.1.0, SVG Export Plug-In . SVG Version: 6.00 Build 0)  -->
<svg version="1.1" id="Layer_1" xmlns="http://www.w3.org/2000/svg" xmlns:xlink="http://www.w3.org/1999/xlink" x="0px" y="0px"
	 viewBox="0 0 163.7 205.6" style="enable-background:new 0 0 163.7 205.6;" xml:space="preserve">
<style type="text/css">
	.st0{fill:none;stroke:#f9d600;stroke-width:5;stroke-linecap:round;stroke-linejoin:round;stroke-miterlimit:10;}
	
		.st1{clip-path:url(#SVGID_2_);fill:none;stroke:#f9d600;stroke-width:5;stroke-linecap:round;stroke-linejoin:round;stroke-miterlimit:10;}
</style>
<line class="st0" x1="74.2" y1="44.5" x2="116.2" y2="44.5"/>
<g>
	<defs>
		<rect id="SVGID_1_" width="163.7" height="205.6"/>
	</defs>
	<clipPath id="SVGID_2_">
		<use xlink:href="#SVGID_1_"  style="overflow:visible;"/>
	</clipPath>
	<path class="st1" d="M96,182.8c0.5,0.6,1,1.2,1.5,1.8l0.4,0.4"/>
	<path class="st1" d="M158.3,2.5c2,0,3.4,2,2.7,3.9l-1.8,4.8c-4.7,12.7-14.9,22.5-27.7,26.7l-3.3,1.1c-5,1.6-9.5,4.6-12.9,8.7
		c-0.8,0.9-1.3,2-1.5,3.2c-1,5.6-2.9,10.9-5.6,15.9c-2.7,4.9-6.1,9.4-10.3,13.3l-0.6,0.9c-4.1,6.1-6.4,13.3-6.5,20.7l-1.3,61.1
		c-0.2,7.3,2.2,14.4,6.6,20.2c22.7,1.3,39.3,5.2,39.3,10c0,5.7-24.4,10.4-54.5,10.4c-30.1,0-54.5-4.6-54.5-10.4
		c0-4.9,17.7-9,41.6-10.1c4.3-5.7,6.6-12.8,6.5-20.1l-1.3-61.1c-0.2-7.4-2.4-14.6-6.5-20.7l-0.6-0.9c-4.2-3.9-7.6-8.3-10.3-13.3
		C52.9,61.7,51,56.4,50,50.8c-0.2-1.2-0.7-2.3-1.5-3.2c-1.7-2-3.7-3.8-5.9-5.2c-2.2-1.5-4.6-2.6-7.1-3.4l-3.3-1.1
		c-12.8-4.2-23.1-14-27.7-26.7L2.7,6.4C2,4.5,3.4,2.5,5.4,2.5H158.3z"/>
	<path class="st1" d="M84.2,83.5h5.5c1.5,0,3-0.3,4.4-0.8c1.4-0.5,2.7-1.3,3.8-2.4"/>
	<path class="st1" d="M65.8,80c2.2,2.1,5.1,3.2,8.1,3.2"/>
	<path class="st1" d="M65.8,185.1l0.4-0.4c0.6-0.6,1.1-1.3,1.6-1.9"/>
	<line class="st1" x1="15.2" y1="26.5" x2="149.2" y2="26.5"/>
</g>
</svg>
