<?xml version="1.0" encoding="utf-8"?>
<!-- Generator: Adobe Illustrator 22.1.0, SVG Export Plug-In . SVG Version: 6.00 Build 0)  -->
<svg version="1.1" id="Layer_1" xmlns="http://www.w3.org/2000/svg" xmlns:xlink="http://www.w3.org/1999/xlink" x="0px" y="0px"
	 viewBox="0 0 130.4 175.6" style="enable-background:new 0 0 130.4 175.6;" xml:space="preserve">
<style type="text/css">
	
		.st0{clip-path:url(#SVGID_2_);fill:none;stroke:#FFF100;stroke-width:5;stroke-linecap:round;stroke-linejoin:round;stroke-miterlimit:10;}
	
		.st1{clip-path:url(#SVGID_2_);fill:none;stroke:#404041;stroke-width:5;stroke-linecap:round;stroke-linejoin:round;stroke-miterlimit:10;}
	.st2{clip-path:url(#SVGID_2_);fill:#FFFFFF;}
</style>
<g>
	<defs>
		<rect id="SVGID_1_" width="130.4" height="175.6"/>
	</defs>
	<clipPath id="SVGID_2_">
		<use xlink:href="#SVGID_1_"  style="overflow:visible;"/>
	</clipPath>
	<path class="st0" d="M15.2,90.2c0,0,24.8-7.6,37.8,0c12.7,7.4,37.1,5.6,39.4,5.6"/>
	<path class="st1" d="M103.2,133.7c-1.3,1-2,2.7-1.7,4.4l3.8,20.1v0c0.4,2.1-0.2,4.3-1.7,5.8c-5.3,5.3-20.5,9.1-38.5,9.1
		c-19.1,0-35-4.3-39.3-10.1c-0.9-1.3-1.2-2.9-0.8-4.4l0.2-0.7l4.4-19.3c0.4-1.6-0.3-3.3-1.6-4.2C12.5,122.9,2.5,104.5,2.5,83.8
		c0-8.5,4.8-24,4.8-24c2.3-8.5,8.2-30.4,8.2-34.6c0-4.7,1.3-8-2.5-13.3l-0.6-0.6c-1-1-0.7-2.6,0.5-3.3C19,4.8,40.1,2.5,65.2,2.5
		c25.3,0,46.5,2.4,52.5,5.5c1.1,0.6,1.4,2.1,0.6,3.1l-0.3,0.3c-4.1,5.5-2.8,8.8-2.8,13.7c0,5,8.3,35,9,37.8c0,0,0,0,0,0
		c0,0.1,0,0.1,0,0.1c2.3,6.5,3.5,13.5,3.5,20.7C127.9,104.2,118.2,122.2,103.2,133.7z"/>
	<path class="st1" d="M5,68.7c0,0,37-19.1,54,0s58.9,15.5,68.6,7.6"/>
	<path class="st1" d="M29.7,135.4c0,0,35.5,17.6,60.3,2.9"/>
	<path class="st1" d="M38.3,80l-15.2-8.8c-3.4-2-4.5-6.3-2.6-9.7l8.8-15.2c2-3.4,6.3-4.5,9.7-2.6l15.2,8.8c3.4,2,4.5,6.3,2.6,9.7
		L48,77.4C46,80.8,41.7,82,38.3,80z"/>
	<path class="st2" d="M68.6,100.3l15.2-8.8c3.4-2,7.7-0.8,9.7,2.6l8.8,15.2c2,3.4,0.8,7.7-2.6,9.7l-15.2,8.8c-3.4,2-7.7,0.8-9.7-2.6
		L66,109.9C64.1,106.5,65.2,102.2,68.6,100.3"/>
	<path class="st1" d="M68.6,100.3l15.2-8.8c3.4-2,7.7-0.8,9.7,2.6l8.8,15.2c2,3.4,0.8,7.7-2.6,9.7l-15.2,8.8c-3.4,2-7.7,0.8-9.7-2.6
		L66,109.9C64.1,106.5,65.2,102.2,68.6,100.3z"/>
</g>
</svg>
