<?xml version="1.0" encoding="utf-8"?>
<!-- Generator: Adobe Illustrator 22.1.0, SVG Export Plug-In . SVG Version: 6.00 Build 0)  -->
<svg version="1.1" id="Layer_1" xmlns="http://www.w3.org/2000/svg" xmlns:xlink="http://www.w3.org/1999/xlink" x="0px" y="0px"
	 viewBox="0 0 148.9 203.2" style="enable-background:new 0 0 148.9 203.2;" xml:space="preserve">
<style type="text/css">
	
		.st0{clip-path:url(#SVGID_2_);fill:none;stroke:#f9d600;stroke-width:5;stroke-linecap:round;stroke-linejoin:round;stroke-miterlimit:10;}
	
		.st1{clip-path:url(#SVGID_2_);fill:none;stroke:#f9d600;stroke-width:5;stroke-linecap:round;stroke-linejoin:round;stroke-miterlimit:10;}
</style>
<g>
	<defs>
		<rect id="SVGID_1_" width="148.9" height="203.2"/>
	</defs>
	<clipPath id="SVGID_2_">
		<use xlink:href="#SVGID_1_"  style="overflow:visible;"/>
	</clipPath>
	<path class="st0" d="M47.1,189.5l6-6.9c0.4-0.5,0.8-1,1.2-1.5"/>
	<path class="st0" d="M94.3,181.3c0.4,0.5,0.8,1.1,1.3,1.6l6,6.9"/>
	<path class="st0" d="M89.4,164.8v2.1c0,5,1.6,9.9,4.6,13.9c16.8,1.6,28.5,5.3,28.5,9.5c0,5.7-21.5,10.4-48,10.4
		c-26.5,0-48-4.7-48-10.4c0-4.2,11.4-7.8,27.9-9.5h0c3-4,4.6-8.9,4.6-13.9v-2.1c0-6.9-2.8-13.4-7.7-18.2l-11.4-11
		C17.3,125.4,2.5,105.3,2.5,82.3c0-6.6,1-13,3.4-18.9L22.5,2.5h103.5l16.7,60.9h0c2.3,5.9,3.6,12.3,3.6,18.9
		c0,23.1-15.3,43.1-37.9,53.3l0,0l-11.4,11C92.2,151.4,89.4,157.9,89.4,164.8z"/>
	<path class="st0" d="M6.7,63.1c0,0,26.2-10.7,56.2,3.2c30,13.8,80-3.2,80-3.2"/>
	<path class="st0" d="M58.5,141c-7.3-1.3-14.1-3.4-20.4-6.2"/>
	<path class="st0" d="M122.6,126.7c-3.8,2.7-8,5-12.5,7c-6.4,2.8-13.5,4.9-21,6.2"/>
	<path class="st1" d="M19.3,85.9c0,0,20.3-6.7,35.5,3c9.9,6.3,46.5,13.4,75.6-5"/>
</g>
</svg>
