<?xml version="1.0" encoding="utf-8"?>
<!-- Generator: Adobe Illustrator 22.1.0, SVG Export Plug-In . SVG Version: 6.00 Build 0)  -->
<svg version="1.1" id="Layer_1" xmlns="http://www.w3.org/2000/svg" xmlns:xlink="http://www.w3.org/1999/xlink" x="0px" y="0px"
	 viewBox="0 0 96 29.7" style="enable-background:new 0 0 96 29.7;" xml:space="preserve">
<style type="text/css">
	.st0{clip-path:url(#SVGID_2_); fill:#f3f3f2;}
</style>
<g>
	<defs>
		<rect id="SVGID_1_" y="0" width="96" height="29.7"/>
	</defs>
	<clipPath id="SVGID_2_">
		<use xlink:href="#SVGID_1_"  style="overflow:visible;"/>
	</clipPath>
	<path class="st0" d="M11.4,6.1L7.6,19.4c0.9,0,1.7-0.2,2.5-0.6c0.8-0.4,1.5-1,2.1-1.7c0.6-0.7,1.2-1.5,1.6-2.4
		c0.5-0.9,0.8-1.8,1.1-2.7c0.3-0.9,0.4-1.7,0.4-2.6c0-0.8-0.1-1.6-0.3-2.2c-0.2-0.7-0.6-1.2-1.2-1.6C13.3,5.2,12.5,5,11.6,5
		C8.3,5,6.7,6.5,6,7.2C5.4,7.8,4.8,8.6,4.4,9.4c-0.5,0.8-0.8,1.6-1,2.5C3,12.9,2.9,14,2.9,14.9c0,1,0.3,1.8,0.7,2.4
		c-0.4,0.1-0.7,0.1-1,0.1c-0.8,0-1.4-0.2-1.8-0.7c-0.4-0.5-0.7-1.1-0.7-1.9c-0.1-0.8,0-1.7,0.3-2.6c0.2-0.8,0.5-1.5,1-2.3
		c0.4-0.8,1-1.5,1.6-2.2c0.6-0.7,1.4-1.3,2.2-1.9C6,5.2,8,3.9,11.9,3.9c1.6,0,2.9,0.2,3.8,0.7c1,0.4,1.7,1.1,2.2,1.8
		C18.4,7.2,18.6,8,18.7,9c0,1-0.1,1.9-0.4,3c-0.3,1.1-0.8,2.1-1.4,3.2c-0.6,1-1.4,2-2.2,2.8c-0.9,0.8-1.8,1.5-2.9,2
		c-1.1,0.5-2.2,0.7-3.4,0.7c-0.9,0-1.7-0.1-2.4-0.2c-0.8-0.2-1.3-0.3-1.8-0.6L7.3,9C8.1,6.2,11.2,5.9,11.4,6.1"/>
	<path class="st0" d="M87.8,16c-0.4,0.6-0.8,1.2-1.2,1.7c-0.4,0.5-0.9,1-1.5,1.3c-0.5,0.3-1.1,0.5-1.7,0.5c-0.5,0-0.9-0.1-1.2-0.4
		c-0.3-0.3-0.4-0.7-0.5-1.1c0-0.5,0-1,0.2-1.6l1.4-5c0.4-1.3,0.7-2.4-0.5-2.3c0.5-0.5,1.6-0.8,2.4-0.8c0.7,0,1.2,0.2,1.4,0.7
		c0.2,0.5,0.2,1.3-0.1,2.4L85.3,16c-0.1,0.3-0.1,0.6-0.1,0.8c0,0.2,0.1,0.3,0.3,0.4c0.4,0,0.8-0.4,1.4-1.2c0.6-0.8,1.1-1.7,1.7-2.7
		c1-1.7,1.6-2.9,2-3.6c0.6-1,1.4-1.5,2.4-1.5c0.4,0,1.2,0.1,1.5,0.2c0,0-0.6,0.2-0.9,1.3c-0.5,1.8-2,7.1-2,7.1
		c1.5-0.7,2.9-1.2,4.1-1.5c0.1,0,0.1,0,0.1,0c0.1,0,0.1,0,0.1,0c0.1,0.1,0.1,0.2,0.1,0.4c-0.1,0.2-0.2,0.3-0.4,0.4
		c-1.2,0.4-2.7,0.9-4.3,1.7l-0.9,3.1c-0.4,1.4-0.9,2.7-1.6,3.8c-0.6,1.1-1.3,2-2.1,2.8c-0.8,0.8-1.6,1.3-2.4,1.7
		c-0.8,0.4-1.7,0.6-2.5,0.6c-0.6,0-1-0.1-1.4-0.4c-0.4-0.2-0.6-0.6-0.8-1c-0.1-0.4-0.1-1,0.1-1.6c0.3-1,0.8-2,1.6-2.9
		c0.8-0.9,1.8-1.9,2.9-2.7c1.1-0.9,2.3-1.6,3.6-2.4l1.5-5.4C88.9,14.2,88.4,15.1,87.8,16 M83.6,27.7c0.4-0.3,0.8-0.7,1.2-1.3
		c0.4-0.5,0.7-1.1,1-1.7c0.3-0.6,0.6-1.3,0.8-2c0.2-0.7,0.4-1.3,0.6-1.9l0.3-1.1c-1,0.6-1.9,1.3-2.7,2c-0.8,0.7-1.6,1.4-2.2,2.2
		c-0.6,0.8-1,1.6-1.3,2.4c-0.2,0.6-0.2,1-0.1,1.4c0.1,0.3,0.4,0.5,1,0.5C82.7,28.2,83.2,28,83.6,27.7"/>
	<path class="st0" d="M61.5,1.2C60.9,0.4,59.9,0,58.6,0c-0.8,0-1.6,0.2-2.5,0.5c-0.8,0.3-1.6,0.8-2.4,1.5c-0.8,0.7-1.5,1.5-2.1,2.6
		c-0.6,1-1.1,2.1-1.5,3.4l-2.5,8.8c-0.1,0.5-0.2,1-0.3,1.5c-0.1,0.5-0.1,0.9,0,1.3c0.1,0.3,0.2,0.6,0.4,0.8c0.2,0.2,0.5,0.3,1,0.3
		c0.6,0,1.1-0.1,1.6-0.4c0.5-0.3,1-0.6,1.5-1c0.5-0.4,0.9-0.9,1.3-1.4c0.4-0.5,0.8-1,1.2-1.6c0.2-0.2,0.3-0.4,0.5-0.7
		c0.2-0.3,0.4-0.5,0.6-0.8c0,0,0.1-0.1,0.1-0.2c0.1-0.2,0-0.3-0.2-0.3c-0.2,0-0.4,0.1-0.6,0.4c-0.1,0.2-0.3,0.4-0.6,0.7
		c-0.3,0.3-0.6,0.8-1,1.3c-0.4,0.5-0.8,0.9-1.2,1.4c-0.4,0.4-0.7,0.6-1,0.6c-0.4,0-0.4-0.4-0.2-1.3l2.7-9.7c0.2-0.8,0.5-1.5,0.7-2.2
		c0.3-0.7,0.6-1.4,1-2C55.6,2.9,56,2.4,56.5,2c0.5-0.4,1-0.5,1.6-0.5c0.4,0,0.7,0.1,1,0.3c0.2,0.2,0.3,0.4,0.4,0.7
		c0.1,0.3,0.1,0.6,0,0.9c0,0.3-0.1,0.7-0.2,0.9C61.2,3.4,62,1.9,61.5,1.2"/>
	<path class="st0" d="M68.3,1.2C67.7,0.4,66.8,0,65.4,0c-0.8,0-1.6,0.2-2.5,0.5c-0.8,0.3-1.6,0.8-2.4,1.5c-0.8,0.7-1.5,1.5-2.1,2.6
		c-0.6,1-1.1,2.1-1.5,3.4l-2.5,8.8c-0.1,0.5-0.2,1-0.3,1.5c-0.1,0.5-0.1,0.9,0,1.3c0.1,0.3,0.2,0.6,0.4,0.8c0.2,0.2,0.5,0.3,1,0.3
		c0.6,0,1.1-0.1,1.6-0.4c0.5-0.3,1-0.6,1.5-1c0.5-0.4,0.9-0.9,1.3-1.4c0.4-0.5,0.8-1,1.2-1.6c0.2-0.2,0.3-0.4,0.5-0.7
		c0.2-0.3,0.4-0.5,0.6-0.8c0,0,0.1-0.1,0.1-0.2c0.1-0.2,0-0.3-0.2-0.3c-0.2,0-0.4,0.1-0.6,0.4c-0.1,0.2-0.3,0.4-0.6,0.7
		c-0.3,0.3-0.6,0.8-1,1.3c-0.4,0.5-0.8,0.9-1.2,1.4c-0.4,0.4-0.7,0.6-1,0.6c-0.4,0-0.4-0.4-0.2-1.3l2.7-9.7C60.5,7,60.8,6.2,61,5.5
		c0.3-0.7,0.6-1.4,1-2c0.4-0.6,0.8-1.1,1.3-1.4c0.5-0.4,1-0.5,1.6-0.5c0.4,0,0.7,0.1,1,0.3c0.2,0.2,0.3,0.4,0.4,0.7
		c0.1,0.3,0.1,0.6,0,0.9c0,0.3-0.1,0.7-0.2,0.9C68,3.4,68.9,1.9,68.3,1.2"/>
	<path class="st0" d="M72.5,14.5c-0.2,0-0.4,0.1-0.6,0.4c-1.1,1.4-2.4,2.5-3.7,3.4c-1,0.6-1.8,0.9-2.5,0.9c-0.5,0-0.9-0.2-1.2-0.5
		c-0.3-0.3-0.5-0.9-0.5-1.6c3.8-1,6.1-2.7,6.8-5.1c0.1-0.5,0.2-0.9,0.2-1.3l0,0c0.4-1.6-1.2-0.7,0.4-1.4c1-0.5,0.9-1.9,0.8-1.9
		c-1.2,1.3-2.4,1.3-3,1.3l0,0c-0.3-0.1-0.7-0.1-1.1-0.1c-1.2,0-2.2,0.3-3.1,0.8c-0.9,0.5-1.7,1.3-2.4,2.2c-0.7,0.9-1.2,2-1.5,3.3
		c-0.3,1.2-0.4,2.2-0.2,3.1c0.2,0.9,0.6,1.5,1.2,2c0.6,0.5,1.3,0.7,2.2,0.7c1.2,0,2.4-0.4,3.7-1.2c1.6-0.9,3.1-2.5,4.8-4.5
		c0.1-0.1,0.1-0.1,0.1-0.2C72.8,14.6,72.7,14.5,72.5,14.5 M64.3,14.5c0.2-0.6,0.4-1.2,0.6-1.8c0.3-0.6,0.5-1.2,0.8-1.6
		c0.3-0.5,0.6-0.9,1-1.2c0.3-0.3,0.7-0.4,1.1-0.4c0.3,0,0.6,0.1,0.7,0.3c0.1,0.2,0.1,0.5,0.1,0.8c0,0.3-0.1,0.6-0.2,0.9
		c-0.7,2.5-2.2,4.1-4.5,4.9C64,15.9,64.1,15.2,64.3,14.5"/>
	<path class="st0" d="M22.7,6.8c0.5,0,1-0.2,1.5-0.6c0.5-0.4,0.8-0.9,1-1.4s0.1-1-0.1-1.4c-0.2-0.4-0.6-0.6-1.2-0.6
		c-0.5,0-1,0.2-1.5,0.6c-0.5,0.4-0.8,0.9-1,1.4c-0.2,0.6-0.1,1,0.1,1.4C21.8,6.6,22.2,6.8,22.7,6.8"/>
	<path class="st0" d="M25.5,15.8c-0.2,0-0.4,0.1-0.6,0.4c-0.1,0.2-0.3-0.5-0.5-0.2c-0.3,0.3-0.4,0.3-0.8,0.8
		c-0.4,0.5-0.8,0.9-1.3,1.4c-0.4,0.4-0.7,0.6-1,0.6c-0.4,0-0.4-0.4-0.2-1.3l1.9-6.7l0,0c0.4-1.6,0.8-1.6,2.4-2.3
		c1-0.5,0.9-1.9,0.8-1.9c-1.2,1.3-4.2,1.8-5,2.4l0,0C21,8.9,20.9,9,20.7,9.2c-0.5,0.5-0.9,1.3-1.2,2.4L18,16.8
		c-0.1,0.5-0.2,1-0.3,1.5c-0.1,0.5-0.1,0.9,0,1.3c0.1,0.3,0.2,0.6,0.4,0.8c0.2,0.2,0.5,0.3,1,0.3c0.6,0,1.1-0.1,1.6-0.4
		c0.5-0.3,1-0.6,1.5-1c0.5-0.4,0.9-0.9,1.3-1.4c0.4-0.5,0.8-1,1.2-1.6c0.2-0.2,0.3-0.4,0.5-0.6c0.2-0.3,0.2,0.9,0.4,0.7
		c0,0,0.2-0.2,0.2-0.3C25.8,15.8,25.7,15.8,25.5,15.8"/>
	<path class="st0" d="M45.6,6.8c0.5,0,1-0.2,1.5-0.6c0.5-0.4,0.8-0.9,1-1.4s0.1-1-0.1-1.4c-0.2-0.4-0.6-0.6-1.2-0.6
		c-0.5,0-1,0.2-1.5,0.6c-0.5,0.4-0.8,0.9-1,1.4c-0.2,0.6-0.1,1,0.1,1.4C44.7,6.6,45.1,6.8,45.6,6.8"/>
	<path class="st0" d="M48.6,14.4c-0.2,0-0.4,0.1-0.6,0.4c-0.1,0.2-0.3,0.4-0.6,0.7c-0.3,0.3-0.6,0.8-1,1.3c-0.4,0.5-0.8,0.9-1.3,1.4
		c-0.4,0.4-0.7,0.6-1,0.6c-0.4,0-0.4-0.4-0.2-1.3l1.9-6.7v0c0.4-1.6,0.8-1.6,2.4-2.3c1-0.5,0.9-1.9,0.8-1.9c-1.2,1.3-4.2,1.8-5,2.4
		l0,0c-0.2,0.1-0.3,0.2-0.5,0.4c-0.5,0.5-0.9,1.3-1.2,2.4l-1.5,5.2c-0.1,0.5-0.2,1-0.3,1.5c-0.1,0.5-0.1,0.9,0,1.3
		c0.1,0.3,0.2,0.6,0.4,0.8c0.2,0.2,0.5,0.3,1,0.3c0.6,0,1.1-0.1,1.6-0.4c0.5-0.3,1-0.6,1.5-1c0.5-0.4,0.9-0.9,1.3-1.4
		c0.4-0.5,0.8-1,1.2-1.6c0.2-0.2,0.3-0.4,0.5-0.7c0.2-0.3,0.4-0.5,0.6-0.8c0,0,0.1-0.1,0.1-0.2C48.9,14.5,48.8,14.4,48.6,14.4"/>
	<path class="st0" d="M83.3,14.5c-0.1-0.1-0.1-0.1-0.2-0.1c-0.2,0-0.4,0.1-0.6,0.4c-0.1,0.2-0.3,0.4-0.6,0.7c-0.3,0.3-0.6,0.8-1,1.3
		c-0.4,0.5-0.8,0.9-1.2,1.4c-0.4,0.4-0.7,0.6-1,0.6c-0.4,0-0.4-0.4-0.2-1.3l1.5-5.3c0.1-0.4,0.1-0.7-0.2-1.1
		c-0.2-0.3-0.5-0.6-0.9-0.8c-0.4-0.2-0.8-0.5-1.2-0.6c-0.4-0.2-1-0.4-1.6-0.6c0.1-0.4,0.1-0.8,0.1-1.1c0-1.1-0.4-1.6-1.2-1.6
		c-0.3,0-0.7,0.1-1,0.4c-0.4,0.3-0.6,0.8-0.7,1.3c-0.2,0.8,0,1.4,0.4,1.7c0,0-0.8,4.6-2,5.6c-0.5,0.4-0.7,1.1-0.7,1.1
		c0.1,0.1,0.6-0.2,0.9-0.4c0.4-0.3,0.5-0.3,1.3-0.7c0.5-0.3,1.5-1.4,1.5-1.4c0.6-1.3,0.9-2.5,1.1-3.4c0.3,0.1,0.4,0.2,0.5,0.2
		c0.2,0.1,0.3,0.2,0.5,0.3C77,11,77,11.2,77,11.3l-1.6,5.5c-0.1,0.5-0.2,1-0.3,1.5c-0.1,0.5-0.1,0.9,0,1.3c0.1,0.3,0.2,0.6,0.4,0.8
		c0.2,0.2,0.6,0.3,1,0.3c0.6,0,1.1-0.1,1.6-0.4c0.5-0.3,1-0.6,1.5-1c0.5-0.4,0.9-0.9,1.3-1.4c0.4-0.5,0.9-1,1.2-1.6
		c0.2-0.2,0.3-0.4,0.5-0.7c0.2-0.3,0.4-0.5,0.6-0.8c0,0,0.1-0.1,0.1-0.2C83.3,14.6,83.3,14.5,83.3,14.5 M73.8,8.5
		c-0.5-0.7,0.4-1.4,0.4-1.4L73.8,8.5z"/>
	<path class="st0" d="M48.2,1.2C47.6,0.4,46.7,0,45.3,0c-0.8,0-1.6,0.2-2.5,0.5C42,0.8,41.2,1.3,40.5,2c-0.8,0.7-1.5,1.5-2.1,2.6
		c-0.5,0.9-1.3,2.9-1.7,4.2h0h-0.3c-0.3,0-0.9,0-1.3,0.4c-0.3,0.2-0.5,0.5-0.5,0.8h1.8l-1.9,6.8c-0.1,0.5-0.2,1-0.3,1.5
		c-0.1,0.5-0.1,0.9,0,1.3c0.1,0.3,0.2,0.6,0.4,0.8c0.2,0.2,0.6,0.3,1,0.3c0.6,0,1.1-0.1,1.6-0.4c0.7-0.4,1.5-1,2.1-1.6
		c0.6-0.6,1.2-1.3,1.8-1.9c0.6-0.7,1.1-1.4,1.6-2c0-0.1,0.1-0.1,0.1-0.2c0-0.1,0-0.1,0-0.2c-0.1-0.1-0.1-0.1-0.2-0.1
		c-0.2,0-0.4,0.1-0.6,0.4c-0.3,0.4-0.8,1-1.6,1.8c-1.3,1.4-2.3,2.2-2.7,2.2c-0.4,0-0.4-0.4-0.2-1.3l2.1-7.4h1.5
		c0.3,0,0.6-0.1,0.8-0.4c0.3-0.3,0.5-0.5,0.6-0.8h-2.5c0,0,0,0,0,0v0c0.2-0.8,0.8-2.6,1.1-3.3c0.3-0.7,0.6-1.4,1-2
		c0.4-0.6,0.8-1.1,1.3-1.4c0.5-0.4,1-0.5,1.6-0.5c0.4,0,0.7,0.1,1,0.3C46,2,46.2,2.3,46.2,2.6c0.1,0.3,0.1,0.6,0,0.9
		c0,0.3-0.1,0.7-0.2,0.9C47.9,3.4,48.8,1.9,48.2,1.2"/>
	<path class="st0" d="M35.8,14.5c-0.1-0.1-0.1-0.1-0.2-0.1c-0.2,0-0.4,0.1-0.6,0.4c-0.1,0.1-0.2,0.3-0.4,0.5
		c-0.7,0.9-1.4,1.6-2.1,2.3c-0.3,0.3-0.7,0.6-1.1,0.9c-0.5,0.4-1,0.6-1.5,0.8c0.8-0.7,1.4-1.5,1.6-2.3c0.2-0.7,0.2-1.2,0-1.6
		c-0.2-0.4-0.4-0.8-0.7-1.1c-0.3-0.3-0.7-0.5-1.1-0.8c-0.3-0.2-0.6-0.4-0.8-0.6c-0.2-0.2-0.4-0.4-0.5-0.7c-0.1-0.2-0.1-0.6,0-0.9
		c0.2-0.5,0.4-1,0.8-1.4c0.4-0.4,0.8-0.6,1.3-0.6c0.3,0,0.5,0.1,0.7,0.2c0.1,0.2,0.2,0.4,0.2,0.6c0,0.2,0,0.5-0.1,0.7
		c-0.1,0.5-0.5,0.8-1.3,0.8c0.1,0.3,0.5,1,1.4,0.9c0.3,0,0.7-0.2,1-0.5c0.3-0.3,0.5-0.7,0.7-1.1c0.1-0.5,0.1-0.8,0-1.1
		C33,9.5,32.8,9.2,32.5,9c-0.3-0.2-0.6-0.3-0.9-0.4c-0.4-0.1-0.7-0.1-1-0.1c-0.7,0-1.3,0.1-2,0.4c-0.7,0.3-1.3,0.7-1.8,1.2
		s-0.9,1.1-1.1,1.9c-0.1,0.5-0.2,0.9-0.2,1.3c0,1.1,1.5,2.2,1.7,2.4c0.3,0.2,0.5,0.4,0.7,0.5c0.2,0.2,0.4,0.4,0.5,0.6
		c0.1,0.2,0.1,0.5,0,0.9c-0.1,0.5-0.4,1-0.8,1.3c-0.4,0.3-0.8,0.5-1.3,0.5c-0.4,0-0.7-0.1-0.9-0.3s-0.3-0.5-0.3-0.9
		c0-0.4,0.3-1.9,1.4-2.3c-0.4-0.8-2.6-0.6-3.3,1c-0.8,2,0.5,2.8,1.1,3.2c0.6,0.3,1.4,0.5,2.4,0.5c1.7,0,3.2-0.4,4.5-1.3
		c1.3-0.8,2.6-2.1,3.9-3.8c0.2-0.3,0.4-0.5,0.6-0.8c0-0.1,0.1-0.1,0.1-0.2C35.9,14.6,35.9,14.5,35.8,14.5"/>
</g>
</svg>
