<?xml version="1.0" encoding="utf-8"?>
<!-- Generator: Adobe Illustrator 22.1.0, SVG Export Plug-In . SVG Version: 6.00 Build 0)  -->
<svg version="1.1" id="Layer_1" xmlns="http://www.w3.org/2000/svg" xmlns:xlink="http://www.w3.org/1999/xlink" x="0px" y="0px"
	 viewBox="0 0 98.8 205.6" style="enable-background:new 0 0 98.8 205.6;" xml:space="preserve">
<style type="text/css">
	
		.st0{clip-path:url(#SVGID_2_);fill:none;stroke:#f9d600;stroke-width:5;stroke-linecap:round;stroke-linejoin:round;stroke-miterlimit:10;}
	
		.st1{clip-path:url(#SVGID_2_);fill:none;stroke:#f9d600;stroke-width:5;stroke-linecap:round;stroke-linejoin:round;stroke-miterlimit:10;}
</style>
<g>
	<defs>
		<rect id="SVGID_1_" width="98.8" height="205.6"/>
	</defs>
	<clipPath id="SVGID_2_">
		<use xlink:href="#SVGID_1_"  style="overflow:visible;"/>
	</clipPath>
	<path class="st0" d="M91,203.1H8.5L2.5,7.2C2.4,4.6,4.5,2.5,7,2.5h84.7c2.5,0,4.6,2.1,4.5,4.6L91,203.1z"/>
	<line class="st0" x1="7.6" y1="182.3" x2="69.1" y2="182.3"/>
	<path class="st0" d="M4.3,65.7c0,0,10.2-8.7,34.2-2c24,6.7,56.3-2.5,56.3-2.5"/>
	<circle class="st1" cx="25.7" cy="126.6" r="5"/>
	<path class="st1" d="M42.2,87.8c0,4.7-3.8,8.5-8.5,8.5c-4.7,0-8.5-3.8-8.5-8.5c0-4.7,3.8-8.5,8.5-8.5
		C38.4,79.3,42.2,83.1,42.2,87.8z"/>
	<path class="st1" d="M63.7,107.4c0,2.3-1.9,4.2-4.2,4.2c-2.3,0-4.2-1.9-4.2-4.2c0-2.3,1.9-4.2,4.2-4.2
		C61.8,103.2,63.7,105.1,63.7,107.4z"/>
	<path class="st1" d="M29.9,166.6c0,2.3-1.9,4.2-4.2,4.2c-2.3,0-4.2-1.9-4.2-4.2s1.9-4.2,4.2-4.2C28,162.3,29.9,164.2,29.9,166.6z"
		/>
	<path class="st1" d="M72.9,147c0,3.8-3.1,6.9-6.9,6.9c-3.8,0-6.9-3.1-6.9-6.9c0-3.8,3.1-6.9,6.9-6.9
		C69.8,140.1,72.9,143.2,72.9,147z"/>
</g>
</svg>
