<?xml version="1.0" encoding="utf-8"?>
<!-- Generator: Adobe Illustrator 22.1.0, SVG Export Plug-In . SVG Version: 6.00 Build 0)  -->
<svg version="1.1" id="Layer_1" xmlns="http://www.w3.org/2000/svg" xmlns:xlink="http://www.w3.org/1999/xlink" x="0px" y="0px"
	 viewBox="0 0 39.4 7.6" style="enable-background:new 0 0 39.4 7.6;" xml:space="preserve">
<style type="text/css">
	.st0{clip-path:url(#SVGID_2_);fill:#FFFFFF;}
	.st1{clip-path:url(#SVGID_2_);fill:none;stroke:#FFFFFF;stroke-width:0.1;stroke-miterlimit:10;}
</style>
<g>
	<defs>
		<rect id="SVGID_1_" y="0" width="39.4" height="7.6"/>
	</defs>
	<clipPath id="SVGID_2_">
		<use xlink:href="#SVGID_1_"  style="overflow:visible;"/>
	</clipPath>
	<path class="st0" d="M11.4,2.2C11.4,2.2,11.4,2.1,11.4,2.2c-0.1-0.1,0-0.1,0-0.1c0,0,0,0,0,0c0-0.1,0,0,0,0c0,0,0,0,0,0
		c0.1,0-0.2-0.3-0.3-0.3c-0.2-0.3-0.7-0.3-1-0.3c-0.2,0-0.6,0.1-0.7,0.3c0,0,0,0,0,0c0,0,0,0,0,0c0,0,0.1-0.2,0.1-0.2L10,0.9
		c0,0,0,0,0,0c0,0,0.8-0.6,0.8-0.6c0,0,0.1,0,0.2-0.1V0c-0.1,0-0.2,0.1-0.2,0.1c0,0,0,0,0,0c0,0-0.2,0.1-0.2,0.1S9.9,0.7,9.7,1
		L9.5,1.2c0,0-0.1,0.1-0.1,0.2c0,0,0,0,0,0c0,0-0.4,0.6-0.2,0.6c0,0,0,0,0,0c0,0,0.3-0.2,0.3-0.2c0,0,0.5-0.3,0.5-0.2
		c0,0,0.2,0,0.2,0c0,0,0,0,0,0c0,0,0.1,0,0.1,0c0,0,0.1,0,0.1,0c0,0,0,0,0,0c0,0,0.3,0,0.4,0.1c0,0,0.1,0,0.1,0c0,0,0,0,0,0
		c0,0,0.2,0.1,0.2,0.1c0,0,0.1,0.1,0.1,0.1c0,0,0.1,0.1,0.1,0.1c0,0,0,0.1,0,0.1c0,0,0,0,0,0c0-0.1-0.4-0.2-0.4-0.3c0,0,0,0-0.1,0
		c-0.1-0.1-0.5-0.1-0.4-0.1c0,0,0,0,0,0c0,0,0,0,0,0c0,0,0,0,0,0c0,0,0,0.1,0,0.1c0,0,0,0,0,0c0,0,0,0,0,0c0,0,0,0,0,0
		c0,0.1,0.7,0.4,0.7,0.4c0.1,0,0.1,0,0.2,0.1c0,0,0,0,0,0c0,0,0,0,0,0c0,0,0,0,0,0c0,0,0,0,0,0c0.2,0.1-0.1,0.5-0.1,0.4
		c0,0-0.2,0.2-0.2,0.2c0,0,0,0,0,0c0,0-0.1,0.1-0.1,0.1c0,0,0-0.1-0.2-0.2c-0.2-0.1-0.5,0-0.6-0.2C9.9,2.5,9.8,2.4,9.8,2.5
		c0,0,0,0,0,0c0,0,0,0,0,0c-0.1,0-0.1,0.1,0,0.2c0.1,0.1,0,0,0,0c0,0,0,0,0,0c0,0-0.4-0.3-0.4-0.2c0,0,0,0,0,0c0,0,0,0.1,0,0.1
		c0,0,0.1,0.1,0.1,0.1c0,0,0,0,0,0s0,0,0,0c0,0,0,0,0,0c0,0-0.4-0.1-0.4-0.1c0,0-0.1,0-0.1,0c0,0,0,0,0,0c0,0,0,0,0,0
		c0,0,0,0.1,0,0.1c0,0,0,0,0,0c0,0,0,0,0,0C9,2.8,9.2,3,9.3,3c0,0,0.4,0,0.5,0c0,0,0,0,0,0c0,0,0.2,0,0.2,0c0,0,0,0,0,0c0,0,0,0,0,0
		c0.1,0,0,0,0,0c0.1,0,0.4,0,0.4,0c0,0,0.5,0,0.2,0.3c-0.1,0.1-0.2,0.2-0.2,0.2c0,0-0.2,0.1-0.2,0.1c0,0-0.4,0.2-0.4,0.2
		C9.6,4.1,9.8,4.5,9.8,4.6c0,0,0.1,0.2,0.1,0.2c0,0,0,0,0,0c0,0,0,0,0,0c0,0,0,0,0,0c0.1,0,0.1-0.3,0.1-0.3c0,0-0.1,0,0-0.1
		c0,0,0,0,0,0c0,0,0,0,0,0c0,0,0,0,0,0c0,0,0,0,0,0c0,0,0.1,0,0.1,0c0,0,0.1,0,0.1,0c0,0.1-0.1,0-0.1,0.1c0,0,0,0.1,0,0.1
		c0,0,0,0.1,0,0.1c0,0,0,0,0,0c0,0,0.1,0.1,0.2,0.1c0,0,0,0,0,0c0,0,0.1,0,0.1,0c0,0,0,0,0,0c0,0,0,0,0,0c0,0,0.1,0.1,0,0.1
		c-0.1,0.1-0.2,0.4-0.3,0.3c0,0,0,0,0,0c0,0,0,0,0,0c0,0,0,0,0,0c0,0,0,0-0.1,0c0,0,0,0,0,0C9.7,4.8,9.4,5.2,9.3,5.2
		C9.1,5.3,9,5.6,8.7,5.6c-0.1,0-0.1,0-0.1,0.1c0,0,0,0.1,0,0.1c0,0,0.1,0,0.1,0c0,0,0.1,0,0.1,0C9,5.8,9,5.8,9,5.9
		c0,0.1,0.2,0.4,0.3,0.5c0.2,0.1,0.1,0.1,0.1,0.3c0,0.1-0.2,0.1-0.3,0C8.9,6.5,8.7,6.7,8.7,6.7c-0.2,0-0.3,0.8-0.3,0.8
		c0,0,0,0.1,0,0.2h0.2c0-0.1,0-0.3,0-0.3c0,0,0.1-0.8,0.4-0.6C9.2,7,9.4,6.9,9.4,6.9c0,0,0.2-0.1,0.1-0.3c0,0,0,0,0,0c0,0,0,0,0,0
		c0,0,0,0,0,0c0,0,0.1,0,0.1,0c0,0,0.2,0.1,0.2,0.1c0,0,0.3,0.1,0.3,0.1c0,0,0.4,0,0.5-0.2c0-0.1,0-0.1,0-0.1c0,0,0.1,0,0.1,0
		c0,0,0,0,0,0c0,0,0,0,0,0c0,0,0.1,0,0.1,0c0.1,0-0.2-0.4-0.2-0.6c0,0,0,0,0,0c0,0,0,0,0-0.1c0,0,0,0,0,0c0,0,0-0.2,0-0.2
		c0,0,0-0.2,0-0.3c0-0.1-0.2,0-0.1-0.1c0,0,0,0,0,0c0,0,0.2-0.3,0.2-0.3c0,0,0.2,0.1,0.2,0.1c0,0,0,0,0,0c0.1,0,0.2,0,0.2,0
		c0,0,0.1,0,0.1,0c0.1,0,0.1-0.1,0.1-0.1c0,0-0.1-0.2,0-0.2c0,0,0,0,0,0c-0.1-0.2-0.3-0.2-0.3-0.2c0,0,0,0,0,0c-0.1,0,0,0,0,0
		c0,0,0,0,0,0c0,0,0,0,0,0c0,0,0,0,0,0c0,0,0,0,0,0c0,0,0,0,0,0c0,0-0.1,0.2,0,0.2c0,0-0.1,0-0.1,0l-0.3-0.5c0,0-0.1,0-0.1,0
		c0,0,0,0,0,0c0,0,0,0,0,0c0,0,0,0,0,0C10.2,4.2,10,4.4,9.9,4.5c0,0-0.1-0.2-0.1-0.2c0-0.3,0-0.3,0.3-0.4c0.3-0.1,1.2-1.2,1-1
		c0,0,0,0,0,0c0,0,0,0,0,0c0,0,0,0,0,0c0,0,0,0,0,0c0,0,0.2-0.2,0.2-0.3c0,0,0-0.2,0-0.2C11.5,2.3,11.4,2.2,11.4,2.2 M10.5,1.9
		C10.5,1.9,10.5,1.9,10.5,1.9C10.6,1.9,10.5,1.9,10.5,1.9 M10.7,1.7C10.7,1.7,10.7,1.7,10.7,1.7C10.7,1.7,10.7,1.7,10.7,1.7
		 M10.7,1.8C10.7,1.8,10.7,1.8,10.7,1.8C10.7,1.8,10.7,1.8,10.7,1.8C10.7,1.8,10.7,1.9,10.7,1.8 M10.7,1.8
		C10.7,1.8,10.7,1.8,10.7,1.8C10.8,1.8,10.7,1.8,10.7,1.8 M10.8,1.9C10.8,1.9,10.8,1.9,10.8,1.9C10.8,1.8,10.8,1.9,10.8,1.9
		C10.8,1.9,10.8,1.9,10.8,1.9 M10.8,2C10.8,2,10.8,1.9,10.8,2C10.8,1.9,10.8,2,10.8,2C10.8,1.9,10.8,2,10.8,2 M10.9,2
		c0,0-0.1-0.1-0.1-0.1C10.8,1.9,10.8,1.9,10.9,2C10.9,1.9,10.9,1.9,10.9,2C10.9,1.9,10.9,1.9,10.9,2C10.9,1.9,10.9,1.9,10.9,2
		C10.9,2,10.9,2,10.9,2 M11,2C10.9,2,11,1.9,11,2C11,2,11,2,11,2 M11,2C11,2,11,2,11,2C11,2,11,2,11,2 M11,2C11,2,11,2,11,2
		C11,2,11,2,11,2C11,2,11,2,11,2C11,2,11,2,11,2C11,2,11,2,11,2C11,2,11,2,11,2 M11.1,1.9C11.1,1.9,11.1,1.9,11.1,1.9
		C11.1,1.9,11,1.9,11.1,1.9 M11.1,2C11.1,2,11.1,2,11.1,2C11.1,2,11.1,2,11.1,2 M11.1,2.1C11.1,2,11.1,2,11.1,2.1
		C11.1,2,11.1,2,11.1,2.1C11.1,2,11.1,2.1,11.1,2.1 M11.1,2.1C11.1,2.1,11.1,2.1,11.1,2.1C11.1,2,11.1,2,11.1,2.1
		C11.1,2,11.1,2,11.1,2.1 M9.3,2.8c0,0,0.2,0,0.2,0C9.5,2.9,9.3,2.9,9.3,2.8 M9.5,2.7C9.5,2.7,9.5,2.7,9.5,2.7
		C9.5,2.7,9.5,2.8,9.5,2.7 M9.8,2.9L9.8,2.9C9.8,2.9,9.8,2.9,9.8,2.9C9.8,2.9,9.8,2.9,9.8,2.9C9.8,2.8,9.9,2.9,9.8,2.9
		c0.1-0.1,0.1-0.1,0.1-0.1c0,0,0.1,0,0.1,0c0,0,0,0,0,0c0,0,0,0,0,0c0,0,0,0,0,0c0,0,0,0,0,0C10.2,2.9,9.8,2.9,9.8,2.9 M9.6,5.1
		C9.6,5.1,9.6,5.1,9.6,5.1C9.6,5.1,9.7,5.1,9.6,5.1 M9.3,5.3C9.3,5.3,9.3,5.3,9.3,5.3C9.2,5.3,9.2,5.3,9.3,5.3 M9.4,6.3
		C9.4,6.3,9.4,6.3,9.4,6.3c0,0-0.1-0.1-0.1-0.1c0,0-0.1-0.2-0.1-0.2c0,0,0,0,0,0c0,0,0-0.1,0,0c0,0,0.2,0.3,0.2,0.2L9.4,6.3
		C9.4,6.3,9.4,6.3,9.4,6.3 M9.7,6.3c0,0.1-0.4-0.4-0.5-0.5c-0.1-0.1,0.5,0,0.5,0.1c0,0,0.1,0.1,0.1,0.1C9.7,6.1,9.7,6.3,9.7,6.3
		 M9.4,5.6l-0.2,0c0,0-0.1,0-0.1,0c0,0,0,0,0,0c0.1-0.1,0.2-0.2,0.2-0.2c0-0.1,0.5-0.3,0.5-0.3c0,0,0,0,0,0c0,0,0,0,0,0
		c0.1,0,0.3,0.1,0.3,0.1c0.1,0-0.2,0.2-0.2,0.2c0,0-0.1,0.3-0.1,0.3C9.7,5.7,9.6,5.6,9.4,5.6 M10.1,6.6c0,0,0.4,0,0.4,0
		C10.5,6.6,10,6.6,10.1,6.6 M9.8,6.4c0,0,0.1-0.3,0.1-0.3c0,0,0.3-0.1,0.4,0.2c0,0.1,0.1,0.1,0.2,0.1C10.5,6.4,9.8,6.4,9.8,6.4
		 M10.4,5.4c0.1,0,0,0.2,0,0.2c0,0,0,0.2,0.1,0.4c0,0,0.1,0.2,0.1,0.2c0,0-0.1-0.1-0.2-0.1c-0.2-0.4-0.6-0.3-0.5-0.3c0,0,0,0,0,0
		c-0.1,0,0.3-0.6,0.3-0.5C10.3,5.5,10.4,5.4,10.4,5.4 M11.1,4.9C11.1,4.9,11.1,4.8,11.1,4.9C11.1,4.8,11.1,4.9,11.1,4.9 M11.1,4.9
		C11.1,4.9,11.1,4.9,11.1,4.9C11.1,4.9,11.1,4.9,11.1,4.9 M10.9,4.7C11,4.7,11,4.7,10.9,4.7C11,4.7,11,4.8,10.9,4.7
		C11.1,4.8,11,4.8,10.9,4.7c-0.1,0.1-0.1,0.2-0.1,0.2C10.8,4.8,10.9,4.6,10.9,4.7 M10.8,4.9C10.8,4.9,10.9,4.9,10.8,4.9
		C10.9,5,10.8,4.9,10.8,4.9C10.8,4.9,10.8,4.9,10.8,4.9C10.8,4.9,10.8,4.9,10.8,4.9C10.8,4.9,10.8,4.9,10.8,4.9 M10.3,4.6
		C10.3,4.6,10.3,4.6,10.3,4.6C10.3,4.6,10.4,4.6,10.3,4.6C10.3,4.6,10.3,4.6,10.3,4.6C10.3,4.6,10.3,4.6,10.3,4.6
		C10.3,4.6,10.3,4.6,10.3,4.6C10.3,4.6,10.3,4.6,10.3,4.6"/>
	<path class="st0" d="M9.8,2.5C9.8,2.5,9.8,2.5,9.8,2.5C9.8,2.5,9.8,2.5,9.8,2.5C9.8,2.5,9.8,2.4,9.8,2.5"/>
	<path class="st0" d="M7.8,3.2c-0.3,0-0.4,0-0.8,0.1C6.7,3.4,6.1,3.6,5.9,3.7c0,0-0.1,0-0.1,0c0,0-0.1,0-0.1,0.1c0,0,0,0.1,0,0.1
		c0,0,0,0.1-0.1,0.1l0,0.1C5.5,4.9,4.7,6.3,4.5,6.3c0,0,0-0.1,0-0.2c0.1-0.7,1-2.8,1.5-2.8c0,0,0,0,0.1,0h0.1c0.1,0,0.1,0,0.2,0
		c0,0,0.1-0.1,0.1-0.1c0-0.1-0.1-0.1-0.1-0.1c-0.1,0-0.1,0-0.2,0C5.3,3.2,4.8,3.8,4.4,4.5C3.8,5.2,3,6,2.8,6c-0.1,0-0.1-0.2,0-0.6
		c0.1-0.7,0.5-1.9,0.6-2.1l0,0C3.5,3.2,3.6,3,3.6,2.9c0-0.2-0.1-0.2-0.2-0.2c-0.1,0-0.2,0.1-0.3,0.2c-0.3,0.3-1.8,2.5-2.4,3
		c0,0,0,0-0.1,0c-0.1,0-0.1-0.1,0-0.2l0-0.1C0.8,4.8,1.1,4,1.6,3.3c0,0,0.2-0.3,0.3-0.5c0-0.2,0-0.3-0.2-0.3c-0.4,0-1.3,1.7-1.5,2.8
		c-0.1,0.6,0,1,0.4,1c0.6,0,1.2-0.8,1.9-1.7C2.3,4.8,2.2,5,2.2,5.2C2,5.8,2,6.5,2.6,6.5C3,6.5,3.4,6.2,4,5.6c0,0,0,0.1,0,0.1
		C3.9,6,3.9,6.2,4,6.4c0,0.2,0.2,0.3,0.4,0.3c0,0,0.1,0,0.2,0c0.6-0.3,0.4-0.2,0.6-0.5c0.1-0.1,0.3-0.4,0.3-0.4
		c0.1-0.3,0.3-0.7,0.3-1.1C5.8,4.5,5.9,4.2,5.9,4l0,0c0,0,0,0,0,0c0.2,0,0.8-0.2,0.9-0.3c0.1,0,0.1,0,0.1-0.1c0.1,0,0.4-0.2,0.4-0.2
		c0.1,0,0.1-0.1,0.4-0.1l0,0l-0.1,0L7.8,3.2L7.8,3.2h0.1H7.8z M7.3,3.4C7.4,3.4,7.4,3.4,7.3,3.4C7.4,3.4,7.3,3.4,7.3,3.4 M7.6,3.3
		C7.6,3.3,7.5,3.3,7.6,3.3L7.6,3.3C7.5,3.3,7.5,3.3,7.6,3.3 M7.5,3.4L7.5,3.4C7.5,3.3,7.5,3.3,7.5,3.4l0.1-0.1
		C7.7,3.3,7.5,3.4,7.5,3.4 M7.6,3.2C7.6,3.2,7.6,3.2,7.6,3.2L7.6,3.2C7.7,3.2,7.7,3.2,7.6,3.2"/>
	<path class="st1" d="M7.8,3.2c-0.3,0-0.4,0-0.8,0.1C6.7,3.4,6.1,3.6,5.9,3.7c0,0-0.1,0-0.1,0c0,0-0.1,0-0.1,0.1c0,0,0,0.1,0,0.1
		c0,0,0,0.1-0.1,0.1l0,0.1C5.5,4.9,4.7,6.3,4.5,6.3c0,0,0-0.1,0-0.2c0.1-0.7,1-2.8,1.5-2.8c0,0,0,0,0.1,0h0.1c0.1,0,0.1,0,0.2,0
		c0,0,0.1-0.1,0.1-0.1c0-0.1-0.1-0.1-0.1-0.1c-0.1,0-0.1,0-0.2,0C5.3,3.2,4.8,3.8,4.4,4.5C3.8,5.2,3,6,2.8,6c-0.1,0-0.1-0.2,0-0.6
		c0.1-0.7,0.5-1.9,0.6-2.1l0,0C3.5,3.2,3.6,3,3.6,2.9c0-0.2-0.1-0.2-0.2-0.2c-0.1,0-0.2,0.1-0.3,0.2c-0.3,0.3-1.8,2.5-2.4,3
		c0,0,0,0-0.1,0c-0.1,0-0.1-0.1,0-0.2l0-0.1C0.8,4.8,1.1,4,1.6,3.3c0,0,0.2-0.3,0.3-0.5c0-0.2,0-0.3-0.2-0.3c-0.4,0-1.3,1.7-1.5,2.8
		c-0.1,0.6,0,1,0.4,1c0.6,0,1.2-0.8,1.9-1.7C2.3,4.8,2.2,5,2.2,5.2C2,5.8,2,6.5,2.6,6.5C3,6.5,3.4,6.2,4,5.6c0,0,0,0.1,0,0.1
		C3.9,6,3.9,6.2,4,6.4c0,0.2,0.2,0.3,0.4,0.3c0,0,0.1,0,0.2,0c0.6-0.3,0.4-0.2,0.6-0.5c0.1-0.1,0.3-0.4,0.3-0.4
		c0.1-0.3,0.3-0.7,0.3-1.1C5.8,4.5,5.9,4.2,5.9,4l0,0c0,0,0,0,0,0c0.2,0,0.8-0.2,0.9-0.3c0.1,0,0.1,0,0.1-0.1c0.1,0,0.4-0.2,0.4-0.2
		c0.1,0,0.1-0.1,0.4-0.1l0,0l-0.1,0L7.8,3.2L7.8,3.2h0.1H7.8z M7.3,3.4C7.4,3.4,7.4,3.4,7.3,3.4C7.4,3.4,7.3,3.4,7.3,3.4z M7.6,3.3
		C7.6,3.3,7.5,3.3,7.6,3.3L7.6,3.3C7.5,3.3,7.5,3.3,7.6,3.3z M7.5,3.4L7.5,3.4C7.5,3.3,7.5,3.3,7.5,3.4l0.1-0.1
		C7.7,3.3,7.5,3.4,7.5,3.4z M7.6,3.2C7.6,3.2,7.6,3.2,7.6,3.2L7.6,3.2C7.7,3.2,7.7,3.2,7.6,3.2z"/>
	<path class="st0" d="M14.6,4.3L15.7,2H16c0.5,0,1.3,0,1.4,0c0,0,0,0-0.1,0c0,0,0.2,0,0.3,0c0,0-0.1,0-0.1,0c0.1,0,0.1,0,0.1,0
		c0,0,0.1,0,0.1,0c0,0,0,0,0,0h0.1c0,0,0,0,0,0c-0.1,0-0.1,0-0.2,0c0,0,0,0,0,0c0,0,0,0,0.1,0c0.1,0,0.1,0,0.1,0c0,0,0.1,0,0.1,0
		c0,0,0.1,0,0.1,0c-0.2-0.2-0.9-0.3-1.6-0.3l-0.6,0h-0.4c-0.3,0-0.7,0-0.7,0.2c0,0.1,0,0.2,0.1,0.2c-0.6,1.1-1.1,2.2-1.6,3.2
		c-0.1,0.2-0.3,0.7-0.5,1.1l0,0.1c-0.1,0.4-0.1,0.7,0.4,0.7c0,0,0,0,0-0.1c0,0,0.1,0,0.3,0c0.4,0,0.9-0.1,1-0.1
		c0.4-0.1-0.1-0.1,0.6-0.1c0-0.1,0.3,0,0.3-0.1h0.1c0,0,0,0,0,0c0,0,0,0,0,0h0c0,0,0.1,0,0.1,0c0.1,0,0.1,0,0.1,0c0,0,0,0-0.1,0
		c0,0,0,0,0.1,0h-0.1c0,0,0.1,0,0.1,0c0,0,0.1,0,0.1,0c0,0,0,0,0.1,0c-0.1-0.1-0.2-0.1-0.4-0.1h-0.2c-0.1,0-0.2,0-0.3,0
		c-0.1,0-0.1,0-0.2,0h-0.2c-0.2,0-0.3,0-0.5,0s-0.3,0-0.5,0c0-0.1,0-0.2,0.1-0.3c0.1-0.5,0.5-0.9,0.7-1.4c0.7,0,0.9-0.1,1.4-0.1
		c0.2,0,0.2,0,0.3,0c0,0,0,0,0,0c0,0,0.2,0,0.2,0l0.1,0l0,0c0.1,0,0.2,0,0.2-0.1c0,0-0.1,0-0.1,0c0,0,0.1,0,0.1,0c0.1,0,0.1,0,0.1,0
		c0,0,0,0,0,0c0,0-0.1,0,0,0c0,0,0.1,0,0.1,0h0c-0.4-0.2-0.9-0.3-1.4-0.3C15.1,4.2,14.8,4.2,14.6,4.3"/>
	<path class="st1" d="M14.6,4.3L15.7,2H16c0.5,0,1.3,0,1.4,0c0,0,0,0-0.1,0c0,0,0.2,0,0.3,0c0,0-0.1,0-0.1,0c0.1,0,0.1,0,0.1,0
		c0,0,0.1,0,0.1,0c0,0,0,0,0,0h0.1c0,0,0,0,0,0c-0.1,0-0.1,0-0.2,0c0,0,0,0,0,0c0,0,0,0,0.1,0c0.1,0,0.1,0,0.1,0c0,0,0.1,0,0.1,0
		c0,0,0.1,0,0.1,0c-0.2-0.2-0.9-0.3-1.6-0.3l-0.6,0h-0.4c-0.3,0-0.7,0-0.7,0.2c0,0.1,0,0.2,0.1,0.2c-0.6,1.1-1.1,2.2-1.6,3.2
		c-0.1,0.2-0.3,0.7-0.5,1.1l0,0.1c-0.1,0.4-0.1,0.7,0.4,0.7c0,0,0,0,0-0.1c0,0,0.1,0,0.3,0c0.4,0,0.9-0.1,1-0.1
		c0.4-0.1-0.1-0.1,0.6-0.1c0-0.1,0.3,0,0.3-0.1h0.1c0,0,0,0,0,0c0,0,0,0,0,0h0c0,0,0.1,0,0.1,0c0.1,0,0.1,0,0.1,0c0,0,0,0-0.1,0
		c0,0,0,0,0.1,0h-0.1c0,0,0.1,0,0.1,0c0,0,0.1,0,0.1,0c0,0,0,0,0.1,0c-0.1-0.1-0.2-0.1-0.4-0.1h-0.2c-0.1,0-0.2,0-0.3,0
		c-0.1,0-0.1,0-0.2,0h-0.2c-0.2,0-0.3,0-0.5,0s-0.3,0-0.5,0c0-0.1,0-0.2,0.1-0.3c0.1-0.5,0.5-0.9,0.7-1.4c0.7,0,0.9-0.1,1.4-0.1
		c0.2,0,0.2,0,0.3,0c0,0,0,0,0,0c0,0,0.2,0,0.2,0l0.1,0l0,0c0.1,0,0.2,0,0.2-0.1c0,0-0.1,0-0.1,0c0,0,0.1,0,0.1,0c0.1,0,0.1,0,0.1,0
		c0,0,0,0,0,0c0,0-0.1,0,0,0c0,0,0.1,0,0.1,0h0c-0.4-0.2-0.9-0.3-1.4-0.3C15.1,4.2,14.8,4.2,14.6,4.3z"/>
	<path class="st0" d="M19,4.5C19,4.5,19,4.5,19,4.5c0.1-0.1,0.2-0.2,0.2-0.3c0,0,0.1-0.1,0.1-0.1c0,0,0,0,0,0c0,0,0,0,0-0.1
		c0-0.1,0.1-0.1,0.1-0.1l0,0c0,0,0,0,0.1,0c0,0,0.1-0.1,0.1-0.2c0.1-0.1,0.2-0.3,0.4-0.4c0,0,0,0,0.1-0.1c0,0,0,0-0.1,0
		c-0.1,0-0.1,0-0.2,0c-0.4,0.1-2.1,2.2-2.3,2.5c0,0,0,0,0,0c-0.1-0.1,0.2-1,0.3-1.5C17.9,4,17.9,3.8,18,3.7c0-0.1,0.2-0.3,0.2-0.5
		c0-0.1,0-0.2-0.1-0.2c0,0,0,0-0.1,0c-0.5,0-0.6,0.3-0.8,0.8l-0.1,0.5c-0.2,0.6-0.4,1.4-0.1,1.8c0.1,0.1,0.2,0.2,0.3,0.2
		c0.1,0,0.2,0,0.3-0.1c0.5-0.5,0.9-1,1.4-1.6l0,0C18.9,4.7,18.9,4.6,19,4.5C19,4.6,19,4.6,19,4.5"/>
	<path class="st1" d="M19,4.5C19,4.5,19,4.5,19,4.5c0.1-0.1,0.2-0.2,0.2-0.3c0,0,0.1-0.1,0.1-0.1c0,0,0,0,0,0c0,0,0,0,0-0.1
		c0-0.1,0.1-0.1,0.1-0.1l0,0c0,0,0,0,0.1,0c0,0,0.1-0.1,0.1-0.2c0.1-0.1,0.2-0.3,0.4-0.4c0,0,0,0,0.1-0.1c0,0,0,0-0.1,0
		c-0.1,0-0.1,0-0.2,0c-0.4,0.1-2.1,2.2-2.3,2.5c0,0,0,0,0,0c-0.1-0.1,0.2-1,0.3-1.5C17.9,4,17.9,3.8,18,3.7c0-0.1,0.2-0.3,0.2-0.5
		c0-0.1,0-0.2-0.1-0.2c0,0,0,0-0.1,0c-0.5,0-0.6,0.3-0.8,0.8l-0.1,0.5c-0.2,0.6-0.4,1.4-0.1,1.8c0.1,0.1,0.2,0.2,0.3,0.2
		c0.1,0,0.2,0,0.3-0.1c0.5-0.5,0.9-1,1.4-1.6l0,0C18.9,4.7,18.9,4.6,19,4.5C19,4.6,19,4.6,19,4.5z"/>
	<path class="st0" d="M26.1,0.5L26.1,0.5c0.1-0.2,0-0.4-0.3-0.4c-0.2,0-0.5,0.1-0.9,0.3c-0.8,0.5-1.9,2-2.6,3.6C22.3,4,22.1,4,22,4
		c-0.3,0.1-0.9,0.2-1.1,0.2c0,0-0.1,0-0.1,0c0,0-0.1,0-0.1,0c0,0,0,0,0,0.1c0,0,0,0-0.1,0.1l0,0.1C20.4,5.1,19.7,6,19.5,6
		c0,0,0-0.1,0-0.1c0.1-0.4,1-1.8,1.5-1.8c0,0,0,0,0.1,0h0.1c0.1,0,0.1,0,0.2,0c0,0,0.1,0,0.1-0.1c0,0-0.1,0-0.1,0
		c-0.1,0-0.1,0-0.2,0c-1.1,0.1-1.9,1-2.1,1.7c-0.1,0.2-0.1,0.3,0,0.4c0,0.1,0.2,0.2,0.4,0.2c0,0,0.1,0,0.2,0C20,6,19.9,6.1,20.1,5.9
		c0.1-0.1,0.3-0.2,0.3-0.3c0.1-0.2,0.3-0.4,0.3-0.7c0.1-0.2,0.1-0.3,0.1-0.5l0,0c0,0,0,0,0,0c0.2,0,0.8-0.1,0.9-0.2
		c0.1,0,0.1,0,0.1,0c0.1,0,0.4-0.1,0.4-0.1c-0.1,0.3-0.3,0.7-0.4,1c-0.3,0.9-0.4,1.7-0.1,2.3c0,0,0.1,0,0.1,0c0,0,0.1,0,0.2,0.1
		c0,0,0,0,0.1,0c0,0,0,0,0.1,0c0,0,0.1,0,0.2,0c0,0,0,0,0,0c0,0-0.1-0.3-0.1-0.3c-0.1-0.7,0-1.5,0.2-2c0.1-0.3,0.2-0.5,0.2-0.6
		C24.1,3.4,25.6,1.8,26.1,0.5 M22.3,4.1C22.3,4.1,22.3,4.1,22.3,4.1L22.3,4.1C22.3,4.1,22.3,4.1,22.3,4.1 M22.5,5.1
		c-0.1,0.2-0.2,0.3-0.2,0.5C22,6.4,22,6.7,22,6.9c0,0,0,0.1,0,0.1c0,0.1,0.1,0.2,0.1,0.2c0,0,0,0,0,0.1c0-0.1,0-0.1,0-0.1
		c0,0,0,0,0,0l0,0.2L22,7.2c0,0,0,0,0,0c0,0,0,0,0,0c0,0,0,0,0,0c0-0.1,0-0.2-0.1-0.3l0,0c0,0,0-0.1,0-0.1c0,0,0,0,0,0
		c0,0,0.1-0.5,0.1-0.5c0,0,0,0-0.1,0.1c0,0.1,0,0.2,0,0.3l0,0c-0.1,0,0-0.1,0-0.1l0-0.1c0-0.1,0-0.1,0-0.1l0,0c0,0,0,0,0,0
		c0,0,0,0,0-0.1c0,0,0,0,0,0c0,0,0,0,0,0C22,6,22,5.8,22,5.7c0,0,0-0.1,0.1-0.1l0,0.1c0,0,0,0.1,0,0.1c0,0,0-0.1,0-0.1l0-0.1
		c0,0,0,0,0,0c0-0.1,0-0.1,0-0.1c0,0,0,0,0.1,0c0,0,0,0,0,0.1c0,0,0,0,0,0.1l0,0.1c0,0,0,0.1-0.1,0.1c0,0,0,0.1,0,0.2L22,6
		c0,0.1,0,0,0,0.1l0,0l0.1-0.4c0-0.1,0-0.1,0.1-0.2l0,0c0-0.1,0-0.1,0.1-0.2c0,0,0.1-0.1,0.1-0.1c0,0,0-0.1,0-0.1
		c0,0,0.1-0.2,0.1-0.2C22.5,5.1,22.5,5.1,22.5,5.1 M23.2,3.6c0.6-1.2,1.8-2.9,2.4-3.1C25.4,1.1,23.8,3,23.2,3.6
		C23.2,3.6,23.2,3.6,23.2,3.6"/>
	<path class="st1" d="M26.1,0.5L26.1,0.5c0.1-0.2,0-0.4-0.3-0.4c-0.2,0-0.5,0.1-0.9,0.3c-0.8,0.5-1.9,2-2.6,3.6C22.3,4,22.1,4,22,4
		c-0.3,0.1-0.9,0.2-1.1,0.2c0,0-0.1,0-0.1,0c0,0-0.1,0-0.1,0c0,0,0,0,0,0.1c0,0,0,0-0.1,0.1l0,0.1C20.4,5.1,19.7,6,19.5,6
		c0,0,0-0.1,0-0.1c0.1-0.4,1-1.8,1.5-1.8c0,0,0,0,0.1,0h0.1c0.1,0,0.1,0,0.2,0c0,0,0.1,0,0.1-0.1c0,0-0.1,0-0.1,0
		c-0.1,0-0.1,0-0.2,0c-1.1,0.1-1.9,1-2.1,1.7c-0.1,0.2-0.1,0.3,0,0.4c0,0.1,0.2,0.2,0.4,0.2c0,0,0.1,0,0.2,0C20,6,19.9,6.1,20.1,5.9
		c0.1-0.1,0.3-0.2,0.3-0.3c0.1-0.2,0.3-0.4,0.3-0.7c0.1-0.2,0.1-0.3,0.1-0.5l0,0c0,0,0,0,0,0c0.2,0,0.8-0.1,0.9-0.2
		c0.1,0,0.1,0,0.1,0c0.1,0,0.4-0.1,0.4-0.1c-0.1,0.3-0.3,0.7-0.4,1c-0.3,0.9-0.4,1.7-0.1,2.3c0,0,0.1,0,0.1,0c0,0,0.1,0,0.2,0.1
		c0,0,0,0,0.1,0c0,0,0,0,0.1,0c0,0,0.1,0,0.2,0c0,0,0,0,0,0c0,0-0.1-0.3-0.1-0.3c-0.1-0.7,0-1.5,0.2-2c0.1-0.3,0.2-0.5,0.2-0.6
		C24.1,3.4,25.6,1.8,26.1,0.5z M22.3,4.1C22.3,4.1,22.3,4.1,22.3,4.1L22.3,4.1C22.3,4.1,22.3,4.1,22.3,4.1z M22.5,5.1
		c-0.1,0.2-0.2,0.3-0.2,0.5C22,6.4,22,6.7,22,6.9c0,0,0,0.1,0,0.1c0,0.1,0.1,0.2,0.1,0.2c0,0,0,0,0,0.1c0-0.1,0-0.1,0-0.1
		c0,0,0,0,0,0l0,0.2L22,7.2c0,0,0,0,0,0c0,0,0,0,0,0c0,0,0,0,0,0c0-0.1,0-0.2-0.1-0.3l0,0c0,0,0-0.1,0-0.1c0,0,0,0,0,0
		c0,0,0.1-0.5,0.1-0.5c0,0,0,0-0.1,0.1c0,0.1,0,0.2,0,0.3l0,0c-0.1,0,0-0.1,0-0.1l0-0.1c0-0.1,0-0.1,0-0.1l0,0c0,0,0,0,0,0
		c0,0,0,0,0-0.1c0,0,0,0,0,0c0,0,0,0,0,0C22,6,22,5.8,22,5.7c0,0,0-0.1,0.1-0.1l0,0.1c0,0,0,0.1,0,0.1c0,0,0-0.1,0-0.1l0-0.1
		c0,0,0,0,0,0c0-0.1,0-0.1,0-0.1c0,0,0,0,0.1,0c0,0,0,0,0,0.1c0,0,0,0,0,0.1l0,0.1c0,0,0,0.1-0.1,0.1c0,0,0,0.1,0,0.2L22,6
		c0,0.1,0,0,0,0.1l0,0l0.1-0.4c0-0.1,0-0.1,0.1-0.2l0,0c0-0.1,0-0.1,0.1-0.2c0,0,0.1-0.1,0.1-0.1c0,0,0-0.1,0-0.1
		c0,0,0.1-0.2,0.1-0.2C22.5,5.1,22.5,5.1,22.5,5.1z M23.2,3.6c0.6-1.2,1.8-2.9,2.4-3.1C25.4,1.1,23.8,3,23.2,3.6
		C23.2,3.6,23.2,3.6,23.2,3.6z"/>
	<path class="st0" d="M30.8,2.4C30.8,2.4,30.8,2.4,30.8,2.4c0,0,0.1-0.1,0.2-0.1c-0.2-0.1-0.6-0.2-0.9-0.2c0.1-0.2,0.3-0.6,0.4-0.9
		c0,0,0-0.1,0-0.1c0-0.1,0-0.1,0-0.2c0,0,0-0.1,0-0.1l0,0c0-0.1,0-0.1,0-0.1c0,0-0.1,0-0.2,0c-0.2,0-0.2,0-0.3,0.2
		c-0.2,0.3-0.5,1-0.7,1.2c-0.4,0-0.7,0-1,0c0,0,0,0,0,0c0,0.1,0.3,0.3,0.5,0.3c0,0,0.2,0,0.3,0h0.1c-0.3,0.6-0.6,1.2-0.9,1.9
		c0,0,0,0,0,0c-0.6,0.5-1.9,1.4-2.2,1.4c-0.1,0-0.1-0.2,0-0.4c0.1-0.5,0.5-1.2,0.6-1.4l0,0c0.1-0.1,0.2-0.2,0.2-0.3
		c0-0.1-0.1-0.1-0.2-0.1c-0.1,0-0.2,0.1-0.3,0.1c-0.3,0.2-1.8,1.6-2.4,2c0,0,0,0-0.1,0c-0.1,0-0.1-0.1,0-0.1l0,0
		C24.1,5,24.5,4.5,24.9,4c0,0,0.2-0.2,0.3-0.3c0-0.1,0-0.2-0.2-0.2c-0.4,0-1.3,1.1-1.5,1.9c-0.1,0.4,0,0.6,0.4,0.6
		c0.6,0,1.2-0.5,1.9-1.1c-0.1,0.1-0.1,0.3-0.2,0.4c-0.1,0.4-0.2,0.8,0.5,0.8c0.5,0,1.1-0.3,2.1-1.1c-0.2,0.4-0.3,0.7-0.5,1
		c0,0.1-0.1,0.1-0.1,0.2c-0.1,0.1-0.2,0.5-0.3,0.7c0,0.1,0,0.1,0,0.1c0,0,0.1-0.2,0.1-0.1c0,0,0,0.1,0.1,0.1c0-0.1,0-0.1,0.1-0.1
		l0,0.1l0,0c0,0,0,0,0,0c0,0,0-0.1,0-0.1c0,0.1,0,0.1,0,0.1c0,0,0,0,0.1-0.1c0,0,0,0,0,0l0,0c0,0,0,0,0,0.1c0,0,0.1,0,0.1-0.1
		c0.8-1.5,1.5-3,2.2-4.6C30.1,2.5,30.7,2.4,30.8,2.4"/>
	<path class="st1" d="M30.8,2.4C30.8,2.4,30.8,2.4,30.8,2.4c0,0,0.1-0.1,0.2-0.1c-0.2-0.1-0.6-0.2-0.9-0.2c0.1-0.2,0.3-0.6,0.4-0.9
		c0,0,0-0.1,0-0.1c0-0.1,0-0.1,0-0.2c0,0,0-0.1,0-0.1l0,0c0-0.1,0-0.1,0-0.1c0,0-0.1,0-0.2,0c-0.2,0-0.2,0-0.3,0.2
		c-0.2,0.3-0.5,1-0.7,1.2c-0.4,0-0.7,0-1,0c0,0,0,0,0,0c0,0.1,0.3,0.3,0.5,0.3c0,0,0.2,0,0.3,0h0.1c-0.3,0.6-0.6,1.2-0.9,1.9
		c0,0,0,0,0,0c-0.6,0.5-1.9,1.4-2.2,1.4c-0.1,0-0.1-0.2,0-0.4c0.1-0.5,0.5-1.2,0.6-1.4l0,0c0.1-0.1,0.2-0.2,0.2-0.3
		c0-0.1-0.1-0.1-0.2-0.1c-0.1,0-0.2,0.1-0.3,0.1c-0.3,0.2-1.8,1.6-2.4,2c0,0,0,0-0.1,0c-0.1,0-0.1-0.1,0-0.1l0,0
		C24.1,5,24.5,4.5,24.9,4c0,0,0.2-0.2,0.3-0.3c0-0.1,0-0.2-0.2-0.2c-0.4,0-1.3,1.1-1.5,1.9c-0.1,0.4,0,0.6,0.4,0.6
		c0.6,0,1.2-0.5,1.9-1.1c-0.1,0.1-0.1,0.3-0.2,0.4c-0.1,0.4-0.2,0.8,0.5,0.8c0.5,0,1.1-0.3,2.1-1.1c-0.2,0.4-0.3,0.7-0.5,1
		c0,0.1-0.1,0.1-0.1,0.2c-0.1,0.1-0.2,0.5-0.3,0.7c0,0.1,0,0.1,0,0.1c0,0,0.1-0.2,0.1-0.1c0,0,0,0.1,0.1,0.1c0-0.1,0-0.1,0.1-0.1
		l0,0.1l0,0c0,0,0,0,0,0c0,0,0-0.1,0-0.1c0,0.1,0,0.1,0,0.1c0,0,0,0,0.1-0.1c0,0,0,0,0,0l0,0c0,0,0,0,0,0.1c0,0,0.1,0,0.1-0.1
		c0.8-1.5,1.5-3,2.2-4.6C30.1,2.5,30.7,2.4,30.8,2.4z"/>
	<path class="st0" d="M31.7,3.3c0.1,0,0.3-0.1,0.4-0.2c0-0.1,0-0.2-0.1-0.2c-0.1,0-0.5,0.1-0.5,0.2C31.4,3.1,31.5,3.3,31.7,3.3"/>
	<path class="st1" d="M31.7,3.3c0.1,0,0.3-0.1,0.4-0.2c0-0.1,0-0.2-0.1-0.2c-0.1,0-0.5,0.1-0.5,0.2C31.4,3.1,31.5,3.3,31.7,3.3z"/>
	<path class="st0" d="M39.2,4.4c0,0-0.1,0-0.1,0.1c-0.9,0.7-2,1.4-2.2,1.4c0,0,0,0,0-0.1c0.1-0.2,0.3-0.8,0.5-1.2
		C37.4,4.3,37.5,4,37,4c0,0-0.1,0-0.1,0c-0.6,0.2-1.3,0.8-1.5,1c0.2-0.3,0.3-0.5,0.4-0.7l0,0C35.9,4.1,36,4,36,3.9c0,0,0-0.1,0-0.1
		c0,0-0.1,0-0.2,0c0,0-0.1,0-0.1,0c-0.2,0-0.3,0.1-0.3,0.2C35.2,4,35,4,34.8,4c-0.3,0.1-0.9,0.2-1.1,0.2c0,0-0.1,0-0.1,0
		c0,0-0.1,0-0.1,0c0,0,0,0,0,0.1c0,0,0,0-0.1,0.1l0,0.1C33.3,5.1,32.5,6,32.4,6c0,0,0-0.1,0-0.1c0.1-0.2,0.4-0.8,0.7-1.2
		c0.1,0,0.1-0.1,0.2-0.1c0,0,0.1-0.1,0.1-0.1c0,0,0,0,0,0C33.5,4.2,33.7,4,33.8,4c0,0,0,0,0.1,0h0.1c0.1,0,0.1,0,0.2,0
		c0,0,0.1,0,0.1-0.1c0,0-0.1,0-0.1,0c-0.1,0-0.1,0-0.2,0c-0.7,0-1.2,0.4-1.6,0.8c-0.7,0.5-1.7,1.1-2.1,1.1c0,0-0.1,0-0.1,0
		c-0.1,0-0.1-0.1-0.1-0.2l0-0.1C30.3,5,31,4.2,31.1,4c0,0,0,0,0,0c0,0-0.1-0.1-0.2-0.1c-0.1,0-0.2,0-0.3,0.1
		c-0.4,0.3-0.9,0.8-1.1,1.3l0,0.1c-0.1,0.5,0,0.8,0.5,0.8c0.2,0,0.4,0,0.6-0.1C31,6,31.5,5.8,31.8,5.5c0,0,0,0.1,0,0.1
		c-0.1,0.2-0.1,0.3,0,0.4c0,0.1,0.2,0.2,0.4,0.2c0,0,0.1,0,0.2,0C32.9,6,32.8,6.1,33,5.9c0.1-0.1,0.3-0.2,0.3-0.3
		c0.1-0.2,0.3-0.4,0.3-0.7c0.1-0.2,0.1-0.3,0.1-0.5l0,0c0,0,0,0,0,0c0.2,0,0.8-0.1,0.9-0.2c0,0,0.1,0,0.1,0c0.1,0,0.4-0.1,0.4-0.1
		c0,0,0,0,0,0c-0.3,0.5-0.7,1.3-0.9,1.8c0,0,0,0,0,0.1c0,0,0,0.1,0.1,0.1l0.1,0c0,0,0,0,0.1,0c0.1,0,0.2-0.1,0.3-0.2c0,0,0,0,0,0
		L35,5.8c0.5-0.5,1-1,1.8-1.5c0,0,0,0.1,0,0.2c-0.1,0.3-0.4,0.8-0.5,1.2c-0.1,0.3-0.1,0.5,0.3,0.5c0.6,0,2.3-1.2,2.7-1.6
		c0,0,0,0,0,0C39.3,4.6,39.3,4.4,39.2,4.4 M35.2,4.1C35.2,4.1,35.2,4.1,35.2,4.1C35.2,4.1,35.2,4.1,35.2,4.1"/>
	<path class="st1" d="M39.2,4.4c0,0-0.1,0-0.1,0.1c-0.9,0.7-2,1.4-2.2,1.4c0,0,0,0,0-0.1c0.1-0.2,0.3-0.8,0.5-1.2
		C37.4,4.3,37.5,4,37,4c0,0-0.1,0-0.1,0c-0.6,0.2-1.3,0.8-1.5,1c0.2-0.3,0.3-0.5,0.4-0.7l0,0C35.9,4.1,36,4,36,3.9c0,0,0-0.1,0-0.1
		c0,0-0.1,0-0.2,0c0,0-0.1,0-0.1,0c-0.2,0-0.3,0.1-0.3,0.2C35.2,4,35,4,34.8,4c-0.3,0.1-0.9,0.2-1.1,0.2c0,0-0.1,0-0.1,0
		c0,0-0.1,0-0.1,0c0,0,0,0,0,0.1c0,0,0,0-0.1,0.1l0,0.1C33.3,5.1,32.5,6,32.4,6c0,0,0-0.1,0-0.1c0.1-0.2,0.4-0.8,0.7-1.2
		c0.1,0,0.1-0.1,0.2-0.1c0,0,0.1-0.1,0.1-0.1c0,0,0,0,0,0C33.5,4.2,33.7,4,33.8,4c0,0,0,0,0.1,0h0.1c0.1,0,0.1,0,0.2,0
		c0,0,0.1,0,0.1-0.1c0,0-0.1,0-0.1,0c-0.1,0-0.1,0-0.2,0c-0.7,0-1.2,0.4-1.6,0.8c-0.7,0.5-1.7,1.1-2.1,1.1c0,0-0.1,0-0.1,0
		c-0.1,0-0.1-0.1-0.1-0.2l0-0.1C30.3,5,31,4.2,31.1,4c0,0,0,0,0,0c0,0-0.1-0.1-0.2-0.1c-0.1,0-0.2,0-0.3,0.1
		c-0.4,0.3-0.9,0.8-1.1,1.3l0,0.1c-0.1,0.5,0,0.8,0.5,0.8c0.2,0,0.4,0,0.6-0.1C31,6,31.5,5.8,31.8,5.5c0,0,0,0.1,0,0.1
		c-0.1,0.2-0.1,0.3,0,0.4c0,0.1,0.2,0.2,0.4,0.2c0,0,0.1,0,0.2,0C32.9,6,32.8,6.1,33,5.9c0.1-0.1,0.3-0.2,0.3-0.3
		c0.1-0.2,0.3-0.4,0.3-0.7c0.1-0.2,0.1-0.3,0.1-0.5l0,0c0,0,0,0,0,0c0.2,0,0.8-0.1,0.9-0.2c0,0,0.1,0,0.1,0c0.1,0,0.4-0.1,0.4-0.1
		c0,0,0,0,0,0c-0.3,0.5-0.7,1.3-0.9,1.8c0,0,0,0,0,0.1c0,0,0,0.1,0.1,0.1l0.1,0c0,0,0,0,0.1,0c0.1,0,0.2-0.1,0.3-0.2c0,0,0,0,0,0
		L35,5.8c0.5-0.5,1-1,1.8-1.5c0,0,0,0.1,0,0.2c-0.1,0.3-0.4,0.8-0.5,1.2c-0.1,0.3-0.1,0.5,0.3,0.5c0.6,0,2.3-1.2,2.7-1.6
		c0,0,0,0,0,0C39.3,4.6,39.3,4.4,39.2,4.4z M35.2,4.1C35.2,4.1,35.2,4.1,35.2,4.1C35.2,4.1,35.2,4.1,35.2,4.1z"/>
</g>
</svg>
