<?xml version="1.0" encoding="utf-8"?>
<!-- Generator: Adobe Illustrator 22.1.0, SVG Export Plug-In . SVG Version: 6.00 Build 0)  -->
<svg version="1.1" id="Layer_1" xmlns="http://www.w3.org/2000/svg" xmlns:xlink="http://www.w3.org/1999/xlink" x="0px" y="0px"
	 viewBox="0 0 589.9 142.2" style="enable-background:new 0 0 589.9 142.2;" xml:space="preserve">
<style type="text/css">
	.st0{clip-path:url(#SVGID_2_);fill:#262324;}
</style>
<g>
	<defs>
		<rect id="SVGID_1_" x="-92.4" y="-75.7" width="778.8" height="285.4"/>
	</defs>
	<clipPath id="SVGID_2_">
		<use xlink:href="#SVGID_1_"  style="overflow:visible;"/>
	</clipPath>
	<path class="st0" d="M158,118.5c3.4,0,6.2,1,8.5,3.1c2.3,2.1,3.4,4.9,3.4,8.5c0,1.8-0.3,3.4-0.9,4.8c-0.6,1.4-1.4,2.5-2.4,3.4
		c-2.1,1.7-4.7,2.5-7.9,2.5c-2.1,0-4.4-0.1-7-0.3v-21.8C153.8,118.6,155.9,118.5,158,118.5 M158.8,139.5c2.9,0,5.2-0.8,6.9-2.3
		c1.7-1.6,2.6-3.9,2.6-7.1c0-3.1-1-5.6-3-7.5c-2-1.9-4.4-2.8-7.3-2.8c-1.9,0-3.5,0.1-4.8,0.2v19.3
		C154.5,139.5,156.4,139.5,158.8,139.5"/>
	<path class="st0" d="M158.8,141.9c-2.1,0-4.4-0.1-7.1-0.3l-0.9-0.1v-23.7l0.9-0.1c2.1-0.1,4.3-0.2,6.4-0.2c3.6,0,6.7,1.1,9.1,3.4
		c2.5,2.3,3.7,5.4,3.7,9.2c0,1.9-0.3,3.7-0.9,5.2c-0.6,1.5-1.6,2.8-2.7,3.7C165,140.9,162.1,141.9,158.8,141.9 M154.2,138.4
		c1.2,0.1,2.7,0.1,4.6,0.1c2.6,0,4.7-0.7,6.3-2.1c1.5-1.4,2.3-3.5,2.3-6.3c0-2.9-0.9-5.1-2.6-6.8c-1.8-1.7-4-2.5-6.6-2.5
		c-1.4,0-2.7,0-3.8,0.1V138.4z"/>
	<rect x="191.6" y="120.7" class="st0" width="1.4" height="19.9"/>
	<rect x="190.6" y="119.7" class="st0" width="3.4" height="21.8"/>
	<path class="st0" d="M219.7,121.6c-1.1,0-2,0.3-2.7,0.8c-0.7,0.5-1,1.3-1,2.2c0,1.1,0.5,2.1,1.4,3c0.7,0.6,1.5,1.3,2.5,2
		c1,0.7,1.7,1.2,2.1,1.5c0.4,0.3,0.9,0.7,1.4,1.3c1,1,1.5,2.2,1.5,3.5c0,1.7-0.6,3-1.7,3.8c-1.1,0.9-2.7,1.3-4.7,1.3
		c-2,0-3.7-0.5-5.1-1.6l0.7-1.1c1.4,0.9,2.9,1.4,4.4,1.4c1.5,0,2.8-0.3,3.6-1c0.9-0.7,1.3-1.6,1.3-2.8c0-1-0.4-2-1.3-2.8
		c-0.6-0.6-1.4-1.3-2.5-2c-1-0.7-1.7-1.2-2.2-1.5c-0.4-0.3-0.9-0.7-1.4-1.3c-1-1-1.6-2.2-1.6-3.6c0-1.4,0.5-2.4,1.4-3.2
		c1-0.8,2.3-1.2,4-1.2c1.7,0,3.3,0.3,4.6,1l-0.5,1.1C222.8,121.9,221.4,121.6,219.7,121.6"/>
	<path class="st0" d="M218.5,142c-2.3,0-4.2-0.6-5.7-1.8l-0.7-0.6l1.8-2.6l0.8,0.6c2.4,1.6,5.5,1.5,6.9,0.5c0.6-0.5,0.9-1.1,0.9-2
		c0-0.8-0.3-1.4-1-2.1c-0.6-0.6-1.3-1.2-2.3-1.9c-1.1-0.7-1.8-1.3-2.2-1.6c-0.4-0.3-0.9-0.8-1.5-1.3c-1.2-1.2-1.9-2.7-1.9-4.3
		c0-1.7,0.6-3,1.8-4c1.1-0.9,2.7-1.4,4.6-1.4c1.9,0,3.6,0.4,5.1,1.1l0.9,0.4l-1.3,2.9l-0.9-0.4c-1.1-0.5-2.4-0.8-3.9-0.8
		c-0.9,0-1.6,0.2-2.1,0.6c-0.4,0.3-0.7,0.8-0.7,1.5c0,0.8,0.4,1.6,1.1,2.3c0.6,0.6,1.4,1.2,2.4,1.9c1.1,0.7,1.8,1.2,2.2,1.6
		c0.4,0.3,0.9,0.8,1.5,1.3c1.2,1.2,1.8,2.6,1.8,4.2c0,2-0.7,3.6-2.1,4.6C222.5,141.5,220.7,142,218.5,142"/>
	<polygon class="st0" points="249.4,122 242.7,122 242.7,120.7 257.5,120.7 257.5,122 250.8,122 250.8,140.6 249.4,140.6 	"/>
	<polygon class="st0" points="251.8,141.6 248.4,141.6 248.4,123 241.7,123 241.7,119.7 258.5,119.7 258.5,123 251.8,123 	"/>
	<rect x="277" y="120.7" class="st0" width="1.4" height="19.9"/>
	<rect x="276" y="119.7" class="st0" width="3.4" height="21.8"/>
	<polygon class="st0" points="301.1,140.6 301.1,120.7 302.5,120.7 302.5,139.3 311.6,139.3 311.6,140.6 	"/>
	<polygon class="st0" points="312.6,141.6 300.1,141.6 300.1,119.7 303.5,119.7 303.5,138.3 312.6,138.3 	"/>
	<polygon class="st0" points="331.1,140.6 331.1,120.7 332.5,120.7 332.5,139.3 341.6,139.3 341.6,140.6 	"/>
	<polygon class="st0" points="342.6,141.6 330.1,141.6 330.1,119.7 333.5,119.7 333.5,138.3 342.6,138.3 	"/>
	<polygon class="st0" points="361.1,140.6 361.1,120.7 370.3,120.7 370.3,122 362.5,122 362.5,129.2 369.6,129.2 369.6,130.4 
		362.5,130.4 362.5,139.3 370.7,139.3 370.7,140.6 	"/>
	<polygon class="st0" points="371.6,141.6 360.1,141.6 360.1,119.7 371.3,119.7 371.3,122.9 363.5,122.9 363.5,128.2 370.6,128.2 
		370.6,131.4 363.5,131.4 363.5,138.3 371.6,138.3 	"/>
	<path class="st0" d="M391.6,140.6v-19.8c1.8-0.1,3.2-0.2,4.5-0.2c1.9,0,3.4,0.5,4.7,1.5s1.8,2.4,1.8,4.1c0,1.2-0.3,2.3-1,3.3
		c-0.7,1-1.5,1.8-2.4,2.5c2.4,3.2,3.9,5.2,4.5,5.8c1.2,1.2,2.4,1.9,3.8,2l0,1c-1.1,0-2.1-0.2-2.8-0.5c-0.7-0.3-1.4-0.9-2.1-1.6
		c-0.7-0.8-2.3-2.8-4.6-6.1c-1.7,0-3.3,0-4.9-0.2v8.1H391.6z M397.1,131.5c0.8,0,1.7-0.5,2.6-1.6c0.9-1.1,1.4-2.3,1.4-3.7
		c0-1.4-0.5-2.5-1.4-3.2c-1-0.7-2.2-1.1-3.7-1.1c-0.8,0-1.8,0-2.9,0.1v9.3C394.5,131.4,395.8,131.5,397.1,131.5"/>
	<path class="st0" d="M408.4,141.8l-1,0c-1.3,0-2.3-0.2-3.2-0.6c-0.8-0.4-1.7-1-2.5-1.8c-0.7-0.7-2.1-2.6-4.4-5.8
		c-1.1,0-2.3,0-3.4-0.1v8.1h-3.4v-21.7l0.9-0.1c1.8-0.1,3.3-0.2,4.6-0.2c2.1,0,3.9,0.6,5.3,1.7c1.5,1.2,2.2,2.8,2.2,4.9
		c0,1.4-0.4,2.7-1.2,3.9c-0.6,0.8-1.2,1.5-1.8,2.1c2.5,3.4,3.5,4.6,3.9,5c1,1,2,1.6,3.2,1.7l0.9,0.1L408.4,141.8z M394,130.4
		c1.1,0.1,2.1,0.1,3.1,0.1c0.5,0,1.1-0.4,1.8-1.3c0.8-0.9,1.1-1.9,1.1-3.1c0-1.1-0.3-1.9-1.1-2.4c-1.1-0.9-2.7-1-5-0.8V130.4z"/>
	<path class="st0" d="M429.9,140.6h-1.4v-7.1l-7.5-12.8h1.7l5.8,9.9c0.4,0.9,0.7,1.4,0.8,1.4c0.1-0.3,0.4-0.7,0.8-1.4l5.8-9.9h1.6
		l-7.5,12.8V140.6z"/>
	<polygon class="st0" points="430.9,141.6 427.6,141.6 427.6,133.8 419.3,119.7 423.3,119.7 429.3,130 435.3,119.7 439.1,119.7 
		430.9,133.8 	"/>
	<rect x="113.3" y="128" class="st0" width="21.7" height="3.5"/>
	<rect x="454.9" y="128" class="st0" width="21.7" height="3.5"/>
	<path class="st0" d="M30.1-0.1c-2.9,0-5.9,0-8.8,0C15.5,0,9.8,0,4.1,0C2.7,0,1.4,0,0,0c1.3,2.4,2.7,4.8,4,7.2c0,0,0.1,0,0.1,0
		c0,33.1,0,66.2,0,99.3c0,0-0.1,0-0.1,0c-1.3,2.7-2.6,5.4-4,8.1c1.4-0.3,2.7-0.6,4.1-0.9c5.6-1.2,11.3-2.4,17-3.6
		c2.9-0.6,5.8-1.2,8.7-1.8c16.3-3.3,24.3-13.7,24.4-30.3c0.1-17.5,0.2-35,0.2-52.5C54.5,9,46.5,0,30.1-0.1 M37.8,81.1
		c0,7.6-3.2,10.9-8.3,11.8c-3.1,0.5-6.1,1-9.2,1.6c0.1-26.3,0.1-52.5,0.2-78.8c3.1-0.1,6.2-0.2,9.2-0.3c5.2-0.1,8.3,2.5,8.3,10.1
		C38,44.1,37.9,62.6,37.8,81.1"/>
	<path class="st0" d="M61.9,102.4c14.8-2.6,29.7-4.9,44.6-7c0-1.6,0-3.2,0-4.8c0-3,0-5.9,0.1-8.9c0-1.2,0-2.3,0-3.5
		c-2.4,1.4-4.9,2.8-7.3,4.2c0,0.1,0,0.1,0,0.2c-7,0.9-14,1.8-21,2.8c0.1-9.7,0.1-19.5,0.2-29.2c5.2-0.5,10.3-0.9,15.5-1.4
		c2.3,0.9,4.7,1.8,7,2.7c0-1.1,0-2.2,0-3.3c0,0,0,0,0,0c0-4.6,0.1-9.2,0.1-13.8c0,0,0,0,0,0c0-1.1,0-2.2,0-3.3
		c-2.3,1.2-4.7,2.4-7,3.7c-5.2,0.3-10.3,0.7-15.5,1c0.1-9.3,0.1-18.5,0.2-27.8c7.3-0.2,14.5-0.3,21.8-0.5c2.2,1,4.4,1.9,6.6,2.9
		c0-1,0-2,0-3c0-3.1,0-6.2,0.1-9.3c0-1.4,0-2.9,0-4.3c-14.9,0-29.8,0.1-44.8,0.1C62.3,34,62.1,68.2,61.9,102.4"/>
	<path class="st0" d="M169.3,3.7c0,2.9,0,5.8-0.1,8.6c0,0.9,0,1.9,0,2.8c2.2-1,4.4-1.9,6.6-2.9c3.5,0,7.1-0.1,10.6-0.1
		c-0.1,23.1-0.3,46.1-0.4,69.2c-1.3,1.9-2.7,3.8-4,5.8c1.3-0.1,2.6-0.2,4-0.3c1.8-0.1,3.6-0.3,5.3-0.4c1.9-0.1,3.7-0.3,5.6-0.4
		c1.9-0.1,3.7-0.3,5.6-0.4c1.2-0.1,2.5-0.2,3.7-0.2c-1.2-1.6-2.5-3.2-3.7-4.8c0.1-22.8,0.3-45.7,0.4-68.5c3.5,0,7.1-0.1,10.6-0.1
		c2.2,0.9,4.4,1.8,6.6,2.6c0-0.9,0-1.8,0-2.7c0-2.8,0-5.5,0-8.3c0-1.3,0-2.6,0-3.8c-16.9,0-33.8,0-50.7,0
		C169.3,1,169.3,2.4,169.3,3.7"/>
	<path class="st0" d="M365.3-0.3c-8,0-16,0-24,0c-5.1,26.1-10.3,52.1-15.5,78c-1.3,1.7-2.6,3.4-3.9,5c1,0,1.9,0,2.9,0.1
		c2.2,0,4.3,0.1,6.5,0.2c1.9,0,3.7,0.1,5.6,0.2c1,0,2.1,0.1,3.1,0.1c1.6,0.1,3.2,0.1,4.8,0.2c-1.3-1.7-2.6-3.4-3.8-5.1
		c0.6-3.4,1.3-6.7,1.9-10.1c6.7,0.2,13.5,0.4,20.2,0.7c0.7,3.6,1.4,7.2,2.1,10.9c-1.1,1.5-2.3,2.9-3.4,4.4c1.4,0.1,2.8,0.1,4.3,0.2
		c1.7,0.1,3.4,0.2,5.1,0.3c1.9,0.1,3.7,0.2,5.6,0.3c2,0.1,4,0.2,6,0.4c0.6,0,1.2,0.1,1.9,0.1c-0.9-1.2-1.7-2.4-2.6-3.6
		C376.2,54,370.7,26.7,365.3-0.3 M344.7,56.8c2.6-14,5.2-28.1,7.8-42.2c2.7,14.2,5.4,28.4,8.1,42.7C355.3,57.1,350,56.9,344.7,56.8"
		/>
	<path class="st0" d="M378.7,3.5c0,2.8,0,5.6,0,8.3c0,0.9,0,1.8,0,2.7c2.2-0.9,4.4-1.8,6.6-2.6c3.5,0,7.1,0.1,10.6,0.1
		c0.1,22.9,0.3,45.8,0.4,68.7c-1.3,1.7-2.6,3.4-3.9,5.1c1.3,0.1,2.7,0.2,4,0.3c1.8,0.1,3.6,0.3,5.3,0.4c1.9,0.1,3.7,0.3,5.6,0.4
		c1.9,0.2,3.7,0.3,5.6,0.5c1.2,0.1,2.5,0.2,3.7,0.3c-1.3-1.8-2.5-3.7-3.8-5.5c-0.2-23.4-0.3-46.7-0.5-70.1c3.5,0,7.1,0.1,10.6,0.1
		c2.2,1,4.4,1.9,6.6,2.9c0-0.9,0-1.9,0-2.8c0-2.9,0-5.8-0.1-8.7c0-1.3,0-2.7,0-4c-16.9,0-33.8,0-50.7,0C378.6,1,378.7,2.2,378.7,3.5
		"/>
	<path class="st0" d="M309.6-0.4c-1.8,0-3.7,0-5.5,0c-1.2,0-2.5,0-3.7,0c-1.4,0-2.7,0-4.1,0c1.3,1.8,2.7,3.5,4,5.3h0.1
		c0,14.8,0,29.5,0,44.3c-5.6-16.5-11.3-33-16.9-49.5c-6.9,0-13.7,0-20.6,0c-0.1,25.9-0.1,51.9-0.2,77.8c0,0,0,0,0,0
		c-1.3,1.8-2.7,3.6-4,5.4c1.4,0,2.7-0.1,4.1-0.1c1.8,0,3.5-0.1,5.3-0.1c1.9,0,3.7-0.1,5.6-0.1c1.3,0,2.7,0,4-0.1c1.3,0,2.6,0,3.9,0
		c-1.3-1.7-2.6-3.3-3.9-5c0-18.3,0-36.7,0.1-55c6.8,20,13.6,39.9,20.5,59.9c5.7,0,11.3,0.1,17,0.1c0-25.9-0.1-51.8-0.1-77.7
		c1.3-1.7,2.6-3.4,3.9-5.2c-1.3,0-2.6,0-3.9,0C313.1-0.4,311.4-0.4,309.6-0.4"/>
	<path class="st0" d="M586,0c-1.8,0-3.6,0-5.4,0c-1.8,0-3.7,0-5.5,0c-1.2,0-2.5,0-3.7,0c-1.4,0-2.7,0-4.1,0c1.3,2.3,2.7,4.7,4,7
		c0,0,0.1,0,0.1,0c0,19.7,0.1,39.5,0.1,59.2c-5.6-22.8-11.3-44.9-17-66.3c-6.9,0-13.7,0-20.6,0c0.2,32.4,0.3,64.7,0.5,97.1
		c0,0,0,0,0,0c-1.3,2-2.6,3.9-4,5.9c1.3,0.2,2.7,0.5,4,0.7c1.7,0.3,3.5,0.6,5.2,0.9c1.8,0.3,3.7,0.7,5.5,1c1.3,0.2,2.7,0.5,4,0.7
		c1.3,0.2,2.5,0.5,3.8,0.7c-1.3-2.4-2.6-4.8-3.8-7.2c-0.1-23.5-0.2-47-0.3-70.5c6.9,26,13.8,53,20.6,81c5.6,1.1,11.1,2.3,16.7,3.5
		c0-35.6,0-71.1,0-106.7c1.3-2.3,2.6-4.7,3.9-7.1C588.6,0,587.3,0,586,0"/>
	<path class="st0" d="M252.8-0.4c-1.3,0-2.6,0-3.8,0c-1.8,0-3.6,0-5.4,0c-1.8,0-3.7,0-5.5,0c-1.8,0-3.6,0-5.4,0c-1.3,0-2.6,0-3.8,0
		c1.3,1.7,2.5,3.4,3.8,5.1c-0.1,24.6-0.2,49.3-0.3,73.9c-1.3,1.8-2.6,3.5-3.9,5.3c1.3-0.1,2.6-0.1,3.9-0.2c1.8-0.1,3.6-0.2,5.5-0.2
		c1.9-0.1,3.7-0.2,5.6-0.2c1.8-0.1,3.6-0.1,5.5-0.2c1.3,0,2.6-0.1,3.9-0.1c-1.3-1.7-2.6-3.3-3.8-5c0.1-24.5,0.2-48.9,0.2-73.4
		C250.3,3,251.6,1.3,252.8-0.4"/>
	<path class="st0" d="M460.9-0.2c-1.3,0-2.6,0-3.8,0c-1.8,0-3.6,0-5.4,0c-1.8,0-3.7,0-5.5,0c-1.8,0-3.6,0-5.4,0c-1.3,0-2.6,0-3.8,0
		c1.3,1.8,2.6,3.7,3.9,5.5c0.2,26.5,0.4,53,0.6,79.5c-1.3,1.7-2.5,3.4-3.8,5.1c1.3,0.1,2.6,0.3,3.8,0.4c1.8,0.2,3.6,0.4,5.4,0.6
		c1.8,0.2,3.7,0.4,5.5,0.6c1.8,0.2,3.6,0.4,5.4,0.6c1.3,0.2,2.6,0.3,3.8,0.5c-1.3-2-2.6-4.1-3.9-6.1c-0.2-27-0.4-54.1-0.6-81.1
		C458.3,3.5,459.6,1.6,460.9-0.2"/>
	<path class="st0" d="M139.5,11.8c4.6-0.1,7.5,1.9,8,6.8c-0.1,0-0.2,0-0.3,0c-1.4,2-2.7,3.9-4.1,5.9c1.5,0,3-0.1,4.4-0.1
		c3.5-0.1,6.9-0.2,10.4-0.3c1.7,0,3.4-0.1,5.1-0.1c0-0.9,0-1.9,0-2.8c0.1-14.2-8-22.3-24-22.4c-16-0.1-24.2,8.6-24.3,23.8
		c-0.2,27.2,31.9,28.5,31.7,47.1c0,6.5-3.3,9.1-8.6,9.6c-5.2,0.5-8.5-1.5-8.4-8.1c0-0.6,0-1.2,0-1.8c1.1-1.7,2.2-3.4,3.3-5.1
		c-1.1,0.1-2.2,0.2-3.3,0.3c-3.8,0.3-7.7,0.7-11.5,1c-1.3,0.1-2.7,0.2-4,0.4c0,1.9,0,3.9,0,5.8c-0.1,15.2,8.2,22.7,24.3,20.7
		c16.1-1.9,24.6-10.8,24.7-25c0.2-25.3-31.9-27.2-31.8-46.4C131.3,14.4,134.3,11.9,139.5,11.8"/>
	<path class="st0" d="M495.5-0.2c-15.9,0-28.9,13.4-28.9,30s28.9,67.5,28.9,67.5s28.9-51,28.9-67.5S511.4-0.2,495.5-0.2 M495.5,60.5
		c0,0-12.7-24.3-12.7-31.6s5.7-13.1,12.7-13.1c7,0,12.6,5.9,12.6,13.1S495.5,60.5,495.5,60.5"/>
</g>
</svg>
