<?xml version="1.0" encoding="utf-8"?>
<!-- Generator: Adobe Illustrator 22.1.0, SVG Export Plug-In . SVG Version: 6.00 Build 0)  -->
<svg version="1.1" id="Layer_1" xmlns="http://www.w3.org/2000/svg" xmlns:xlink="http://www.w3.org/1999/xlink" x="0px" y="0px"
	 viewBox="0 0 466.4 36.6" style="enable-background:new 0 0 466.4 36.6;" xml:space="preserve">
<style type="text/css">
	.st0{clip-path:url(#SVGID_2_);fill:#ffffff;}
</style>
<g>
	<defs>
		<rect id="SVGID_1_" y="0" width="466.4" height="36.6"/>
	</defs>
	<clipPath id="SVGID_2_">
		<use xlink:href="#SVGID_1_"  style="overflow:visible;"/>
	</clipPath>
	<path class="st0" d="M25.6,0.6h-3.4V23c0,3.8-0.8,6.5-2.4,8.1c-1.6,1.6-3.9,2.5-7,2.5c-3.1,0-5.4-0.8-7-2.5
		c-1.6-1.6-2.4-4.3-2.4-8.1V0.6H0V23c0,4.5,1.1,7.9,3.2,10.2c2.1,2.3,5.3,3.4,9.6,3.4c4.2,0,7.4-1.1,9.5-3.4
		c2.2-2.3,3.3-5.7,3.3-10.2V0.6z"/>
	<path class="st0" d="M53,24.8l0.4-0.1L62.1,36h4l-9.6-12l0.8-0.4c1.1-0.6,2.1-1.3,3.1-2.1c1.2-1.1,2.2-2.6,2.9-4.3
		c0.7-1.7,1.1-3.7,1.1-5.8c0-2.3-0.5-4.3-1.4-5.9c-0.9-1.6-2.2-2.8-3.9-3.6c-1.7-0.8-3.7-1.3-6.1-1.3H40.6V36H44V24.9h7.3
		C51.8,24.9,52.4,24.9,53,24.8 M44,3.4h8.9c2.3,0,4.2,0.6,5.7,1.9c1.5,1.3,2.2,3.3,2.2,6c0,1.8-0.3,3.5-1,5.1c-0.7,1.6-1.7,3-3.1,4
		c-1.4,1-3.2,1.5-5.2,1.5H44V3.4z"/>
	<path class="st0" d="M101,31.5c0.6-1.3,1-2.7,1-4.2c0-2-0.5-3.5-1.6-4.8c-0.8-1-2-1.7-3.4-2.1l-1.5-0.5l1.3-0.9
		c0.8-0.5,1.5-1.2,2.1-1.9c0.8-1,1.5-2.2,1.9-3.4c0.4-1.3,0.6-2.6,0.6-3.8c0-3.1-0.9-5.5-2.6-7c-1.8-1.5-4.5-2.3-8.1-2.3H78.5V36
		h13.8c2.4,0,4.3-0.4,5.7-1.3C99.4,33.9,100.4,32.8,101,31.5 M81.9,3.4h8.7c2.2,0,4,0.5,5.3,1.4c1.4,1,2.1,2.7,2.1,5.1
		c0,1.5-0.3,3-0.8,4.3c-0.6,1.4-1.4,2.5-2.5,3.3c-1.2,0.9-2.6,1.3-4.3,1.3h-8.3V3.4z M96.5,32c-1.3,0.8-2.8,1.2-4.4,1.2H81.9V21.7
		h10.2c1.8,0,3.3,0.4,4.5,1.2c1.3,0.9,2,2.4,2,4.5C98.6,29.5,97.9,31.1,96.5,32"/>
	<path class="st0" d="M138,36V6.5c0-1,0-2.1,0.1-3.1c0-1,0.1-1.8,0.2-2.5v0c-1.1-0.2-2.2-0.4-3.3-0.5c-1.2-0.1-2.4-0.2-3.6-0.2
		c-2.5,0-4.6,0.3-6.3,0.8c-1.7,0.5-3,1.3-4.1,2.3c-1,1-1.9,2.3-2.5,3.8c-0.6,1.5-1.1,3.3-1.5,5.3l-4,23.7h3.5l1.9-11.3h16.1V36H138z
		 M118.9,21.9l1.6-9.9c0.4-2,0.9-3.7,1.6-4.9c0.7-1.4,1.9-2.4,3.3-3.1c1.4-0.7,3.3-1,5.7-1c0.8,0,1.5,0,2.2,0.1
		c0.3,0,0.5,0.1,0.7,0.1l0.6,0.1l0,0.8c0,0.1,0,0.2,0,0.4c0,0.6,0,1.2,0,1.9v15.5H118.9z"/>
	<polygon class="st0" points="179.8,36 179.8,0.6 176.3,0.6 176.3,21.6 156.4,0.6 153.4,0.6 153.4,36 156.8,36 156.8,5.8 
		176.3,26.4 176.3,36 	"/>
	<path class="st0" d="M241.3,27.9c1.3-2.8,2-6,2-9.6c0-3.6-0.7-6.9-2-9.6c-1.3-2.7-3.2-4.9-5.7-6.4c-2.4-1.5-5.4-2.3-8.8-2.3
		c-3.4,0-6.4,0.8-8.8,2.3c-2.4,1.5-4.3,3.7-5.7,6.4c-1.3,2.8-2,6-2,9.6c0,3.6,0.7,6.9,2,9.6c1.3,2.7,3.2,4.9,5.6,6.4
		c2.4,1.5,5.4,2.3,8.8,2.3c3.4,0,6.4-0.8,8.8-2.3C238.1,32.8,240,30.6,241.3,27.9 M233.6,31.8c-1.9,1.2-4.2,1.8-6.8,1.8
		c-2.6,0-4.9-0.6-6.8-1.8c-1.9-1.2-3.4-2.9-4.5-5.2c-1-2.3-1.6-5-1.6-8.3c0-3.2,0.5-6,1.6-8.3c1-2.3,2.6-4.1,4.5-5.2
		c1.9-1.2,4.2-1.8,6.8-1.8c2.6,0,4.9,0.6,6.8,1.8c1.9,1.2,3.4,2.9,4.5,5.2c1,2.3,1.6,5,1.6,8.3c0,3.2-0.5,6-1.6,8.3
		C237.1,28.9,235.6,30.7,233.6,31.8"/>
	<path class="st0" d="M281.8,0.6h-3.4V23c0,3.8-0.8,6.5-2.4,8.1c-1.6,1.6-3.9,2.5-7,2.5c-3.1,0-5.4-0.8-7-2.5
		c-1.6-1.6-2.4-4.3-2.4-8.1V0.6h-3.4V23c0,4.5,1.1,7.9,3.2,10.2c2.1,2.3,5.3,3.4,9.6,3.4c4.2,0,7.4-1.1,9.5-3.4
		c2.2-2.3,3.3-5.7,3.3-10.2V0.6z"/>
	<polygon class="st0" points="319.7,0.6 292.5,0.6 292.5,3.4 304.4,3.4 304.4,36 307.9,36 307.9,3.4 319.7,3.4 	"/>
	<path class="st0" d="M343.3,24.8l0.4-0.1l8.7,11.2h4l-9.6-12l0.8-0.4c1.1-0.5,2.1-1.3,3.1-2.1c1.2-1.1,2.2-2.6,2.9-4.3
		c0.7-1.7,1.1-3.7,1.1-5.8c0-2.3-0.5-4.3-1.4-5.9c-0.9-1.6-2.2-2.8-3.9-3.6c-1.7-0.8-3.7-1.3-6.1-1.3h-12.6V36h3.4V24.9h7.3
		C342.1,24.9,342.7,24.9,343.3,24.8 M334.3,3.4h8.9c2.3,0,4.2,0.6,5.7,1.9c1.5,1.3,2.2,3.3,2.2,6c0,1.8-0.3,3.5-1,5.1
		c-0.7,1.6-1.7,3-3.1,4c-1.4,1-3.2,1.5-5.2,1.5h-7.5V3.4z"/>
	<path class="st0" d="M391.4,36V6.5c0-1,0-2.1,0.1-3.1c0-1,0.1-1.8,0.2-2.5v0c-1.1-0.2-2.2-0.4-3.3-0.5c-1.2-0.1-2.4-0.2-3.6-0.2
		c-2.5,0-4.6,0.3-6.3,0.8c-1.7,0.5-3,1.3-4.1,2.3c-1,1-1.9,2.3-2.5,3.8c-0.6,1.5-1.1,3.3-1.5,5.3l-4,23.7h3.5l1.9-11.3h16.1V36
		H391.4z M372.3,21.9L374,12c0.4-2,0.9-3.7,1.6-4.9c0.7-1.4,1.9-2.4,3.3-3.1c1.4-0.7,3.3-1,5.7-1c0.8,0,1.5,0,2.2,0.1
		c0.3,0,0.5,0.1,0.7,0.1l0.6,0.1l0,0.8c0,0.1,0,0.2,0,0.4c0,0.6,0,1.2,0,1.9v15.5H372.3z"/>
	<path class="st0" d="M430.3,18.9h-3.4V33l-0.6,0.1c-0.5,0.1-1,0.2-1.6,0.3c-1,0.2-2,0.3-3.1,0.3c-2.9,0-5.5-0.6-7.6-1.6
		c-2.1-1.1-3.8-2.8-5-5.1c-1.1-2.3-1.7-5.2-1.7-8.7c0-5.2,1.3-9.1,4-11.6C413.9,4.3,417.6,3,422,3c1.8,0,3.4,0.2,4.9,0.6
		c1.1,0.3,2.1,0.6,2.9,1V1.4C429,1,428,0.7,426.8,0.4c-1.4-0.3-3-0.4-4.8-0.4c-3.9,0-7.2,0.8-9.9,2.3c-2.7,1.5-4.8,3.6-6.2,6.4
		c-1.4,2.7-2.2,6-2.2,9.7c0,3.7,0.7,7,2,9.7c1.3,2.7,3.3,4.8,5.9,6.3c2.6,1.5,6,2.3,10,2.3c1.8,0,3.5-0.2,5.1-0.5
		c1.4-0.3,2.6-0.7,3.6-1.2V18.9z"/>
	<polygon class="st0" points="462.9,18.8 462.9,16 447.3,16 447.3,3.4 465.8,3.4 465.8,0.6 443.9,0.6 443.9,36 466.4,36 466.4,33.2 
		447.3,33.2 447.3,18.8 	"/>
</g>
</svg>
