<?xml version="1.0" encoding="utf-8"?>
<!-- Generator: Adobe Illustrator 22.1.0, SVG Export Plug-In . SVG Version: 6.00 Build 0)  -->
<svg version="1.1" id="Layer_1" xmlns="http://www.w3.org/2000/svg" xmlns:xlink="http://www.w3.org/1999/xlink" x="0px" y="0px"
	 viewBox="0 0 142.1 203.2" style="enable-background:new 0 0 142.1 203.2;" xml:space="preserve">
<style type="text/css">
	
		.st0{clip-path:url(#SVGID_2_);fill:none;stroke:#f5d300;stroke-width:5;stroke-linecap:round;stroke-linejoin:round;stroke-miterlimit:10;}
	
		.st1{clip-path:url(#SVGID_2_);fill:none;stroke:#f5d300;stroke-width:5;stroke-linecap:round;stroke-linejoin:round;stroke-miterlimit:10;}
</style>
<g>
	<defs>
		<rect id="SVGID_1_" width="142.1" height="203.2"/>
	</defs>
	<clipPath id="SVGID_2_">
		<use xlink:href="#SVGID_1_"  style="overflow:visible;"/>
	</clipPath>
	<path class="st0" d="M27.8,8.1C29.2,5.4,47.1,2.5,71,2.5s43.3,2.5,43.3,5.6c0,0,5.8,88.6,13.2,100.5c7.6,9.5,12.1,20.9,12.1,33.3
		c0,32.4-30.7,58.7-68.5,58.7c-37.8,0-68.5-26.3-68.5-58.7c0-12.4,1.6-19.9,9.2-29.4l2.6-4C21.7,96.8,27.8,8.1,27.8,8.1"/>
	<path class="st0" d="M6.7,140.8c23,6.2,68.4,13.7,127.4-0.4c5.7-1.4,5.4-8.2-0.4-9.2c-25-4.4-72.2-9.5-126.5,0.5
		C1.5,132.6,1.1,139.3,6.7,140.8z"/>
	<path class="st1" d="M17.4,158.9c0,0,32.2,17.5,107.3,0"/>
</g>
</svg>
