<?xml version="1.0" encoding="utf-8"?>
<!-- Generator: Adobe Illustrator 22.1.0, SVG Export Plug-In . SVG Version: 6.00 Build 0)  -->
<svg version="1.1" id="Layer_1" xmlns="http://www.w3.org/2000/svg" xmlns:xlink="http://www.w3.org/1999/xlink" x="0px" y="0px"
	 viewBox="0 0 67.2 28.8" style="enable-background:new 0 0 67.2 28.8;" xml:space="preserve">
<style type="text/css">
	.st0{clip-path:url(#SVGID_2_); fill: #f3f3f2;}
</style>
<g>
	<defs>
		<rect id="SVGID_1_" y="0" width="67.2" height="28.8"/>
	</defs>
	<clipPath id="SVGID_2_">
		<use xlink:href="#SVGID_1_"  style="overflow:visible;"/>
	</clipPath>
	<path class="st0" d="M8.4,21.6c-1.5,1.4-3.3,2.1-5.4,2.1c-1.1,0-2-0.4-2.5-1C0,22-0.1,21,0.2,19.8c0.7-2.4,2.5-4.1,5.3-5
		c0.5-0.1,0.9-0.2,1.4-0.3c-0.3-0.6-0.7-1.2-1.3-1.8C4,11.1,3.5,9.3,4,7.4c0.3-1,0.8-1.9,1.4-2.6c0.7-0.7,1.4-1.3,2.3-1.7
		c0.9-0.4,1.7-0.6,2.6-0.6c0.9,0,1.7,0.2,2.2,0.5c0.5,0.3,0.8,0.7,1,1.2c0.2,0.5,0.2,0.9,0,1.4c-0.2,0.7-0.5,1.3-1,1.7
		C12.1,7.8,11.6,8,11.2,8c-0.2,0-0.4,0-0.6-0.1c-0.2-0.1-0.3-0.2-0.4-0.3c0.2-0.2,0.4-0.5,0.5-0.8C10.8,6.5,10.9,6.2,11,6
		c0.2-0.7,0.2-1.2,0-1.6c-0.2-0.4-0.5-0.7-1.1-0.7c-0.5,0-0.9,0.1-1.3,0.4c-0.4,0.2-0.7,0.6-1,1C7.4,5.4,7.2,5.9,7.1,6.4
		c-0.4,1.4,0.3,3,2.1,4.8c1,1,1.7,2.2,1.9,3.4c1,0.1,2.3,0.5,3.7,0.2c0.2,0.1-0.3,1.1-1.2,1.1c-1.1,0-1.6-0.4-2.4-0.5
		c0,0.6-0.1,1.3-0.3,2.1C10.2,19.3,9.4,20.6,8.4,21.6 M6.6,15.4c-1.3,0.3-2.3,0.7-3.1,1.4c-0.8,0.7-1.4,1.6-1.7,2.7
		C1.4,21,2,21.8,3.6,21.8c1.7-0.1,2.9-1.3,3.7-3.6c0.3-1.1,0.3-2.1,0-2.9C7,15.3,6.8,15.4,6.6,15.4"/>
	<path class="st0" d="M13.8,25.7c-0.3,1.1-0.7,1.9-1.2,2.4c-0.5,0.5-1.1,0.7-1.9,0.7c-0.4,0-0.7-0.1-1-0.2l4.8-17c0.6-2-0.3-2-0.7-2
		c0.6-0.5,1.9-1.1,2.6-1.1c0.7,0,1.2,0.2,1.4,0.7c0.2,0.5,0.2,1.3-0.1,2.4l-2.3,8.1c0.9,0,1.7-0.3,2.4-0.9c0.7-0.6,1.4-1.3,2-2.3
		c-0.7-0.3-1.2-0.7-1.5-1.2c-0.3-0.5-0.5-1.1-0.6-1.7c-0.1-0.6,0-1.3,0.2-1.9c0.2-0.8,0.6-1.5,1-2c0.4-0.5,1-0.9,1.5-1.1
		c0.6-0.2,1.1-0.3,1.7-0.3c0.8,0,1.5,0.2,1.9,0.7c0.4,0.4,0.7,1,0.7,1.7c0.1,0.7,0,1.5-0.3,2.4c-0.3,1.1-0.7,2-1.2,2.8
		c1.4-0.3,2.9-0.9,4.1-2.2c0.6,0.2,0.2,1.3-0.3,1.8c-1.1,0.9-3.2,1.4-4.4,1.4c-1,1.3-2.1,2.2-3.4,2.8s-2.7,0.9-4.1,0.9L13.8,25.7z
		 M21.5,12.7c0.1-0.3,0.1-0.6,0.2-0.9c0.1-0.4,0.1-0.7,0.1-1c0-0.3-0.1-0.6-0.2-0.8c-0.1-0.2-0.4-0.3-0.7-0.3
		c-0.5,0-0.9,0.2-1.3,0.6c-0.4,0.4-0.7,1-0.8,1.6c-0.1,0.5-0.2,1-0.2,1.6c0.1,0.5,0.2,1,0.5,1.5c0.3,0.4,0.7,0.8,1.3,1
		C20.8,14.8,21.2,13.8,21.5,12.7"/>
	<path class="st0" d="M62.7,1.2C62.2,0.4,61.2,0,59.8,0c-0.8,0-1.6,0.2-2.5,0.5C56.5,0.8,55.7,1.3,55,2c-0.8,0.7-1.5,1.5-2.1,2.6
		c-0.5,0.9-1.3,2.9-1.7,4.2h0H51c-0.3,0-0.9,0-1.3,0.4c-0.3,0.2-0.5,0.5-0.5,0.8h1.8L49,16.8c-0.1,0.5-0.2,1-0.3,1.5
		c-0.1,0.5-0.1,0.9,0,1.3c0.1,0.3,0.2,0.6,0.4,0.8c0.2,0.2,0.6,0.3,1,0.3c0.6,0,1.1-0.1,1.6-0.4c0.7-0.4,1.5-1,2.1-1.6
		c0.6-0.6,1.2-1.3,1.8-1.9c0.6-0.7,0.9-0.3,1.4-1c0-0.1,0,0.1,0,0c0-0.1-0.5-0.1-0.5-0.1c-0.1-0.1-0.1,0.9-0.2,0.9
		c-0.2,0-0.2,0.1-0.2,0.1c-0.3,0.4-0.3-1-1.1-0.1c-1.3,1.4-2.3,2.2-2.7,2.2c-0.4,0-0.4-0.4-0.2-1.3l2.1-7.4h1.5
		c0.3,0,0.6-0.1,0.8-0.4c0.3-0.3,0.5-0.5,0.6-0.8h-2.5c0,0,0,0,0,0v0c0.2-0.8,0.8-2.6,1.1-3.3c0.3-0.7,0.6-1.4,1-2
		c0.4-0.6,0.8-1.1,1.3-1.4c0.5-0.4,1-0.5,1.6-0.5c0.4,0,0.7,0.1,1,0.3c0.2,0.2,0.3,0.4,0.4,0.7c0.1,0.3,0.1,0.6,0,0.9
		c0,0.3-0.1,0.7-0.2,0.9C62.4,3.4,63.3,1.9,62.7,1.2"/>
	<path class="st0" d="M46.9,6.8c0.5,0,1-0.2,1.5-0.6c0.5-0.4,0.8-0.9,1-1.4c0.2-0.6,0.1-1-0.1-1.4c-0.2-0.4-0.6-0.6-1.2-0.6
		c-0.5,0-1,0.2-1.5,0.6c-0.5,0.4-0.8,0.9-1,1.4c-0.2,0.6-0.1,1,0.1,1.4C46,6.6,46.4,6.8,46.9,6.8"/>
	<path class="st0" d="M49.9,14.4c-0.2,0-0.4,0.1-0.6,0.4c-0.1,0.2-0.3,0.4-0.6,0.7c-0.3,0.3-0.6,0.8-1,1.3c-0.4,0.5-0.8,0.9-1.3,1.3
		c-0.4,0.4-0.7,0.6-1,0.6c-0.4,0-0.4-0.4-0.2-1.3l1.9-6.7v0c0.4-1.6,0.8-1.6,2.4-2.3c1-0.5,0.9-1.9,0.8-1.9c-1.2,1.3-4.2,1.8-5,2.4
		l0,0C45.3,8.9,45.1,9,45,9.2c-0.5,0.5-0.9,1.3-1.2,2.4l-1.5,5.2c-0.1,0.5-0.2,1-0.3,1.5c-0.1,0.5-0.1,0.9,0,1.3
		c0.1,0.3,0.2,0.6,0.4,0.8c0.2,0.2,0.5,0.3,1,0.3c0.6,0,1.1-0.1,1.6-0.4c0.5-0.3,1-0.6,1.5-1c0.5-0.4,0.9-0.9,1.3-1.4
		c0.4-0.5,0.8-1,1.2-1.6c0.2-0.2,0.3-0.4,0.5-0.7c0.2-0.3,0.4-0.5,0.6-0.8c0,0,0.1-0.1,0.1-0.2C50.2,14.5,50.1,14.4,49.9,14.4"/>
	<path class="st0" d="M29.8,6.8c0.5,0,1-0.2,1.5-0.6c0.5-0.4,0.8-0.9,1-1.4c0.2-0.6,0.1-1-0.1-1.4c-0.2-0.4-0.6-0.6-1.2-0.6
		c-0.5,0-1,0.2-1.5,0.6c-0.5,0.4-0.8,0.9-1,1.4c-0.2,0.6-0.1,1,0.1,1.4C28.9,6.6,29.3,6.8,29.8,6.8"/>
	<path class="st0" d="M32.8,14.4c-0.2,0-0.4,0.1-0.6,0.4c-0.1,0.2-0.3,0.4-0.6,0.7c-0.3,0.3-0.6,0.8-1,1.3c-0.4,0.5-0.8,0.9-1.3,1.3
		c-0.4,0.4-0.7,0.6-1,0.6c-0.4,0-0.4-0.4-0.2-1.3l1.9-6.7v0c0.4-1.6,0.8-1.6,2.4-2.3c1-0.5,0.9-1.9,0.8-1.9c-1.2,1.3-4.2,1.8-5,2.4
		l0,0C28.2,8.9,28,9,27.8,9.2c-0.5,0.5-0.9,1.3-1.2,2.4l-1.5,5.2c-0.1,0.5-0.2,1-0.3,1.5c-0.1,0.5-0.1,0.9,0,1.3
		c0.1,0.3,0.2,0.6,0.4,0.8c0.2,0.2,0.5,0.3,1,0.3c0.6,0,1.1-0.1,1.6-0.4c0.5-0.3,1-0.6,1.5-1c0.5-0.4,0.9-0.9,1.3-1.4
		c0.4-0.5,0.8-1,1.2-1.6c0.2-0.2,0.3-0.4,0.5-0.7c0.2-0.3,0.4-0.5,0.6-0.8c0,0,0.1-0.1,0.1-0.2C33.1,14.5,33,14.4,32.8,14.4"/>
	<path class="st0" d="M44.5,14.5c-0.1-0.1-0.1-0.1-0.2-0.1c-0.2,0-0.4,0.1-0.6,0.4c-0.1,0.2-0.3,0.4-0.6,0.7c-0.3,0.3-0.6,0.8-1,1.3
		c-0.4,0.5-0.8,0.9-1.2,1.3c-0.4,0.4-0.7,0.6-1,0.6c-0.4,0-0.4-0.4-0.2-1.3l1.5-5.3c0.1-0.4,0.1-0.7-0.2-1.1
		c-0.2-0.3-0.5-0.6-0.9-0.8c-0.4-0.2-0.8-0.5-1.2-0.6c-0.4-0.2-1-0.4-1.6-0.6c0.1-0.4,0.1-0.8,0.1-1.1c0-1.1-0.4-1.6-1.2-1.6
		c-0.4,0-0.7,0.1-1,0.4c-0.4,0.3-0.6,0.8-0.7,1.3c-0.2,0.8,0,1.4,0.4,1.7c0,0-1.3,4.5-1.7,6c-0.1,0.5-0.9,0.8-0.9,0.8
		c0.1,0.1,1,0.2,1.3,0.2c0.6,0,1.2-0.2,1.6-0.6c0.4-0.4,0.8-1.1,1.1-2.1c0.4-1.3,0.7-2.5,0.8-3.5c0.3,0.1,0.4,0.2,0.5,0.2
		c0.2,0.1,0.3,0.2,0.5,0.3c0.1,0.1,0.2,0.2,0.1,0.4l-1.6,5.5c-0.1,0.5-0.2,1-0.3,1.5c-0.1,0.5-0.1,0.9,0,1.3
		c0.1,0.3,0.2,0.6,0.4,0.8c0.2,0.2,0.6,0.3,1,0.3c0.6,0,1.1-0.1,1.6-0.4c0.5-0.3,1-0.6,1.5-1c0.5-0.4,0.9-0.9,1.3-1.4
		c0.4-0.5,0.9-1,1.2-1.6c0.2-0.2,0.3-0.4,0.5-0.7c0.2-0.3,0.4-0.5,0.6-0.8c0,0,0.1-0.1,0.1-0.2C44.5,14.6,44.5,14.5,44.5,14.5
		 M35,8.5c-0.5-0.7,0.4-1.4,0.4-1.4L35,8.5z"/>
	<path class="st0" d="M67.1,14.5c-0.1-0.1-0.1-0.1-0.2-0.1c-0.2,0-0.4,0.1-0.6,0.4c-0.1,0.1-0.2,0.3-0.4,0.5
		c-0.7,0.9-1.4,1.6-2.1,2.3c-0.3,0.3-0.7,0.6-1.1,0.9c-0.5,0.4-1,0.6-1.5,0.8c0.8-0.7,1.4-1.5,1.6-2.3c0.2-0.7,0.2-1.2,0-1.6
		c-0.2-0.4-0.4-0.8-0.7-1.1c-0.3-0.3-0.7-0.5-1.1-0.8c-0.3-0.2-0.6-0.4-0.8-0.6c-0.2-0.2-0.4-0.4-0.5-0.7c-0.1-0.2-0.1-0.6,0-0.9
		c0.2-0.5,0.4-1,0.8-1.4c0.4-0.4,0.8-0.6,1.3-0.6c0.3,0,0.5,0.1,0.7,0.2c0.1,0.2,0.2,0.4,0.2,0.6c0,0.2,0,0.5-0.1,0.7
		c-0.2,0.5-0.5,0.8-1.3,0.8c0.1,0.3,0.5,1,1.4,0.9c0.3,0,0.7-0.2,1-0.5c0.3-0.3,0.5-0.7,0.7-1.1c0.1-0.4,0.1-0.8,0-1.1
		C64.2,9.5,64,9.2,63.8,9c-0.3-0.2-0.6-0.3-0.9-0.4c-0.4-0.1-0.7-0.1-1-0.1c-0.7,0-1.3,0.1-2,0.4c-0.7,0.3-1.3,0.7-1.8,1.2
		s-0.9,1.1-1.1,1.9c-0.1,0.5-0.2,0.9-0.2,1.3c0,1.1,1.5,2.2,1.7,2.4c0.3,0.2,0.5,0.4,0.7,0.5c0.2,0.2,0.4,0.4,0.5,0.6
		c0.1,0.2,0.1,0.5,0,0.9c-0.1,0.5-0.4,1-0.8,1.3c-0.4,0.3-0.8,0.5-1.3,0.5c-0.4,0-0.7-0.1-0.9-0.3c-0.2-0.2-0.3-0.5-0.3-0.9
		c0-0.4,0.3-1.9,1.4-2.3c-0.4-0.8-2.6-0.6-3.3,1c-0.8,2,0.5,2.8,1.1,3.2c0.6,0.3,1.4,0.5,2.4,0.5c1.7,0,3.2-0.4,4.5-1.3
		c1.3-0.8,2.6-2.1,3.9-3.8c0.2-0.3,0.4-0.5,0.6-0.8c0-0.1,0.1-0.1,0.1-0.2C67.2,14.6,67.2,14.5,67.1,14.5"/>
</g>
</svg>
