<?xml version="1.0" encoding="utf-8"?>
<!-- Generator: Adobe Illustrator 22.1.0, SVG Export Plug-In . SVG Version: 6.00 Build 0)  -->
<svg version="1.1" id="Layer_1" xmlns="http://www.w3.org/2000/svg" xmlns:xlink="http://www.w3.org/1999/xlink" x="0px" y="0px"
	 viewBox="0 0 151.9 176" style="enable-background:new 0 0 151.9 176;" xml:space="preserve">
<style type="text/css">
	
		.st0{clip-path:url(#SVGID_2_);fill:none;stroke:#FFF100;stroke-width:5;stroke-linecap:round;stroke-linejoin:round;stroke-miterlimit:10;}
	
		.st1{clip-path:url(#SVGID_2_);fill:none;stroke:#404041;stroke-width:5;stroke-linecap:round;stroke-linejoin:round;stroke-miterlimit:10;}
</style>
<g>
	<defs>
		<rect id="SVGID_1_" width="151.9" height="176"/>
	</defs>
	<clipPath id="SVGID_2_">
		<use xlink:href="#SVGID_1_"  style="overflow:visible;"/>
	</clipPath>
	<path class="st0" d="M19.2,88c0,0,41.2-8,61.6,6.1c20.3,14.1,52,9.2,52,9.2"/>
	<path class="st1" d="M128.5,173.5H23.4c-6.4,0-11.6-5-12-11.3L2.5,10.3C2.3,6,5.6,2.5,9.8,2.5h132.2c4.2,0,7.6,3.5,7.3,7.8
		l-8.9,151.9C140.1,168.5,134.8,173.5,128.5,173.5z"/>
	<line class="st1" x1="12.5" y1="143.5" x2="118.5" y2="143.5"/>
	<path class="st1" d="M8.3,68c0,0,30.3-12.4,60.5,0c24.9,10.2,65.9,15.5,76.8,7.6"/>
	<path class="st1" d="M128.3,88.4L114,98.5c-3.2,2.2-7.6,1.5-9.8-1.7L94.1,82.4c-2.2-3.2-1.5-7.6,1.7-9.8l14.3-10.1
		c3.2-2.2,7.6-1.5,9.8,1.7l10.1,14.3C132.3,81.8,131.5,86.2,128.3,88.4z"/>
	<path class="st1" d="M31.3,107.5l7.6-15.8c1.7-3.5,5.9-5,9.4-3.3l15.8,7.6c3.5,1.7,5,5.9,3.3,9.4l-7.6,15.8c-1.7,3.5-5.9,5-9.4,3.3
		L34.5,117C31,115.3,29.6,111,31.3,107.5z"/>
</g>
</svg>
