<?xml version="1.0" encoding="UTF-8"?><svg xmlns="http://www.w3.org/2000/svg" viewBox="0 0 4544.25 2628.42">
<defs><style>
	.d{fill:#f5d300;}
	.e{fill:#161515;}
	.f{fill:#383836;}</style>
</defs>
<g id="a"/><g id="b"><g id="c"><g><path class="f" d="M3553.96,1852.65c.71,.1,.9,0,0,0h0Z"/><g><path class="d" d="M4537.28,346.2c-17.81-11.45-9.54-23.54-17.81-23.54s-22.72-1.95-23.46-4.17c-.74-2.22-4.06-2.58-5.91-11.82-1.85-9.23,1.11-16.62-9.6-18.09-10.71-1.48-18.46-7.02-20.68-12.92-2.22-5.91-17.39-101.92-59.1-134.17-41.7-32.25-23.91,50.6-77.29,3.89,0,0-12.59-5.27-15.01,22.31-2.41,27.58-15.51,48.27-17.24,48.27s-8.96,2.41-8.27,20c.69,17.58,4.14,22.75,.69,31.37-3.45,8.62-4.83,7.58-3.1,21.03,1.72,13.45,11.03,19.65,5.52,35.17-5.52,15.51,1.72,23.79-8.27,25.86-10,2.07,2.76,25.86-37.92,46.54-40.68,20.69-33.44,40.68-79.98,47.58-46.54,6.9-104.12,26.55-142.04,36.2-37.92,9.65-90.92,92.66-76.87,106.72,14.05,14.05,7.55,23.34,2.17,24.68-5.38,1.34-8.4-7.39-5.38,8.74,3.02,16.13,5.04,14.45,5.04,26.55s-8.4,1.68-14.79,7.39c-6.39,5.71-2.69,10.75-13.11,10.08-10.42-.67-13.44,18.82-29.57,24.53-16.13,5.71-103.17-5.04-129.38,20.84,0,0-2.61,13.53,.64,20.31,3.26,6.78,6.38,8.41,11.8,10.99s13.84,8,9.36,10.31c-4.48,2.31-25.05,48.12-46.06,55.49-21.01,7.37-30.85,26.38-46.28,35.52-15.44,9.14-65.76,53.86-93.8,71.16-28.04,17.3-66.75,23.44-79.33,18.92-12.59-4.51-15.91,9.74-16.62,2.61-.71-7.12,5.22,1.66,1.19-7.84-4.04-9.5-9.26-8.07-17.34-9.26-8.07-1.19-19.95,.24-20.9-7.36-.95-7.6,2.85-5.46,7.6-17.1,4.75-11.64,5.94,1.19,5.46-13.06s-3.32-23.75,1.42-26.6c4.75-2.85,17.81-4.99,17.81-17.34s2.14-11.64,3.09-18.05c.95-6.41,0-9.02,5.46-8.07,5.46,.95,10.69-1.9,13.54,1.42,2.85,3.32,5.94-19.47,5.22-27.79-.71-8.31-7.84-22.8-8.79-24.46-.95-1.66-1.9-18.29-6.89-31.82-4.99-13.54-10.45-13.3-11.16-20.66-.71-7.36-.48-22.56-7.6-25.65-7.12-3.09-18.52-5.94-24.7-.48-6.17,5.46-13.54,.71-15.91,13.54-2.38,12.82-5.46,15.2-9.74,17.81-4.27,2.61-4.99,12.82-15.2,10.69-10.21-2.14-2.37,7.6-9.5,5.7-7.12-1.9-11.4-28.97-8.31-32.3,3.09-3.32,6.41-3.56,11.87-6.65,5.46-3.09,11.87-1.9,9.5-11.87-2.38-9.97,7.84-12.59,8.55-22.09,.71-9.5,.71-2.85,.48-15.67-.24-12.82,4.51-21.37,.95-28.74-3.56-7.36-15.67-11.4-15.2-20.19,.48-8.79,3.8-.48,4.04-11.64,.24-11.16,2.61-17.1-11.87-20.66-14.49-3.56-21.37-3.56-28.26-8.31-6.89-4.75-27.72-8.15-32.47-12.16-4.75-4.01-16.56-9.01-27.06-7.41-10.5,1.6-23.86,16.55-25.57,22.94-1.71,6.39,17.71,6.65,4.3,18.59-13.41,11.94-16.39,5.98-16.7,20.16-.3,14.18,3.32,9.35-.6,20.81-3.92,11.46,.6,23.23-4.52,23.23s-12.07-.6-10.86-12.37c1.21-11.76,5.13-21.72,.6-23.53-4.52-1.81-4.83,2.41-12.37,12.37-7.54,9.95-5.13,13.57-13.57,14.78-8.45,1.21-7.24,2.41-9.05,12.07-1.81,9.65-3.92,28.05-8.14,28.05s9.58,20.99-2.27,30.73c-11.86,9.74-13.55,11.01-11.86,21.6,1.69,10.59,4.66-1.69,6.78,13.55,2.12,15.25,6.78,3.81,4.24,22.87-2.54,19.06-2.96,15.25,1.69,22.45,4.66,7.2,28.93,34.48,26.74,45.09-2.19,10.6,18.04,77.65-45.36,120.94-63.4,43.29-51.03-21.65-54.12-34.4-3.09-12.76-14.3-23.19-14.3-41.36s5.8-39.43-1.93-44.07c-7.73-4.64-11.98-38.66-7.73-48.71,4.25-10.05,4.25-45.23,6.18-57.21,1.93-11.98,20.87-20.49,14.69-33.63-6.18-13.14,1.16-19.71,1.55-26.67,.39-6.96-.39-12.76-.77-18.17-.39-5.41-15.08-8.12-25.13,7.73-10.05,15.85-16.62,24.74-18.55,7.34-1.93-17.4,1.16-15.85,6.96-18.17,5.8-2.32,2.32-9.66,9.66-14.3,7.34-4.64,11.98,7.34,11.98-11.6s6.96-.39,8.89-21.65,6.18-7.73,10.82-22.81c4.64-15.08,5.41-17.4,13.14-18.17,7.73-.77,12.37,4.64,13.53-1.93,1.16-6.57,3.09-9.66,6.57-6.96,3.48,2.71,1.93,14.69,5.03,14.69s6.18-.39,10.05-9.28c3.87-8.89,7.34-12.37,10.82-16.62,3.48-4.25,4.25-17.4,10.82-17.4s17.01,1.55,28.61-1.55c11.6-3.09,2.32-4.64,12.37-4.64s10.44-5.8,17.4-.39c6.96,5.41,15.46,2.32,21.65,7.73,6.18,5.41,17.78,15.46,18.17,3.09,.39-12.37-3.87-16.24,5.8-13.92,9.66,2.32,5.8,3.09,19.33,2.32,13.53-.77,25.51,17.78,25.13-1.93-.39-19.71,.77-15.85-10.05-19.71-10.82-3.87-13.92,6.96-13.92-8.89s10.82-16.24-1.55-16.24-18.94-3.48-28.61,.39c-9.66,3.87-15.46,8.12-19.71,1.93-4.25-6.19-10.05-.39-10.05-12.76s-1.55-13.92-10.05-13.92-15.08,6.57-22.81,11.98c-7.73,5.41-39.43,3.87-49.87,11.98-10.44,8.12-15.46,25.51-23.58,25.13-8.12-.39-35.56-2.32-42.52-7.73-6.96-5.41-19.71-16.24-27.83-27.45-8.12-11.21-40.59,0-52.96,8.89-12.37,8.89-1.93-29.38-5.41-30.92-3.48-1.55-11.21-11.21-23.19,0-11.98,11.21-22.42,28.22-45.61,32.47-23.19,4.25-37.88,18.55-48.71,32.86-10.82,14.3-39.82-5.8-39.82-9.66s.39-12.76,0-20.49c-.39-7.73-16.24-.77-32.08,6.18-15.85,6.96-59.92,24.74-63.78,18.94-3.87-5.8-1.93-10.05,9.66-14.3,11.6-4.25,22.03-15.46,28.99-27.06,6.96-11.6,31.7-28.99,43.68-43.68,11.98-14.69,44.45-38.66,57.98-38.66s22.81-9.66,22.81-15.08-17.78-4.25-20.49-8.5c-2.71-4.25-9.66-7.73-20.87-4.25-11.21,3.48-20.49,5.41-27.06-2.71-6.57-8.12-12.76-8.89-20.49-2.71-7.73,6.18-28.99,17.4-31.31,15.08-2.32-2.32-16.24-4.64-21.26-11.21-5.03-6.57-7.34-10.82-15.85-13.14-8.5-2.32-9.66-3.48-15.46,4.25-5.8,7.73-5.03-10.44-13.14-14.3-8.12-3.87-13.14-15.08-18.55-15.08s-34.02-3.48-43.68,0c-9.66,3.48-23.97,10.05-26.67,3.48-2.71-6.57-10.44-11.98-23.58-11.98s-20.1-.77-27.83-10.05c-7.73-9.28-7.34-30.54-13.53-38.66-6.18-8.12,3.87-17.78-5.41-17.78s-17.4-7.73-18.17,3.48c-.77,11.21,1.93,22.03-5.03,25.13S1805.02,295.12,814.2,0c0,0-1.93,10.67,11.37,31.73,13.3,21.06,.72,9.98-5.73,26.6-6.46,16.63-3.19,25.49,2.93,37.69,6.13,12.19-8.28,22.17-16.04,36.58-7.76,14.41,1.11,24.39-7.76,33.25-8.87,8.87-18.84,11.08-26.6,11.08s-28.82,7.76-26.6-5.54c2.22-13.3,23.28-12.19,28.82-16.63,5.54-4.43,30.09-18.84,13.94-21.06-16.15-2.22-37.21-7.76-26.13-13.3,11.08-5.54,32.14,1.11,33.25-11.08,1.11-12.19,7.92-26.6-7.12-27.71-15.05-1.11-16.15-7.76-35-13.3-18.84-5.54-31.04-1.11-39.9-15.52-8.87-14.41-28.82-19.95-28.82-19.95,0,0-31.07-1.22-5.87,56.75,0,0,.74,16.48-4.45,39.44-5.19,22.97,21.49,42.98,21.49,42.98,0,0-20.01,1.01-22.97,7.17-2.96,6.17,13.34,12.83,13.34,12.83,0,0-9.63,5.93-9.63,15.56s-2.96,19.26-2.96,19.26c0,0-10.37-5.19-10.37,0s28.9,2.22,35.57,17.04c6.67,14.82,21.49,26.67-10.37,12.6-31.86-14.08-32.6-11.11-36.31,6.3-3.7,17.41-39.22,126.51-47.63,139.12-8.41,12.62-52.04,111.44-84.63,136.68,0,0,7.89,27.34,3.15,39.95-4.73,12.62-9.46,16.82-9.99,18.4-.53,1.58-2.1,14.19,0,20.5,2.1,6.31,8.41,4.73,5.78,10.51-2.63,5.78-12.53,9.84-6.85,26.48s9.33,20.28,3.09,29.12c-6.24,8.84-10.92,35.88-53.56,82.17,0,0-13,26,23.92,80.61,0,0,4.16,3.12-7.8,26-11.96,22.88-7.28,32.76-7.28,32.76,0,0,1.04,11.44-2.08,17.68-3.12,6.24,9.88,52,32.24,75.93,0,0-1.34,13.38-2.73,23.1-1.39,9.71,8.79,8.32,8.79,8.32,0,0-1.39,14.8,9.71,15.26s8.79-16.19,9.71-19.42c.92-3.24,13.87-.92,16.65,.92,2.77,1.85,12.49,6.94,15.72,6.94s8.79-5.55,10.64,2.77c1.85,8.32,8.79,8.81,13.87,8.8,5.09,0,20.81-5.08,20.81,0s-4.16,11.09-11.1,10.63-10.64,.92-17.57-4.62c-6.94-5.55-10.17-3.7-18.5-3.7s-21.27-.46-20.35,3.7c.92,4.16,4.16,16.19,4.16,16.19,0,0,3.7-.46,4.62,10.64,.92,11.1,.46,15.72,1.39,17.11,.92,1.39,5.55,4.16,3.7,9.25-1.85,5.09-9.25,1.85-10.64-1.85-1.39-3.7-3.7-6.94-6.47-7.86-2.77-.93-2.77-4.62-4.62-7.86-1.85-3.24-5.55,1.39-5.55-6.01s.93-15.26-.46-15.72c-1.39-.46-6.47-2.31-6.01,4.62,.46,6.94-3.24,12.02-3.24,12.02,0,0,2.31,3.7,2.77,9.25,.46,5.55,1.39,2.77,1.39,9.25s-.92,9.25-3.7,10.64c-2.77,1.39-1.85,7.86,.92,7.86s2.77,.93,2.77,6.47,3.24,3.7,3.24,3.7c0,0,.92-3.24,.92,5.55s5.55,9.25,6.94,9.25h15.26s1.39,1.39,1.39,6.47,5.09,5.55,5.09,5.55c0,0-1.85,18.5-3.7,18.5s-8.79,12.02-13.87,12.02-6.47,30.06,6.47,42.09c12.95,12.02,6.55,35.88,15.17,43.84,8.63,7.96,3.98,25.88,23.89,43.13,19.91,17.25-14.6,23.89,4.65,30.52,19.24,6.64-3.32,44.46-6.64,52.42-3.32,7.96,5.97,27.21,56.4,35.17,50.43,7.96,41.14,32.52,41.14,38.49s22.56,18.58,49.11,22.56c26.54,3.98,7.96,32.52,7.96,32.52,0,0,11.28,3.98,12.61,0,1.33-3.98,50.43,43.13,54.41,73.66,3.98,30.52,3.98,35.17,3.98,35.17,0,0,2.8,9.42,4.02,15.72,1.22,6.3,1.76,13.33,1.76,13.33l.56,8.31s174.86,14.8,186.42,21.25c11.57,6.46-4.57,6.19,0,19.64,4.57,13.45,65.64,43.85,65.64,43.85l220.01,125.4,167.44,27.89,69.47,9.84,5.6-41.47,133.32,12.46s22.69,1.54,23.31,29.01c.63,27.47,62.63,46.26,111.49,114.53,0,0,5.64,8.14,9.39,55.74,3.76,47.6,112.74,107.73,122.13,106.48,9.39-1.25,11.27-12.53,25.68-30.69,14.41-18.16,4.38-33.2,36.95-44.47,32.57-11.27,31.94-4.38,42.59,0,10.65,4.38,46.35,7.52,46.35,7.52,0,0,61.38,47.6,73.91,96.46,12.53,48.85,73.28,124.64,81.42,126.52,8.14,1.88,9.39,60.13,10.02,62.01,.63,1.88,18.16,25.68,28.19,57.62,0,0,10.91,9.66,32.38,8.21,21.47-1.46,25.48,10.55,27.66,13.47,2.18,2.91,13.83,16.01,19.65,16.38,5.82,.36,21.84-.36,29.11,0,7.28,.36,20.02,1.82,24.02,7.64,4,5.82,10.55,11.65,19.65,10.55,9.1-1.09,12.74-5.46,14.92-7.28,2.18-1.82-9.79-13.59-12-22.43-2.21-8.84-4.86-18.13-4.86-18.13,0,0-7.07-7.07-7.07-10.61s-.88-5.75,1.77-5.75,3.54-11.49,0-13.7c-3.54-2.21-5.31-8.84-7.52-16.36-2.21-7.52-2.21-18.57,2.21-18.57s9.73-17.24,3.98-17.24-17.68-2.21-19.89-5.31c-2.21-3.09-5.31-7.96-2.21-7.96s2.21-6.63,0-7.96c-2.21-1.33,5.75-2.65,5.75-2.65,0,0,.44,2.65,3.09,2.65s8.4,4.42,8.84,1.33c.44-3.09,.88-11.05,4.86-8.4,3.98,2.65,2.65,10.61,5.31,10.61s3.98-8.84,3.98-8.84c0,0,5.75,3.54,3.54-6.19-2.21-9.73,.88-14.15-1.77-18.57-2.65-4.42-1.33-4.42-7.52-8.4-6.19-3.98-9.73-11.94-6.19-11.94s25.42-2.21,25.97,1.77c.55,3.98,5.86,3.54,5.86,3.54,0,0,1.77-2.65,4.86-7.52,3.09-4.86,13.26-11.05,6.19-11.05s-15.91,7.07-19.89,4.86c-3.98-2.21-1.77-7.07,.88-7.07s4.86-3.09,8.4-8.84c3.54-5.75,11.09-6.19,13.06-6.19s4.49,.42,5.96,.42,10.87,1.97,10.87-1.67,2.08-13.53,0-17.17c-2.08-3.64,3.12-9.89,5.2-7.28s6.24,1.04,6.24,3.64,5.72,3.64,5.72,3.64c0,0,3.64,3.12,6.24,1.04,2.6-2.08,3.64-1.04,2.6-8.33-1.04-7.28-6.17-14.65-10.94-17.04-4.77-2.38-2.1-1.6,.78-4.92,2.88-3.32,.89-4.87,4.43-4.87s3.63-11.95,6.13-9.07c2.5,2.88,.29,15.27,2.72,17.26,2.43,1.99,7.75,.22,6.42-5.09-1.33-5.31,3.54-5.75,5.53-3.76,1.99,1.99-.22,11.07,3.32,11.07s3.32-1.77,5.75-5.75c2.43-3.98,3.98-3.1,8.41-6.64,4.43-3.54,6.86,8.19,3.32,8.85-3.54,.66-7.53,3.1-3.76,3.32,3.76,.22,3.76,3.32,11.73,.89,7.97-2.43,6.42-8.85,9.96-8.85s8.85-1.77,11.07-4.21c2.21-2.43,8.19-.66,12.62-.66s10.47-6.27,15.84-8.5c5.37-2.24,19.9-13.21,21.73-21.75,1.83-8.54,7.01-15.25,11.59-14.03,4.57,1.22,6.71-10.37,7.93-10.37s8.54,1.52,8.84-.91c.3-2.44-3.05-9.15-4.88-9.76-1.83-.61-1.22-3.35-3.66-6.4-2.44-3.05-.61-9.76-1.83-10.98-1.22-1.22-4.57-6.71-5.18-8.84-.61-2.13-3.96-2.74-4.88-5.79-.91-3.05-2.44-5.49,2.13-5.18,4.57,.31,7.01-1.83,8.23,5.18,1.22,7.01,12.5,4.57,15.25-3.66,2.74-8.23,13.72-.91,13.72-.91,0,0,1.88-.92,1.95-.14,.07,.79,0,20.65,0,20.65,0,0,23.55,5.49,31.42-1.04,7.87-6.53,8.64-5.57,10.56-4.61,1.92,.96,4.23-4.23,8.64-4.23s11.33-.19,11.33-.19c0,0,4.59-9.11,0-8.34-4.59,.77-3.67-7.83-3.67-10.75s3.22-3.22,4.15-2.92c.92,.31,1.91-2.46,1.57-6.6-.34-4.15,3.65-3.53,4.73-3.53s-.31-4.45,0-4.76c.31-.31,4.76-1.54,5.83-.31,1.07,1.23,4.61,.46,5.07,.46s-.79,15.75-1.14,22.03c-.35,6.28,18.55,1.74,29.54-1.29,10.99-3.03,17.24,1.14,21.22,3.79s14.21,1.14,19.89,7.01c5.68,5.87,20.84,9.09,25.01,10.04,4.17,.95,4.55-.95,11.56-.76,7.01,.19,24.44,.57,28.8,.76,4.36,.19-2.08-11.37-3.79-12.69-1.71-1.33-1.33-3.79,.95-5.68,2.27-1.89,8.53-2.65,12.13-3.22,3.6-.57,16.86-7.58,25.01,1.33,8.15,8.9,20.65,10.23,20.65,10.23,0,0,4.74,9.85,14.78,9.28,10.04-.57,17.81,11.75,19.32,14.59,1.52,2.84,19.7,2.27,22.36,3.41,2.65,1.14,1.71,7.39,9.66,10.04,7.96,2.65-.95,7.01,0,8.53,.95,1.52,7.77,4.17,9.47-4.17,1.71-8.34-.95-8.53,2.65-12.5s8.9-.76,13.64-1.14c4.74-.38,17.43-3.22,19.14,.57s3.41,.38,4.36,7.77c.95,7.39,8.15,8.15,9.47,5.3,1.33-2.84-2.84-9.47-3.6-12.13-.76-2.65,5.12,5.3,5.12-4.55s-3.22-13.26-7.58-15.91c-4.36-2.65-2.84-11.94,7.58-6.44,10.42,5.49,16.29,4.74,20.08,4.36,3.79-.38,2.84-.95,4.17,4.55,1.33,5.49,9.47,9.85,14.78,9.47,5.3-.38,3.98,1.33,6.25,4.55,2.27,3.22,7.96,1.52,13.26,5.49,5.3,3.98,8.72,3.41,12.13,6.06,3.41,2.65,5.68,5.3,8.9,5.68,3.22,.38-2.84,3.03-1.14,4.17,1.71,1.14,5.68,7.2,5.49,.95-.19-6.25,.95-8.15-.76-15.91-1.71-7.77-5.68-9.47-14.78-9.85-9.09-.38-13.45-2.46-16.67-5.87-3.22-3.41-6.63-3.22-11.56-7.58-4.93-4.36-4.36-2.65-7.39-7.2-3.03-4.55-6.82-4.93-6.44-8.34,.38-3.41,2.84-3.22,3.98-4.55s.38-1.14,1.14-6.44c.76-5.3,19.33-2.73,19.33-8.08s10.26-33.3-18.58-6.24c0,0-20.37-7.88-20.07-15.76,.3-7.88-5.8-4.01-9.66,3.27-3.87,7.28-28.25,6.39-33.01,1.93-4.76-4.46-8.92-6.54-5.5-13.08,3.42-6.54,2.82-9.81,6.24-12.64,3.42-2.82,5.5-2.53,9.07-7.28,3.57-4.76,15.02-6.54,18.14-3.72,3.12,2.82,1.93,7.58,4.91,9.22s7.58,1.49,10.7,1.34c3.12-.15,9.37-2.38,11.15,1.78,1.78,4.16-2.08,4.76,2.53,4.16,4.61-.59,12.49,.45,17.54-1.34,5.06-1.78,8.18-1.04,8.18-6.39s-4.76-10.11,1.04-11.6c5.8-1.49,34.79,3.72,35.83,.15,1.04-3.57,14.42-4.31,19.03-3.27,4.61,1.04,20.81,.45,25.87-1.49s10.7-9.66,13.98-7.43c3.27,2.23,6.54,6.39,9.66,4.16,3.12-2.23,4.2-4.3,3.59-9.67-.61-5.37-.69-7.81,.16-10.45,.85-2.64,2.98-11.56,1.46-15.01-1.52-3.45,8.82-6.19,8.92-.61,.1,5.58,2.43,6.9,4.26,6.9s1.12-1.62,1.12,4.06,2.03,5.98,2.64,9.74c.61,3.75-2.23,10.04,1.12,11.56,3.35,1.52,5.37,1.42,8.01,4.66,2.64,3.24,1.32,4.66,4.87,4.56,3.55-.1,6.19,1.72,9.53,.71s1.32-8.42,5.58-8.11c4.26,.3,3.75-1.12,4.97-2.33,1.22-1.22,3.04-8.01,3.35-10.04,.3-2.03-.2-3.24,3.35-3.65,3.55-.41,5.17-.61,5.17,2.03s-.41,5.37,0,8.82c.41,3.45,12.07-.41,10.55-4.66-1.52-4.26-1.32-12.37,.91-14.5,2.23-2.13,3.75-4.87,9.33-2.54,5.58,2.33,10.24-1.52,11.76,7.4,1.52,8.92,5.07,5.17,8.92,5.68,3.85,.51,21.89,1.86,30.89-11.47,9-13.33,23.19-.87,25.79,1.21,2.6,2.08,6.58-4.67,8.65,4.67,2.08,9.35,6.23,12.29,11.42,12.98,5.19,.69,10.56,0,11.77-2.42,1.21-2.42,12.46-4.15,15.58-3.29,3.12,.87,4.33-3.46,5.37,3.63,1.04,7.1-4.85,3.12-4.67,8.31,.17,5.19,11.77,8.83,13.15,4.85,1.38-3.98,2.77-5.02,5.19,.52,2.42,5.54,5.54-3.81,7.44,5.89,1.9,9.69-.17,3.98,1.21,10.56,1.38,6.58,2.6,.52,5.37,6.4,2.77,5.88,1.56,.69,2.77,7.27,1.21,6.58,19.21,5.19,24.75,1.04,5.54-4.15,3.46-8.83,6.4-8.65,2.94,.17,7.1,.87,11.25,.17,4.15-.69-.52-4.5,5.54-4.33,6.06,.17,1.9-4.5,6.23-4.15,4.33,.35,6.58-3.63,8.83-5.02,2.25-1.38,2.77-3.81,5.71-5.02,2.94-1.21,3.12-2.6,3.63-5.54,.52-2.94,4.67-4.85,4.67-7.27s-3.29-7.1,.69-5.89c3.98,1.21,18.75-1.34,21.44,.75,2.69,2.09,17.34-2.69,18.84,2.09,1.5,4.78,6.28-7.77,14.95,7.18,8.67,14.95,11.96,.6,17.34,17.94,5.38,17.34,9.57-3.89,11.66,6.28,2.09,10.17,24.12,35.23,49.66,41.31,25.53,6.08,19.45,0,19.45,10.94s21.34,22.21,16.35,81.2c0,0-6.53,2.18-8.51,20.85-1.98,18.67,4.66,22.92,9.26,22.92s12.8,1.7,12.24-1.7c-.57-3.39-1.98-8.49-6.22-10.75-4.24-2.26-13.58-7.07-4.24-7.07s9.34-6.22,14.15,1.41c4.81,7.64,18.11-.85,17.82,9.05-.28,9.9-7.36,16.41-10.18,20.37-2.83,3.96-2.26,7.92,4.53,9.34,6.79,1.41,5.09,4.24,.85,7.36-4.24,3.11-12.45,8.49,3.68,25.46,16.13,16.97,14.71,29.71,23.2,30.84,8.49,1.13,7.36-6.51,3.68-9.05-3.68-2.55,6.51-5.94,10.18-7.64,3.68-1.7,6.22-2.83,9.62-2.26,3.39,.57,2.55,8.77-1.7,9.34-4.24,.57-1.13,16.13-1.13,22.63s.28,1.41,2.26,6.51,10.18,9.62,10.18,5.09,.28-11.03,4.53-11.03,4.81-10.47,5.94-3.68c1.13,6.79-4.53,1.41-4.24,8.2s.58,16.97,4.39,20.65c3.81,3.68,9.75,19.24,14,32.25,4.24,13.01,29.42,11.32,43,12.73,13.58,1.41,11.6,1.98,11.6,9.62s2.55,22.63,17.54,31.97c14.99,9.34,14.99,7.64,14.99,11.88s3.11,7.36,0,7.36-14.15-6.22-17.54-6.22-9.34,0-6.79,5.09c2.55,5.09,8.49,8.49,10.47,8.49s3.96,0,12.17-.85c8.2-.85,8.77-9.34,20.09-7.64,11.32,1.7,11.88-4.24,20.37-4.53,8.49-.28,12.45-11.6,10.75-19.52-1.7-7.92-1.49-22.63,.39-28.29,1.88-5.66,7.82-22.63,5.27-28.29-2.55-5.66,1.98-58.56-4.81-74.12-6.79-15.56-9.34-39.04-25.74-46.68-16.41-7.64-7.36-10.47-5.09-10.47s8.77,1.7,3.68-4.81c-5.09-6.51-4.53-16.13-15.28-26.88-10.75-10.75-20.65-39.32-31.69-49.23-11.03-9.9-24.61-38.19-24.61-46.4s-18.39-52.9-27.44-56.58c-9.05-3.68-53.47-103.83-53.75-104.68-.28-.85-11.03-21.5-11.88-27.73-.85-6.22-9.05-28.29-6.22-31.4,2.83-3.11-6.51-6.22-3.11-11.6,3.39-5.38,10.18-3.39,12.73-3.39s5.38-11.6,.57-13.01c-4.81-1.41-.85-9.62,3.11-10.18,3.96-.57,8.49-8.2,7.07-11.03-1.41-2.83,1.7-6.22-2.26-11.03-3.96-4.81-6.79-10.75-3.68-10.75h.04c-1.63-.24-5.98-1.55-5.98-7.64,0-8.77,1.13-11.32,5.09-12.17,3.96-.85,7.64-.85,10.75-.85s10.47,2.83,10.47-.85,2.83-11.88-5.66-13.58c-8.49-1.7-12.73-3.4-12.17-7.92s13.3-2.26,15.84-1.41c2.55,.85,7.07,1.13,6.79-2.26-.28-3.39,3.11-16.13-.28-19.52-3.39-3.39,3.96-7.07-3.11-10.47-7.07-3.39-7.07-3.11-7.07-6.51s4.24-3.96,6.22-3.96,6.22-4.24,6.22,1.41-1.13,4.81,1.13,8.49c2.26,3.68,4.53-1.98,5.66,3.96,1.13,5.94,.28,5.94,3.11,5.94s3.96,3.4,7.07,1.41c3.11-1.98,7.92,5.38,7.64-3.68-.28-9.05-3.11-11.88-9.34-14.43-6.22-2.55-10.75-5.94-6.22-7.07,4.53-1.13,14.15,5.09,14.43-.57,.28-5.66-2.83-6.51,.28-11.32,3.11-4.81,9.62-6.51,9.62-1.13s-2.55,10.47,3.11,9.05c5.66-1.41,31.97-10.47,28.29-21.5-3.68-11.03-8.77-7.07-8.49-14.71,.28-7.64-2.55-8.2,1.7-8.2s14.71-4.53,14.71,.28-1.7-3.39-1.7,8.77,12.45,1.13,12.45-10.18,12.16-11.6,17.82-13.3c5.66-1.7,8.49-12.73,7.92-18.39-.57-5.66,0-16.41,9.34-24.9,9.34-8.49,1.7-23.76,12.45-26.31,10.75-2.55,4.53-12.45,13.01-17.26q8.49-4.81,7.07-9.05c-1.41-4.24,12.45-8.2,17.54-6.79,5.09,1.41,3.68,2.26,7.07,.85,3.39-1.41,13.58-4.81,18.39-3.68,4.81,1.13,4.81-1.41,3.68-8.2-1.13-6.79-1.03-14.15,.62-18.39,1.64-4.24,1.08-6.22,5.61-6.22s.28-2.26,4.53-7.64c4.24-5.38,1.41-3.68,5.09-6.79,3.68-3.11-.57-6.22,5.94-7.64,6.51-1.41,6.22-12.73,13.01-15.56,6.79-2.83,5.66-3.96,10.47-7.92,4.81-3.96,9.34-9.05,9.34-13.3s-1.13-6.22,4.24-6.22,7.36,2.55,13.3,1.98c5.94-.57,12.73-5.09,17.54-5.09s14.71-6.22,16.13-12.17c1.41-5.94,13.86-11.88,3.4-14.15-10.47-2.26-14.43-1.41-18.67,2.83-4.24,4.24-11.6,11.6-19.24,7.36-7.64-4.24-22.63,1.13-22.63-5.09s-2.83-7.36,3.68-7.36,11.32,.28,16.69-.28c5.38-.57,14.43,5.38,14.43-6.22s12.45-9.62,3.39-14.15c-9.05-4.53-19.8-4.24-31.4-7.64-11.6-3.4-26.59-16.41-18.11-16.97,8.49-.57,29.71,5.38,33.1,5.66,3.4,.28,9.05,9.34,9.05-1.13s0-17.26,5.09-15.28c5.09,1.98,5.94,7.07,12.73,9.34,6.79,2.26,10.57-2.83,16.04-.57,5.47,2.26,7.18-1.24,11.81-8.04,4.64-6.8,0-17.93,4.64-17.93s9.27,6.18,11.13-2.78c1.85-8.97-.93-30.92-8.97-26.28-8.04,4.64-8.66,5.87-8.35,14.22,.31,8.35-4.33,13.29-6.8,12.06-2.47-1.24,2.16-6.18-4.33-12.98-6.49-6.8-16.08-13.6-17.93-6.18-1.86,7.42,9.27,16.39-1.86,16.08-11.13-.31-13.91-4.33-22.57-4.95-8.66-.62-23.19-11.75-19.48-15.46,3.71-3.71,4.33-20.71-2.16-24.73-6.49-4.02-10.51,8.35-11.75,1.85-1.24-6.49-.62-8.97,3.71-8.97s13.6-3.4,16.08,3.4c2.47,6.8,3.71-3.4,4.64,8.97,.93,12.37-4.95,17.31,1.55,18.24,6.49,.93,5.87,0,11.44,0s9.58-15.46,15.46-16.39c5.87-.93,2.47-6.49,4.95-12.68,2.47-6.18,12.06-7.11,15.15-2.47,3.09,4.64,10.82-9.89,4.64-11.75-6.18-1.86-27.82-12.68-15.77-16.08,12.06-3.4,9.27-18.86,6.18-19.48-3.09-.62-18.24-14.22-26.28-3.4-8.04,10.82-21.95,15.46-21.33,4.33,.62-11.13-.31-11.44-8.04-10.82-7.73,.62-4.64-6.99-9.89-9.52-5.26-2.53-19.48-2.53-22.57-4.7s-3.71-11.13,2.78-11.13,9.28-2.78,11.75,0c1.24,1.39,3.94,.93,6.38,1,2.43,.08,4.6,.7,4.75,4.25,.31,7.11,4.26-5.07,.41-9.43-3.85-4.36-10.78-1.28-9.49-5.13,1.28-3.85-4.11-4.62,3.08-4.36,7.18,.26,7.18-1.28,11.03,3.08,3.85,4.36,6.42,6.93,6.42,.51s9.24-12.32-.26-19.5-18.22-4.11-27.2-15.14c-8.98-11.03-24.89-15.4-19.25-18.22,5.65-2.82,25.92,7.19,30.28,11.8,4.36,4.62,5.13,10.26,12.32,6.16,7.19-4.11,1.28-16.17-12.06-21.3-13.34-5.13-9.49-7.7-24.38-12.06-14.88-4.36-30.02,4.36-40.03-8.72-10.01-13.09-14.88-5.65-10.78-18.73,4.11-13.09,.77-20.79,9.75-23.35,8.98-2.57,11.55,4.62,6.67,11.55-4.88,6.93-6.83,6.28-5.53,12.13,1.3,5.86,2.39,3.25,8.89,.43,6.51-2.82,6.29-10.41,8.03-3.25,1.74,7.16,1.3,9.11,6.07,9.11s-4.34-8.46,5.42-4.55c9.76,3.9,6.72,2.39,9.11,7.81,2.39,5.42,10.19,.43,13.66,1.52,3.47,1.08,4.55-2.82,8.02,2.17,3.47,4.99,7.37,12.58,8.24,5.21,.87-7.37-21.26-16.27-22.12-23.64-.87-7.37,7.59-1.08,9.54-4.12,1.95-3.04,.43-8.46-2.6-14.75-3.04-6.29-10.41-9.33-8.46-24.73,1.95-15.4,1.08-22.99-3.69-25.16-4.77-2.17-6.29,.22-9.98-7.59-3.69-7.81,2.17-8.68,6.07-8.89,3.9-.22,14.1,4.99,10.41-3.47s-2.39-11.28,1.08-11.28,8.02,7.59,7.59-4.55c-.43-12.15-3.69-16.05,2.39-15.18,6.07,.87,11.28-8.89,11.28,.43s.43,13.01,4.34,13.01,9.76-9.54,8.89-.65c-.87,8.89-7.59,10.19-13.01,10.19s-6.94,3.69-6.07,10.41c.87,6.72,4.55,4.12,6.29,15.4,1.74,11.28-4.34,9.33,1.52,12.15,5.86,2.82,5.86,17.57,8.24,21.26,2.39,3.69-2.17,3.9,3.69,7.37,5.86,3.47,1.3,14.97-3.04,14.97s-6.94,7.59-2.6,9.11c4.34,1.52,8.24,3.04,13.23,1.73,4.99-1.3,6.51-12.8,9.76-4.77,3.25,8.03,8.03,8.89,9.11,17.35,1.08,8.46,4.7,.25,5.68,9.44,.99,9.2-7.23,9.2,.99,9.2s6.9,5.58,9.2-2.96c2.3-8.54,7.23-4.27,7.23-4.27,0,0,1.31,1.31-2.63,9.2-3.94,7.88-1.97,9.53-4.6,12.81-2.63,3.29,.99,3.61-2.3,9.86-3.29,6.24-.99,2.63-3.29,11.83-2.3,9.2-2.63,4.27-1.97,11.83,.66,7.56-.33-3.29-2.63,11.17-2.3,14.45-2.3,7.23,.33,9.2,2.63,1.97,2.3,9.53,4.93,.66,2.63-8.87,7.56-8.21,10.18-17.74,2.63-9.53-.99-4.93,3.29-16.43,4.27-11.5,1.64-12.15,4.93-19.38,3.29-7.23,1.97,.33,3.94-11.17,1.97-11.5,3.29-11.83,6.57-12.15,3.28-.33-4.93-20.04,0-23.98,4.93-3.94,4.93,1.31,7.23-6.9,2.3-8.21-5.58-5.26-.33-12.16,5.26-6.9,3.94-11.17,0-16.43-3.94-5.26,2.63-15.11-7.56-18.07-10.18-2.96-8.87-7.23-13.8-11.17-4.93-3.94-9.2-4.93-10.18-11.5-.99-6.57-6.57-2.3-9.2-8.21-2.63-5.91-3.94-9.2-8.21-16.43-4.27-7.23-15.11-14.78-14.78-18.07,.33-3.29-.99-10.84,.99-14.13,1.97-3.29,3.94,1.97,5.91-3.61,1.97-5.58,6.9-12.81,6.9-5.58s-2.3,8.87-.66,16.1c1.64,7.23,2.3,13.47,6.57,13.47s3.28,4.27,8.54,4.27,5.58,.99,9.53,4.93c3.94,3.94-1.64,6.24,4.6,6.24s11.17-7.56,16.1,0c4.93,7.56,10.18-.66,10.84,7.56,.66,8.21,7.88,12.48,8.21,6.57,.33-5.91-4.27-15.44,1.97-17.74,6.24-2.3,3.29-20.37,8.54-22.34,5.26-1.97-1.31-15.44,5.58-18.73,6.9-3.28,13.47-22.01,11.17-28.58-2.3-6.57-2.89-45.31-2.89-48.35s-16.94-5.86-19.98-13.03c-3.04-7.17,.87-8.04,1.09-14.34,.22-6.3,0-7.17,3.48-9.56,3.48-2.39,5.86,2.39,5.86-4.56s-.22-8.04,3.69-9.34c3.91-1.3,3.26-4.34,5.86-5.21,2.61-.87,3.26-8.25,5.65-12.38,2.39-4.13,59.87-45.14,70.05-48.32,10.18-3.18,75.08-21,83.35-38.81,8.27-17.81,19.72-31.18,27.36-32.45,7.64-1.27,9.54-16.54,16.54-10.18,7,6.36,1.27,20.36,7.64,20.36s8.91-15.27,20.36-17.18c11.45-1.91,12.72-8.27,24.81-13.36,12.09-5.09,18.45-14.63,10.18-14.63s-26.72,3.82-37.54,6.36c-10.82,2.55-10.18,7-17.18,5.73-7-1.27-7-7-14-15.91-7-8.91-1.27-21.63-12.09-19.72-10.82,1.91-21,5.09-16.54-10.82,4.45-15.91,21.63-10.18,21-23.54-.64-13.36-18.45-4.45-23.54-14-5.09-9.54,3.18-27.99-7-27.99s-14.63-12.72-10.18-12.72,5.09-1.91,10.82,2.55c5.73,4.45,14,4.45,12.72-12.72-1.27-17.18,8.91-34.99,12.09-38.81,3.18-3.82,.64,5.73,3.82-14,3.18-19.72,12.72-7,12.09-21.63-.64-14.63-3.18-19.72-.64-19.72s9.54-7,10.18,0c.64,7,8.27-7.64,8.27,3.82s2.55,14.63,7,11.45c4.45-3.18-3.82-18.45,2.54-18.45s5.09,3.82,13.36,3.18c8.27-.64,4.45-17.82,4.45-17.82,0,0,7-27.36,8.27-36.9,1.27-9.54-2.54-10.18-3.82-17.81-1.27-7.63,6.36-5.73,10.18,3.18,3.82,8.91-2.54,22.9,3.82,22.9s13.36,20.36,13.36-2.55,5.73-14,10.82-14,1.27-12.72,10.82-6.36c9.54,6.36,19.09,16.54,19.09,3.82s-.64-13.36,7-17.81c7.64-4.45,19.72-10.82,18.45-13.36-1.27-2.54,1.27-12.09,9.54-14.63,8.27-2.55,29.27-5.73,11.45-17.18Z"/><g><path class="e" d="M2952.07,512.13c2.48,1.08,7.88,1.95,18,3.52,19.47,3.01,52.06,8.04,62.67,18.04l1.06,1,1.46-.11c17.46-1.3,34.18-.53,36.94,1.67,1.95,5.66,7.86,4.29,10.73,3.62,.98-.23,2.56-.59,3.23-.52,.05,.13,.11,.36,.16,.74,.72,5.77,6.43,8.85,11.95,11.82,5.96,3.21,9.88,5.58,10,9.12,.14,4.22-.16,9.49-.43,14.14-.65,11.31-.73,14.96,1.96,16.68,.97,.62,2.06,.82,3.21,1.04,2.99,.56,5.35,1.01,5.06,7.08-.41,8.68,7.78,16.06,14.06,20.41,.45-1.52,.7-3.96,.74-7.8-4.37-3.55-8.37-8.05-8.17-12.3,.56-11.83-7.15-13.28-10.45-13.91-.04,0-.07-.01-.11-.02-.18-2.24,.11-7.1,.32-10.81,.28-4.79,.59-10.23,.44-14.75-.26-7.6-7.28-11.39-13.47-14.73-4.04-2.18-8.22-4.43-8.52-6.81-.31-2.44-1.28-4.25-2.89-5.37-2.66-1.85-5.94-1.09-8.58-.48-.9,.21-2.29,.55-3.02,.52-1.04-3.3-4.73-6.37-23.99-6.58-7.75-.08-15.23,.33-18.26,.52-12.89-10.71-44.18-15.54-65.09-18.77-7.48-1.16-14.55-2.25-16.36-3.04-3.75-1.64-10.59-12.44-15.51-21.69-1.58,1.86-3.07,3.74-4.5,5.62,4.45,8.12,11.57,19.6,17.36,22.14Z"/><path class="e" d="M4060,1027.49c.25,1.23,.49,2.42,.72,3.55,.21-2.38-.09-3.37-.72-3.55Z"/><path class="e" d="M4164.07,842.24c-12.3-2.34-52.09-16.42-59.91-19.21-1.46-2.07-4.38-2.67-6.88-2.95-8.97-1-17.3-5.88-19.66-7.36-1.73-3.33-8.65-16.6-13.09-24.93-5.93-11.12-24.99-12.6-25.8-12.66l-.45-.03-308.88,61.65-3.18-28.17c-2.21,1.07-4.29,2.28-6.26,3.58l3.67,32.5,315.06-62.88c4.81,.43,16.59,2.76,19.99,9.13,5.07,9.5,13.38,25.49,13.46,25.65l.38,.73,.68,.47c.45,.31,11.1,7.55,23.34,8.91,.35,.04,.65,.08,.91,.12-.34,.43-.71,.88-1.04,1.27-2.09,2.52-4.7,5.66-5.35,9.54-.47,2.84-.47,5.45-.47,7.55,0,4.65-.28,4.96-1.26,5.32-6.61,2.44-11.01,7.52-11.77,13.58-.5,4.03,1.04,6.69,2.39,9.03,.88,1.52,1.71,2.95,2.15,4.94,.41,1.84,.13,2.43-.7,4.17-.94,1.96-2.22,4.63-2.58,9.64-.17,2.4-.65,4.16-1.07,5.71-1.47,5.41-.95,8.46,6.01,12.21,2.21,1.19,3.68,1.86,4.74,2.34q1.67,.76,3.59,3.93c.38,.62,.82,1.34,1.33,2.18,3.76,6.11,7.19,7.62,9.95,8.84,1.38,.61,2.37,1.04,3.37,2.04,1.21,1.21,2.63,2.37,4.12,3.6,3.09,2.54,6.6,5.41,7.16,8.03,.09,1.32-1.79,4.9-11.26,14.39-1.19,1.19-1.97,1.98-2.43,2.53-1.91,2.3-6.5,8.03-10.67,13.34-4.27,5.44-6.81,8.29-13.46,8.59-11.12,.51-18.95,4.44-21.49,10.79-1.98,4.95-4.93,7.21-10.17,7.79-6.81,.76-247.44,52.39-264.31,56.01-7.28-1.11-19.12-2.08-22.62,2.54-4.67,2.93-41.36,7.16-46.77,7.16h-.58c-2.09,.02-4.93,.04-6.58-1.59-1.17-1.16-1.76-3.19-1.76-6.04,0-7.59-1.14-15.25-1.98-20.85-.43-2.92-.81-5.44-.81-6.61,0-3.88-6.49-41.34-7.97-49.89v-.05l-25.39-125.75c-1.86,1.45-3.81,2.98-5.83,4.59l24.54,121.54-7.87,95.06c-9.58,15.48-21.43,32.78-25.35,36.05-.1-.04-.2-.08-.3-.12-3.97-1.56-13.27-5.21-19.28,7.56-2.49,5.29-5.13,6.88-7.68,8.41-2.43,1.46-5.18,3.11-6.45,7.33-1.1,3.66-.06,7.98,.95,12.16,.75,3.1,1.87,7.78,.61,8.48-1.91,1.06-4.89,1.16-7.76,1.26-4.69,.16-10.01,.34-12.79,4.86-2.17,3.53-2.76,8.63-3.64,16.36-.67,5.87-1.51,13.19-3.34,21.97-1.2,5.78-3.83,15.4-7.96,15.4-.05,0-.09,0-.14,0-.2-.01-.38-.02-.53-.02-1.07,0-3.23,.61-6.39,1.79v-.71l-4.59,2.51c-.43-.02-2.42-.39-5.6-4.69-3.76-5.09-8.88-5.18-12.36-5.18-.08,0-.16,0-.24,0-3.79,0-3.85-.24-4.22-1.8-1.59-6.61-3.99-10.75-7.35-12.65-1.59-.9-4.23-1.74-7.77-.64-2.77,.87-5.79,3.26-8.99,5.8-3.2,2.54-8.05,6.39-10.27,6.02-3.7-.62-7.51-.66-11.92-.7-3.28-.03-6.99-.07-11.22-.36-5.95-.41-7.99,.52-10.04,1.79-.88,.54-1.51,.93-4.16,.93-3.85,0-4.72-.96-6.83-3.29-1.1-1.21-2.47-2.73-4.47-4.23-4.96-3.72-9.61-1.26-13,.54-1.81,.96-3.51,1.86-5,1.86-3.41,0-11.25-10.33-12.14-13.57-.09-.33-.22-1.02-.35-1.74-.82-4.49-2.35-12.84-8.58-15.89-3.59-1.76-7.91-1.34-12.84,1.22-9.97,5.19-17.45,2.64-20.46,1.12,.02-2.94-.51-5.87-.79-7.22l-28.62-244.55,90.25-8.63c-.21-.5-.37-1.05-.44-1.67-.3-2.37-.13-3.79,.38-4.98l-234.44,22.42c-2.29,2.5-4.79,4.96-7.48,7.37l145.14-13.88,28.66,244.85,.05,.31c.72,3.36,.9,7.44,.37,8.4-.16,.27-.47,.7-.81,1.14-2.25,3.02-7.51,10.08,2.08,19.71l.21,.2c.5,.43,1.95,1.98,1.99,3.4,0,.26,.03,1.04-1.17,2.17-2.13,2.01-4.48,3.5-6.74,4.95-3.33,2.12-6.48,4.12-8.13,7.4-1.27,2.54-6.12,4.9-7.87,4.9h-.02c-.26-.25-.67-.75-.95-1.1-1.53-1.91-4.39-5.45-10.14-4.5-3.53,.59-6.75,2.67-8.85,5.71-2.08,3.02-2.88,6.73-2.19,10.18,.29,1.46,.72,2.72,1.1,3.84,1.09,3.21,1.54,4.55-1.76,8.12-1.96,2.12-3.99,3.46-5.96,4.74-3.7,2.43-7.53,4.94-8.91,11.65-.88,4.3-2.96,14.35-6.83,14.69-.86,.08-1.56,.07-2.17,.07-1.35,0-3.05-.02-4.4,1.34-1.55,1.56-1.54,3.34-1.49,8.1,0,1.02,.02,2.2,.02,3.59,0,5.08-.92,6.89-1.69,7.52-1.56,1.26-5.82,.55-9.36-.21-4.94-1.06-5.73-2.24-6.74-3.74-.94-1.41-2.24-3.34-5.56-4.64-1.48-.58-2.81-1.41-3.97-2.14-2.16-1.35-4.39-2.74-6.95-1.79-2.32,.87-3.25,3.15-3.75,4.79-1.54,5.05-5.27,13.49-9.29,20.99-1.89,3.53-3.78,4.86-4.58,4.9-.41,0-.84-.6-1.01-.87-2.5-3.86-6.48-8.92-12.54-8.54-6.49,.43-11.91,5.42-18.72,17.22-1.36,2.35-2.32,3.7-2.96,4.48-.19-.41-.38-.86-.54-1.22-.44-1.03-.94-2.19-1.56-3.26-3.56-6.15-12.65-11.01-19.47-10.43-6.28,.55-8.33,1.28-11.86,5.77-1,1.27-1.78,2.84-2.54,4.36-1.91,3.84-2.53,4.39-3.2,4.13-1.52-.58-2.38-1.05-3.15-1.47-2.35-1.29-3.82-1.83-8.98-2.01-8.17-.28-13.72,5.9-15,10.93-.43,.08-1.04,.11-1.74,.1,.22-.91,.35-1.8,.35-2.66,0-4.62,2.41-26.41,3.65-36.5,.55-4.54,6.56-13.61,15.68-23.66,3.07-3.38,8.43-21.21,9.52-25.46l.1-.38c1.78-6.93,2.77-10.75-.21-18.55-1.1-2.89-1.68-8.68-2.23-14.29-.69-6.99-1.4-14.21-3.26-19.3-2.38-6.54,.16-33.15,1-41.9,.3-3.17,.43-4.48,.43-5.09,0-1.13-.51-3.46-2.08-10.39-2.01-8.89-5.06-22.33-5.06-27.54,0-6.92-.47-108.57-.64-146.4-2.4,.79-4.6,1.31-6.62,1.6,.18,38.98,.64,137.98,.64,144.8,0,5.95,3.02,19.27,5.22,29,.85,3.76,1.81,8,1.91,8.97-.02,.52-.2,2.41-.39,4.41-1.74,18.22-3.17,37.79-.63,44.79,1.57,4.31,2.24,11.11,2.89,17.69,.62,6.32,1.21,12.29,2.64,16,2.23,5.82,1.71,7.84-.01,14.53l-.1,.39c-2.1,8.17-6.61,20.89-8.01,22.66-6.05,6.67-16.35,19.08-17.35,27.31-.99,8.09-3.69,31.95-3.69,37.31,0,1.43-1.13,3.99-2.23,6.46-1.97,4.45-4.21,9.49-2.96,14.17,.51,1.92,1.14,3.46,1.64,4.69,1.14,2.81,1.45,3.57-.09,6.27-.5,.88-.82,1.14-.81,1.15-.11,.02-.38,.01-.6,0-2.39-.02-4.91,.44-7.29,4.22-.96,1.53-2.19,1.8-5.21,2.13-2.6,.28-5.83,.64-8.4,3.21-4.23,4.23-3.4,7.97-2.52,11.92,.26,1.15,.55,2.46,.77,3.97,.75,4.96,2.6,7.66,3.95,9.62,.6,.87,1.07,1.56,1.22,2.11,.02,.21-.2,.95-.98,1.79-1.17,1.27-2.88,2.04-4.58,2.04-2.37,0-2.64-.19-3.13-.53-.66-.46-1.67-1.15-3.62-1.77-1.29-.41-2.67-.61-4.01-.81-3.55-.53-5.29-.97-5.9-2.65-2.7-7.49-14.02-7-20.53-6.03-5.66,.84-12.54,12.12-16.83,20.29-3.07-.89-5.73-1.33-6-1.37-6.03-.97-11.43-8.05-13.02-12.8-.47-1.42,.68-3.6,2.02-6.12,1.77-3.34,3.97-7.5,3.97-12.75,0-7.74-5.79-11.78-10.2-13.35l-2.85-17.12-2.67-.13c-8.9-.42-9.65-3.49-10.59-7.38-.71-2.94-1.94-7.88-8.38-7.65-8.16,.27-43.73-22.06-44.72-32.27-.7-7.15,2.59-14.66,5.48-21.28,1.82-4.16,3.54-8.09,4.28-11.78,.65-3.25,1.79-7.3,2.89-11.22,2.75-9.78,3.63-13.28,2.15-15.55-.59-.91-1.55-1.52-2.61-1.68l-.49-.07c-.26-.04-.57-.08-.81-.12-.77-2.5-3.29-3.93-5.31-5.08-.41-.23-.99-.56-1.29-.77-1.11-1.63-3.41-2.22-9.29-2.54-3.54-.19-7.87-.2-11.04-.04-4.55,.24-6.03,3.06-6.82,4.57-.64,1.22-.81,1.55-3.13,1.55-4.73,0-5.27-.79-5.27-7.72,0-4.78-.4-20.78-5.57-25.95-1-1-4.02-3.65-9.7-8.64-10.21-8.96-33.97-29.81-36.37-33.84-.55-2.33-1.74-4.85-3.52-8.6-1.99-4.21-4.71-9.98-8.22-18.91-4.52-11.51-4.22-24.4-3.68-30.85,.55,.06,1.1,.09,1.62,.09,.99,0,1.9-.1,2.57-.24,4.2-.86,4.53-3.7,4.53-4.55v-.45c-.08-14.01,1.85-17.69,2.45-18.48,.64-.86,2.54-1.38,4.36-1.87,3.99-1.09,10.01-2.73,10.97-10.45,.95-7.61,4.88-16.86,6.39-18.79,1.54-.86,3.41-2.92,5.58-6.13,1.77-2.63,3.89-6.34,3.89-9.14s0-11.74-11.44-15.06c-5.64-1.64-6.29-5.67-6.37-6.57,1.74-12.76,16.82-16.13,24.94-17.95,2.12-.47,3.52-.79,4.51-1.24,2.56-1.18,5.19-2.87,8.82-5.22,1.96-1.26,4.17-2.69,6.79-4.3,6.25-3.85,7.16-6.97,7.9-11.66,.21-1.34,.43-2.72,.9-4.4,.56-2.01,2.46-3.66,4.85-5.75,3.91-3.41,8.77-7.65,10.47-15.96,2.92-14.27-10.51-25.14-11.08-25.59l-.2-.15c-16.23-11.05-23.16-21.38-27.49-29.77,27.3-1.17,152.15-6.54,197.78-9.09-.4-2.09-.67-4.28-.75-6.6-47.67,2.66-181.35,8.39-200.17,9.19-3.65-7.77-7.12-14.32-18.37-14.63-14.95-.41-15.2-3.7-15.7-10.26-.09-1.13-.17-2.3-.33-3.53-.66-5.1-3.23-8.28-5.51-11.08-2.22-2.73-3.97-4.89-4.08-8.67-.13-4.23,1.64-7.16,3.52-10.27,1.73-2.86,3.52-5.82,3.83-9.72,.64-7.95-7.34-12.42-10.34-14.11-.11-.06-.22-.12-.32-.18-.33-1.24-.73-4.12-.93-6.82h.69c0-.1-.14-9.43,0-17.19,.13-7.37-3.1-12.67-4.48-14.94-.15-.25-.28-.45-.36-.6-.03-.08-.07-.2-.11-.34-4.3-12.83-9.06-19.07-14.53-19.07-3.42,0-15.53-1.47-27.95-20.38-10.27-15.62-29.99-24.22-40.59-28.83-2.27-.99-4.24-1.85-5.39-2.46-1.08-.58-2.38-1.18-3.76-1.81-10.02-4.6-18.1-9.28-15.42-19.98,2.52-10.09,1.79-20.92,1.15-30.47-.45-6.67-.87-12.97-.06-17.67,2.03-11.66-.93-20.94-7.9-24.81-2.14-1.19-4.24-3.45-2-15.23,1.36-7.16,20.53-26.62,32.29-37.21l1.1-.99v-1.48c0-25.65,3.95-42.61,7.3-51.27-3.1,.56-5.57,.72-7.12,.33-3.03,8.85-6.66,24.58-6.8,49.46-6.22,5.68-31.2,29.05-33.27,39.9-1.73,9.07-2.28,18.05,5.29,22.26,4.4,2.44,6.12,9.13,4.59,17.88-.95,5.48-.5,12.17-.03,19.25,.61,9.07,1.3,19.34-.97,28.42-4.23,16.91,10.94,23.87,19.09,27.61,1.34,.61,2.49,1.14,3.39,1.62,1.39,.75,3.37,1.61,5.88,2.71,9.97,4.34,28.51,12.42,37.7,26.4,3.6,5.48,16.66,23.36,33.49,23.36,.03,0,3.58,.63,8.25,14.55,.11,.31,.18,.54,.22,.64,.19,.51,.48,.98,.88,1.64,1.17,1.92,3.61,5.92,3.51,11.36-.09,5.13-.07,10.92-.04,14.36-39.87,4.63-332.6,8.31-367.37,8.73v-177.69l-1.81-.92c-13.26-6.74-20.37-14.13-20.56-21.38-.28-11.16,14.99-20.06,15.14-20.14l1.67-.95v-12.36h.02l-.02-3.28c-.27-36.74-2.01-38.67-2.94-39.71-1.55-1.73-6.68-10.18-6.71-16.31-.02-4.6-2.2-10.98-4.31-17.15-1.3-3.82-2.78-8.15-2.78-9.68,0-.86,.16-1.07,1.73-2.31,1.47-1.16,3.48-2.76,4.73-5.77,2.1-5.03-1.47-9.98-4.65-12.77-.12-7.48-.58-39.91,.02-50.06,.59-10.06-3.87-18.8-6.82-24.59-.79-1.54-1.47-2.88-1.92-3.96-2.07-4.97-11.42-29.94-12.93-33.98-.02-3.34-.11-20.33,0-35.85,.08-11.66,2.86-14.26,3.39-14.65l2.55-.2,.13-2.94c.02-.49,.42-12.11-7.35-22.13-2.69-3.47-4.41-9.75-5.48-15.91-2.21,0-4.45,.02-6.72,.02,1.16,7.13,3.24,15.15,6.96,19.95,4.56,5.88,5.64,12.62,5.89,15.86-2.71,1.98-5.91,7.05-6,19.95-.12,17.26,0,36.34,0,36.53v.59l.21,.55c.45,1.19,10.94,29.26,13.23,34.76,.55,1.32,1.28,2.75,2.13,4.42,2.78,5.46,6.6,12.93,6.11,21.19-.69,11.69-.03,50.47,0,52.11l.03,1.65,1.34,.97c1.62,1.17,4.48,4.21,3.76,5.93-.6,1.43-1.54,2.18-2.73,3.12-1.79,1.42-4.24,3.36-4.24,7.51,0,2.51,1.19,6.13,3.14,11.82,1.75,5.14,3.93,11.53,3.95,15.04,.04,8.19,5.84,17.53,8.05,20.29,.8,3.02,1.4,18.1,1.57,32.47-129.55,1.92-473.75-21.75-508.31-24.15l24.29-301.21c-2.2-.2-4.39-.39-6.6-.59l-31.79,394.16c-67.79-3.26-475.58-59.44-479.76-60.01l-3.84-.53,.08,3.88c.09,4.6-2.42,11.59-3.4,13.89l-.21,.5-.04,.54c-1.27,16.78-3.25,22.78-4.31,24.86h-.93c-1.35-.94-4.96-5.31-5.19-12.74-.13-4.19-2.2-7.33-5.83-8.84-4.79-2-11.17-.56-13.91,1.99-1.46,1.36-2.03,3.16-1.53,4.85-.09,1.69-4.11,6.69-7.16,7.86-1.4,.54-5.57-.97-8.06-1.87-2.73-.99-5.1-1.85-7.15-1.9-1.18-.03-4.98-.87-8.66-1.67-7.12-1.56-15.98-3.5-21.71-3.5-6.19,0-9.03,2.02-10.91,3.35-1.15,.82-1.31,.88-1.73,.86-3.95-.21-6.3-.64-8.17-2.36-3.87-3.57-11.36-1.81-13.57-1.19l-.56,.16-.47,.34c-2.6,1.86-6.22,3.84-8.64,2.71-1.97-.92-5.46-4.9-6.76-21.28-1.41-17.78-11.89-21.05-18.15-23-1.46-.45-2.83-.88-3.75-1.38-2.04-1.09,.92-6.89,2.51-10,.48-.94,.92-1.81,1.27-2.56,2.2-4.81-1.18-9.07-3.9-12.5-1.22-1.54-2.49-3.14-3.01-4.45-1.71-4.27-6.29-15-7.5-17.82,.76-26.92,0-28.87-.24-29.51-.9-2.33-3.02-3.09-4.28-3.54-.06-.02-.12-.04-.19-.07,.02-.2,.04-.41,.06-.62,.24-2.36,.79-7.87-5.42-9.38-4.95-1.2-8.14,2.2-9.57,4.96-11.91,6.02-20.47,7.92-24.78,5.49-3.17-1.79-4.83-6.33-5.39-14.72-.62-9.29,5.83-10.98,13.07-12,1.2-.17,2.15-.3,2.94-.54,1.33-.4,2.4-1.32,3.01-2.6,1.73-3.62-.47-9.69-3.53-17.25l-.48-1.18c-1.95-4.87,1.76-16.51,12.39-38.92,5.21-10.98,6.27-17.56,3.46-21.35-2.79-3.75-7.89-2.98-10.94-2.52-.51,.08-1.16,.18-1.59,.21-3.64-2.85-18.69-20.36-26.15-40.58-5.8-15.71-16.23-29.31-22.46-37.43-1.84-2.4-3.91-5.09-4.4-6.06-.32-3.59-.99-22.16-.99-27.6,0-2.12-.28-20.91-10.03-26.27-1.27-.7-4.08-3.95-2.88-19.1,.03-.43,.06-.79,.08-1.07,.19-.44,.67-1.33,1.07-2.06,2.45-4.56,7.01-13.05,5.85-21.72-.97-7.28,1.34-15.13,3.2-21.45,.6-2.05,1.17-3.98,1.59-5.75,.93-3.9,5.09-22.19,8.73-38.27-2.16-.47-4.31-.95-6.47-1.43-3.64,16.05-7.78,34.28-8.71,38.16-.38,1.61-.93,3.46-1.5,5.42-2.03,6.91-4.56,15.52-3.41,24.19,.87,6.55-3.03,13.81-5.12,17.71-1.22,2.27-1.84,3.42-1.84,4.69,0,.19-.04,.56-.08,1.05-.72,9.04-.84,21.5,6.3,25.43,4.55,2.5,6.6,13.47,6.6,20.46,0,5.55,.7,25.34,1.06,28.61,.2,1.84,1.53,3.65,5.7,9.08,6,7.83,16.05,20.93,21.5,35.7,8.5,23.01,25.76,42.46,29.69,44.42,1.53,.76,3.26,.5,5.27,.2,3.48-.53,4.44-.34,4.62-.08,.02,.02,1.63,2.42-4.13,14.56-13.72,28.93-14.99,38.12-12.55,44.22l.49,1.21c.9,2.23,3.44,8.5,3.67,11.22-.28,.04-.59,.09-.87,.13-5.42,.77-19.83,2.8-18.75,19,.52,7.77,1.96,16.23,8.75,20.06,6.75,3.81,16.96,1.93,32.11-5.9l1.15-.62,.45-1.2c.04-.1,.92-2.4,2.34-2.06,.25,.06,.38,.12,.45,.16,.11,.4,0,1.47-.06,2.12-.08,.78-.16,1.59-.12,2.42,.19,3.58,3.28,4.69,4.6,5.17,.1,.04,.21,.08,.33,.12,.26,3.51,.11,16.03-.21,27.24l-.02,.73,.29,.67c.06,.14,5.82,13.59,7.72,18.34,.89,2.21,2.46,4.19,3.98,6.11,1.59,2.01,3.58,4.51,3.07,5.62-.31,.68-.71,1.46-1.14,2.31-2.63,5.14-7.52,14.71,.27,18.86,1.47,.79,3.14,1.31,4.9,1.85,6.13,1.91,12.46,3.89,13.52,17.19,1.23,15.47,4.58,23.98,10.57,26.76,4.14,1.93,9.11,.93,14.78-2.97,2.76-.68,6.05-.79,6.75-.18,3.66,3.38,8.09,3.88,12.31,4.11,2.8,.15,4.53-1.08,5.92-2.07,1.54-1.1,3-2.13,7.08-2.13,5.02,0,13.85,1.93,20.29,3.35,5.17,1.13,8.18,1.78,9.9,1.82,.98,.03,3.16,.81,5.07,1.51,4.21,1.53,8.98,3.26,12.69,1.83,4.48-1.72,11.58-8.84,11.39-14.4,1.33-.63,4.24-1.2,6.25-.38,.85,.35,1.72,.97,1.78,2.95,.31,9.72,5.42,17.09,9.57,18.79,.04,.03,.07,.05,.11,.08-13.75,107.18-35.74,219.64-39.76,239.85l-207.97-39.68-208.69-49.39,39.45-169.27c2.26-2.86,11.24-14.8,13.1-25.85,1.45-8.63-5.55-12.56-10.65-15.43-4-2.25-6.43-3.76-6.43-5.79,0-8.56,3.44-17.32,4.51-18.52,.68-.68,70.94-80.08,74.86-95.76,1.89-7.58-1.36-16.73-9.66-27.22-3.12-3.94-6.61-7.63-10.04-10.94-.42-6.36-2.12-35.48,.07-54.14,2.05-17.45,47.22-185.72,62.83-243.6-2.15-.5-4.31-1-6.46-1.5-15.79,58.48-60.82,226.23-62.95,244.32-1.81,15.41-1.09,37.01-.5,48.6-2.91-2.47-5.53-4.51-7.52-6-17.69-13.27-110.12-34.49-231.46-29.61-2.34-.4-4.9-1.14-5.83-1.67-1.22-2.53-4.4-2.51-19.27-2.4-7.94,.06-21.04,.15-24.2-.93-3.03-4.63-13.46-13.39-30.12-14.84-5.97-.52-14.12-.51-22-.51-10.01,.01-25.14,.01-27.73-1.69-1.74-1.71-3.92-2.44-6.03-3.16-4.34-1.46-9.73-3.28-14.55-15.32-2.16-5.39-3.04-12.03-3.97-19.06-1.92-14.49-4.07-30.67-18.62-38.94,3.21,5.29,4.65,8.4-1.58,6.86,10.18,7,11.87,19.67,13.63,32.95,.94,7.12,1.92,14.49,4.38,20.65,5.95,14.88,13.55,17.44,18.58,19.14,1.61,.54,2.87,.97,3.53,1.62,3.25,3.25,12.38,3.6,32.36,3.58,7.74,0,15.75,0,21.43,.48,14.97,1.3,23.76,9.3,25.27,12.07,1.87,3.44,8,3.88,29.66,3.72,5.32-.04,11.81-.09,14.2,.19,1.2,1.27,3.88,2.85,10.13,3.84l.33,.05h.33c118.25-4.81,210.99,15.84,227.55,28.26,17.89,13.41,34.65,32.09,31.78,43.57-3.23,12.93-68.14,87.57-73.12,92.68-2.92,2.92-6.45,13.93-6.45,23.21,0,6.05,5.21,8.98,9.81,11.56,5.59,3.14,7.98,4.9,7.36,8.56-1.79,10.63-12.07,23.23-12.17,23.36l-.49,.6-39.79,170.74-208.64-49.38-294.22-89.29c.34,.79,.3,1.81-.41,3.38-.44,.98-1.1,1.91-1.85,2.86l291.6,88.49-74.95,284.82,315.02,472.5c-.37,3.7-.88,14.34,4.05,23.49,5.1,9.46,7.05,32.58,7.06,32.81l.15,1.8,1.59,.85c5.12,2.74,14.95,10.09,12.64,15.35-1.74,3.96-8.98,6.63-15.36,8.99-7.16,2.65-13.34,4.93-14.94,9.72-.55,1.64-1.09,4.37-1.84,8.15-2.41,12.13-7.41,37.38-18.27,42-11.02,4.68-16.38,20.14-15.84,32.32,.44,9.77,4.31,16.54,10.63,18.58,2.66,.86,2.93,2.45,2.87,3.73-.28,5.97-9.2,16.16-24.88,21.53,3.92,2.82,1.69,4.31-.48,7.1,19.32-5.78,31.52-18.69,31.98-28.32,.23-4.9-2.55-8.77-7.45-10.35-3.43-1.11-5.75-5.93-6.05-12.57-.45-10.08,3.85-22.54,11.81-25.92,14.08-5.98,19.15-31.54,22.18-46.81,.65-3.27,1.21-6.09,1.62-7.34,.59-1.77,6.83-4.08,10.95-5.6,7.62-2.82,16.25-6.01,19.13-12.54,4.7-10.68-8.97-19.98-14.01-22.97-.58-5.85-2.75-24.52-7.67-33.65-4.14-7.69-3.55-17.14-3.27-19.88,1.32-1.79,4.54-6.47,6.85-12.65l.05-.14c.22-.69,5.47-17.25,3.98-55.19-1.31-33.32,3.78-36.84,5.45-38,.18-.12,.34-.24,.49-.35,1.81-.42,8.51,1.16,11.44,2.54l.85,.41c4.2,2.01,8.56,3.95,12.22,4.05,.12,.35,.26,.76,.37,1.1,.93,2.92,2.66,8.35,9.3,8.93,7.16,.62,9-3.5,9.99-5.72,.19-.42,.47-1.05,.57-1.16,1.41-.63,13.71-6.62,12.84-21.85-.31-5.46,1.23-9.14,2.85-13.03,1.49-3.56,3.03-7.24,2.76-11.89-.2-3.39,1.19-6.32,2.66-9.42,1.69-3.55,3.43-7.23,2.55-11.51-.74-3.6-.41-6.39-.09-9.08,.17-1.44,.34-2.92,.33-4.44l380.31,65.03-77.54,546,3.98,.66,2.57,.36,77.52-545.91h0l.03-.18,462.85,53.4-40.63,475.43-299.53-22.27-.78,19.4,6.36,.59s.09,0,.25,.02l.52-12.9,299.23,22.25,37.24-435.84c30.66,3.24,203.7,14.32,230.18,16v26.69l-6.04,109.03v.11c.11,9.81,.25,36.33-.35,41.1-.81,6.48,4.59,9.05,8.16,10.74,1.52,.72,2.96,1.41,3.98,2.24,.98,.81,2.3,2.21,3.82,3.83,4.35,4.65,10.3,11.01,17.61,13.04,7.22,2,12.4-.99,16.57-3.4,1.82-1.05,3.54-2.04,5.13-2.44,2.59-.64,6.65,4.93,7.99,6.76,.3,.42,.56,.76,.79,1.06-.04,.93-.21,2.51-.34,3.75-.67,6.37-.82,9.36,.6,11.26,1.7,2.26,4.82,2.42,9.54,2.66,2.99,.15,6.38,.32,9.66,1.04,2.86,.63,4.45,1.37,5.99,2.09,2.43,1.14,4.73,2.21,9.79,1.94,8.44-.43,17.8,1.48,18.89,3.28,1.21,2.59,3.39,4.55,6.15,5.51,2.87,1,6.13,.83,8.71-.46,.36-.18,.81-.42,1.32-.7,3.75-2.03,11.55-6.26,19.2-3.02,6.81,2.89,7.21,4.16,8.29,7.56,.32,.99,.67,2.12,1.2,3.43,1.78,4.45,5.65,10.35,10.69,12.3,2.43,.94,4.89,.87,7.11-.2,1.66-.81,3.13-2.19,4.69-3.65,2.3-2.16,4.66-4.41,7.11-4.25,1.96,.12,4.23,1.71,6.77,4.73,8.1,9.66,17.67,6.06,22.8,4.12,.74-.28,1.64-.62,2.34-.83,.56,2.97,2.26,5.18,4.84,6.27,5.45,2.3,13.07-1.16,14.53-2.25,.75-.57,1.27-1.36,2.5-3.29,2.83-4.42,4.9-7.07,6.16-7.92,.52,.8,.96,1.55,1.38,2.28,3.19,5.57,5.83,7.93,17.7,7.11,7.54-.52,7.73-.33,9.47,1.44,1.2,1.22,3.02,3.07,6.52,5.42,10.31,6.93,17.61,6.93,23.48,6.9h.76c5.2,0,6.48-3.24,7.24-5.17,.66-1.66,1.22-3.1,4.26-4.58,4.5-2.21,9.33-2.01,14.01-1.82,2.83,.12,5.77,.24,8.53-.2,2.85-.45,5.97-1.67,9-2.84,2.22-.86,5.81-2.26,7.24-2.26h.02c1.77,2.55,5.37,5.53,10.19,6.1,3.24,.39,8.17-.23,13.35-5.31,3.1-3.04,5.99-4.62,8.33-4.53,1.7,.06,2.87,.98,3.55,1.74,1.34,1.51,5.61,3.83,17.47,10.07,8.33,4.39,22.27,11.73,23.99,13.72,2.69,3.82,7.35,4.5,10.35,4.5,1.58,0,2.7-.19,2.83-.21h.08c.49-.1,1.26-.05,1.49,.16,.12,.11,.34,.6,.28,1.7l-.18,3.48h30.79v86.13c.09,3.44,1.63,9.41,6.72,11.28,1.67,5.25,.61,30.89-1.42,52.78l-.42,2.47,2.35,.86c.56,.32,6.25,3.85,14.27,19.16,3.06,5.83,1.81,8.23,.37,11-3.65,7.02-2.7,11.71,12.62,22.17,1.14,2.7,4.86,11.42,11.51,26.57,3.3,7.51,5.14,22.24-4.83,49.74l-.35,.99c-.16,.46-.39,1.06-.66,1.78-2.82,7.47-9.44,24.95-4.39,37.85,2.92,7.45,.34,14.6-1.67,18.49,.13,.07,.25,.15,.34,.25,1.07,1.23,4.61,.46,5.07,.46,.13,0,.12,1.25,.04,3.2,2.65-4.77,6.49-14.35,2.4-24.82-4.12-10.53,2.08-26.92,4.41-33.09,.29-.78,.54-1.42,.71-1.92l.34-.93c8.6-23.73,10.17-42.12,4.66-54.66-8.09-18.41-11.82-27.29-11.85-27.38l-.38-.91-.82-.55c-6.8-4.58-10.84-8.09-12-10.42-.55-1.11-.39-1.58,.74-3.75,1.7-3.28,4.28-8.24-.38-17.13-6.83-13.03-12.38-18.56-15.29-20.78,.37-4.32,1.25-15.04,1.74-25.74,1.3-28.31-1.05-31.04-4.5-31.8-2.31-.51-2.66-4.93-2.68-5.31v-31.98l234.11-4.16c.02,5.43,.42,15.84,2.93,21.7,1.48,3.45,1.84,6.21,2.19,8.89,.34,2.63,.7,5.35,2.12,8.2,2.19,4.39,5.78,10.21,10.42,12.99,1.2,.72,2.93,3.4,3.48,6.1,.29,1.42,.21,2.62-.22,3.21-.68,.93-3.64,2.09-5.81,2.94-4.37,1.71-9.32,3.64-10.56,7.97-.47,1.63-.34,3.06,.39,4.25,1.1,1.8,3.02,2.17,4.29,2.42,1.96,.38,2.94,.58,2.94,4.81,0,5.85-1.8,6.87-4.3,8.28-1.56,.88-3.49,1.97-4.76,4.15-.88,1.5-1.5,2.91-2.06,4.15-1.08,2.42-1.8,4.01-3.72,5.41-.38,.27-.77,.56-1.19,.85-4.14,2.94-10.39,7.37-10.39,14.16,0,2.46,.75,5.11,1.41,7.45,.29,1.01,.67,2.38,.85,3.36-7.39,.42-11.77,5.27-11.77,13.15,0,3.08-.12,4.44-.21,5.44-.14,1.59-.19,2.42,.25,5.28,.2,1.33-.86,3.31-1.99,5.4-1.36,2.54-2.91,5.41-3.31,8.86-.61,5.17,1.35,9.61,2.65,12.55,.42,.95,.82,1.85,.95,2.38,2.87,11.47,12.43,12.47,19.94,11.28,11.76-1.86,112.74-6.58,133.64-7.54-.37,3.71-.95,8-1.61,9.83-.3,.82-.65,1.49-1.02,2.19-1.47,2.78-2.42,5.17-1.21,10.59,.41,1.85,.56,3.48,.7,5.06,.33,3.61,.67,7.35,3.96,12.55,2.4,3.8,5.07,5.33,7.02,6.45,1.91,1.09,2.42,1.39,2.73,3.25,.29,1.75,.38,3.16,.46,4.53,.2,3.32,.39,6.46,3.73,10.72,1.69,2.15,2.48,5.1,2.85,7.35,2.11-.02,4.43,.03,6.69-.07-.42-3.12-1.51-7.79-4.32-11.38-2.06-2.62-2.14-4-2.32-7.02-.08-1.39-.19-3.13-.54-5.22-.83-4.95-3.68-6.59-5.96-7.9-1.65-.94-3.2-1.84-4.72-4.24-2.43-3.85-2.65-6.27-2.96-9.62-.16-1.7-.33-3.63-.83-5.9-.77-3.45-.34-4.27,.61-6.05,.42-.79,.93-1.77,1.39-3.02,1.53-4.2,2.23-14.23,2.31-15.36l.25-3.7-3.7,.17c-5.09,.23-124.72,5.67-138.14,7.79-10.48,1.66-11.83-3.75-12.48-6.34-.27-1.08-.76-2.18-1.32-3.45-1.13-2.55-2.53-5.72-2.13-9.1,.26-2.2,1.43-4.38,2.57-6.5,1.59-2.96,3.24-6.03,2.7-9.55-.34-2.19-.31-2.5-.2-3.68,.1-1.06,.24-2.66,.24-6.04,0-4.65,1.8-6.55,6.2-6.55,2.48,0,3.84-1.12,4.55-2.06,1.94-2.56,.96-6.03-.08-9.7-.57-2.02-1.16-4.11-1.16-5.65,0-3.37,4.39-6.48,7.6-8.76,.44-.31,.86-.61,1.25-.9,3.35-2.44,4.63-5.3,5.87-8.07,.51-1.14,1.04-2.32,1.74-3.52,.35-.59,1.1-1.04,2.29-1.71,3.05-1.73,7.67-4.33,7.67-14.05,0-7.81-3.78-10.07-6.55-10.9,1.47-.89,3.79-1.8,5.26-2.37,3.57-1.39,6.93-2.71,8.75-5.21,1.57-2.16,2.04-5.07,1.36-8.43-.89-4.38-3.59-8.68-6.56-10.46-2.55-1.53-5.36-5.18-7.9-10.27-.92-1.85-1.17-3.72-1.48-6.1-.37-2.83-.83-6.34-2.67-10.64-1.92-4.49-2.37-13.63-2.4-19.21h.69l-.7-3.85c-.46-2.51-1.15-9.9,1.13-13.96,3.98-7.07-.37-18.07-4.76-27.82-1.56-3.46-2.96-4.89-3.9-5.84-.76-.78-1.08-1.1-1.08-5.97,0-5.36,4.78-11.91,8.27-16.69,2.82-3.87,4.53-6.2,4.53-8.52,0-.64-.05-1.52-.11-2.63-.49-8.43,.04-11.49,.63-12.51,6.6-.46,8.39-11.13,10.12-21.45,.33-2,.65-3.88,.95-5.22,1.22-5.5,6.02-8.64,10.83-11.39,6.09-3.48,7.59-5.98,10.06-11.73,2.32-5.42,6.67-18.99,6.67-27.27,0-1.57-.06-2.96-.12-4.18-.21-4.61-.27-6.16,2.72-8.73,2.55-2.18,3.57-2,5.28-1.7,.95,.17,2.14,.38,3.52,.21,4.22-.53,4.83-5.12,5.42-9.57,.26-1.94,.54-4.07,1.06-5.94l162.25-7.74c.45,.09,2.34,.62,3.21,3.62,.86,2.93,2.28,4.52,3.63,5.44-1.74,1.24-3.77,2.93-3.77,5.65,0,2.91-4.65,281.37-4.69,284.18v.22l17.82,151.15c1.13-.22,2.11-.47,2.84-.75,1.15-.44,2.33-1.18,3.51-2.03l-17.53-148.69c.23-14.07,4.5-270.23,4.69-283.55,.35-.33,1.06-.82,1.51-1.14,1.73-1.21,4.09-2.86,4.09-5.67,0-2.22-1.28-3.73-3.81-4.5-.96-.29-1.4-.42-1.91-2.17-.58-1.98-1.46-3.53-2.47-4.73-.61-1.02-1.16-2.31-1.34-3.12,11.75-1.36,146.42-10.24,202.03-13.85l68.49,230.17,.24,.79,.58,.59c3.72,3.78,9.23,10.8,9.23,13.84,0,3.22,1.55,6.04,2.92,8.52,.61,1.11,1.63,2.95,1.63,3.63-.04,.04-.1,.1-.22,.18-6.65,4.72-7.69,15.4-7.4,23.52,.07,1.98-.09,4.44-.27,7.28-.59,9.15-1.4,21.67,4.15,35.69,4.3,10.85,3.06,16.08,1.76,21.62-.71,3.01-1.45,6.12-1.32,10,.22,6.74,4.08,10.53,7.18,13.57,2.13,2.09,3.52,3.54,4,5.29-14.59,6.09-135.86,17.93-211.23,24.15l-2.87,.24-1.27,21.97,1.35,1.07c.06,.05,6.22,4.92,8.73,7.43,.8,.8,1.65,1.46,2.39,2.03,1.99,1.54,2.98,2.31,2.98,4.98,0,1.63-.29,3.14-.59,4.74-.66,3.5-1.42,7.47,.6,13.33l1.57,4.28c.85-2.45,1.61-5.52,1.8-6.77,.26-1.73-.06-2.87,2.04-3.42-.23-2.25,.11-4.13,.5-6.19,.35-1.83,.71-3.73,.71-5.98,0-5.91-3.21-8.4-5.55-10.21-.65-.5-1.26-.98-1.77-1.48-2.02-2.02-5.9-5.2-7.95-6.86l.74-12.79c11.84-.99,58.39-4.96,104.42-9.66,31.17-3.18,56.01-6.07,73.84-8.58,10.64-1.5,18.9-2.89,24.54-4.12,3.06-.67,5.5-1.3,7.35-2.01,4.98,9.02,9.98,18.73,10.42,20.75,.32,3.65,3.72,4.08,17.74,4.33,7.69,.13,18.39,.08,31.8-.15,22.79-.39,45.84-1.19,46.07-1.2l.38-.04c.76-.12,76.56-11.55,91.59-11.83,12.99-.25,35.83,2.47,41.9,3.23,8.39,12.9,9.69,13.14,11.06,13.39,.09,.02,.2,.04,.34,.07,.9,.19,2.38,.51,4,.51,1.72,0,3.58-.36,5.05-1.6,1.03-.88,2.24-2.52,2.1-5.33-.08-1.73-.12-4.66-.17-7.75-.1-7.28-.2-12.61-.62-14.83-.4-2.18-1.82-3.9-3.07-5.41-.48-.58-1.25-1.51-1.5-2.03,.82-1.38,1.37-2.68,1.81-3.73,.37-.88,.84-1.99,1.13-2.17,.62-.38,1.23-.92,2-1.61,3.85-3.42,5.76-4.21,7.28-3.01,4.73,3.74,6.72,4.08,11.15,4.54,1,.11,2.14,.22,3.53,.42,3.48,.49,8.92-.96,14.13-2.83-.37-1.71-.99-3.95-1.71-6.46-4.86,1.79-9.34,3.03-11.5,2.73-1.51-.21-2.76-.34-3.76-.45-3.57-.37-4.32-.45-7.73-3.15-6.42-5.07-12.99,.76-15.79,3.25-.39,.35-.93,.83-1.11,.95-2.07,1.3-2.91,3.29-3.72,5.21-.42,1-.86,2.03-1.5,3.08-2.41,3.91,.46,7.39,2.18,9.48,.59,.72,1.58,1.91,1.67,2.41,.34,1.85,.44,8.71,.51,13.72,.04,3.14,.08,6.1,.17,7.95-.43,.06-1.25,.03-2.84-.29-1.46-1.61-5.31-7.2-8.36-11.93l-.83-1.29-1.52-.2c-1.17-.15-28.92-3.75-44.4-3.48-15.22,.28-87.1,11.1-92.27,11.88-38.21,1.33-80.82,1.99-89.2,.77-1.93-5.3-7.95-16.36-11.98-23.55-.35-4.82-3.41-7.83-6.13-10.5-2.72-2.67-5.06-4.97-5.2-9.06-.1-3,.51-5.56,1.15-8.27,1.42-6,3.02-12.8-2.05-25.58-5.01-12.64-4.25-24.3-3.7-32.82,.2-3.03,.37-5.64,.28-7.95-.33-9.05,1.35-15.56,4.61-17.88,5.32-3.77,2.33-9.18,.55-12.42-1.03-1.87-2.1-3.8-2.1-5.32,0-6.28-7.85-15.05-10.56-17.89l-67.92-228.25,188.47-27.08c-.75,3.26-2.6,8.25-7.17,13.61-.67,.79-1.31,1.53-1.92,2.23-4.51,5.21-7.49,8.65-6.5,12.73,.91,3.73,4.85,5.98,10.92,8.41,5.01,2,7.92,4.07,10.74,6.08,4.6,3.27,8.94,6.36,20.01,7.74,3.63,.45,5.41,.85,6.27,1.12-.34,2.06-.74,5.67,3.51,10.25,1.49,1.6,3.43,4.01,5.69,6.79,9.62,11.89,25.72,31.78,50.72,46.14,24.71,14.19,28.19,21.85,30.27,26.42,.48,1.05,.92,2.03,1.53,3,3.9,6.24,14.23,20.82,25.9,21.51,8.32,.49,14.33,11.85,14.77,14.47,.91,5.46,3.63,18.36,9.24,20.65,.43,.36,1.26,1.79,1.87,2.85,2.5,4.34,6.69,11.61,17.49,12.81,8.53,.95,9.49,18.77,9.15,24.94l-.08,1.47,5.01,5.09c.54-1.96,3.61-2.48,6.94-2.4l-5.2-5.28c.04-2.47-.03-7.63-1.05-12.95-2.57-13.42-9.05-16.89-14.04-17.45-7.46-.83-10.13-5.45-12.48-9.53-1.4-2.43-2.72-4.72-5.06-5.66-1.57-1.11-4.07-8.52-5.25-15.62-.76-4.57-8.5-19.27-20.91-20-7.02-.41-15.52-10.17-20.67-18.4-.37-.59-.71-1.35-1.11-2.23-1.22-2.69-2.9-6.38-7.72-11.3-5.45-5.56-13.72-11.49-25.28-18.13-23.93-13.74-39.54-33.03-48.87-44.56-2.43-3-4.34-5.36-5.98-7.13-2.21-2.38-2.02-3.49-1.78-4.89,.19-1.13,.52-3.02-.78-4.77-1.48-2-4.11-2.88-11.24-3.77-9.41-1.18-12.76-3.55-17-6.57-2.99-2.12-6.38-4.53-12.12-6.83-6.1-2.44-6.86-3.63-6.94-3.77,.01-1.03,2.81-4.27,5.07-6.87,.62-.71,1.27-1.47,1.95-2.27,7.06-8.28,8.75-16.13,9.14-19.78,11.37-6.24,37.49-20.15,44.71-22.08,9.01-2.4,33.76-7.73,36.23-8.26l35.59-3.18h41.37c2.1,.25,10,1.11,14.46,.08,2.1,2.16,5.49,11.45,5.53,14.01,0,2.44,1.04,5.65,3.96,7.33,2.07,1.19,5.71,1.92,11.29-1.33,5.6-3.26,21.39-3.07,27.01-2.73l.37,.02,51.69-8.23,104.42,71.53c.25-.88-.08-1.88-.61-3.48-.42-1.25,.49-2.47,2.1-3.54l-104.34-71.47-53.58,8.53c-3.54-.2-22.4-1.02-30.39,3.64-2.72,1.58-4.2,1.57-4.65,1.31-.41-.24-.63-.99-.63-1.58,0-3.3-3.89-16.26-8.64-19.69-2-1.44-3.81-1.16-4.7-.86-2.16,.72-8.7,.35-12.66-.14l-.2-.03h-41.93l-36.24,3.22-.4,.06c-1.1,.24-27.15,5.82-36.74,8.38-9.39,2.51-42.54,20.66-47.27,23.26l-92.3,13.26v-6.05c0-4.3,3.11-12.53,4.25-14,1.36-1.18,8.55-3.56,10.61-3.97,4.55-.91,7.72-10.61,7.72-18.75,0-2.83,.96-3.32,3.97-4.47,2.04-.78,4.58-1.75,6.12-4.22,1.69-2.72,10.1-5.84,12.19-5.84,2.97,0,13.11-3.68,17.33-5.26l.61-.23,.48-.45c9.13-8.51,20.42-18.26,22.71-19.16,.81-.27,1.96-.48,3.18-.71,4.24-.78,10.64-1.96,11.92-8.16,.91-4.38,2-6.42,4.18-10.47l.78-1.45c2.73-5.11,7.46-10.65,10.65-11.08,.99-.14,2.15,1.28,3.52,3.15,1.43,1.94,2.91,3.95,5.4,4.26,4.73,.61,10.82-4.53,12.43-13.84,.67-3.86,2-4.4,10.94-4.34,1.48,0,3.1,.01,4.4,.04,8.5,.17,11.01-1.15,15.85-14.7,2.47-6.92,6.45-8.52,9.96-9.93,2.79-1.12,6.6-2.65,6.6-7.33,0-4.39,1.28-16.33,1.86-21.59,27.01-3.8,262-37.37,429.89-77.51-2.81-2.28-4.29-4.55-2.58-6.2-177.07,42.23-428.18,77.14-430.83,77.51l-143.97,22.79,103.27-94.75,31.84,19.24,.79,.06c.05,0,.23,.02,.53,.02,2.32,0,11.63-.7,20.99-11.17,5.06-5.67,7.06-4.02,10.08-1.53,1.29,1.06,2.63,2.16,4.28,2.56,3.19,.76,6.38-1.59,10.8-4.85,3.63-2.68,8.16-6.01,12.4-7.12,5.52-1.44,8.65-4.71,11.17-7.33,2.4-2.5,3.87-3.92,6.34-4.18,5.22-.55,8.89-1.81,12.12-2.92,1.73-.59,3.36-1.15,5.08-1.55,4.93-1.14,5.68-8.41,6.82-19.41,.7-6.72,1.65-15.92,3.79-18.52,4.75-5.77,21.75-34.86,18.59-44.36-1.65-4.94,5.16-28.01,7.76-34.25,1.86,.49,5.83,2.09,14.19,6.34,.55,.28,1.03,.53,1.43,.72,3.84,1.92,10.42,1.34,14.67-1.29,3.43-2.12,5.32-5.41,5.32-9.27,0-3.23,2.08-7.17,4.1-10.97,2.31-4.36,4.7-8.87,4.7-13.44,0-5.07,8.64-14.2,17-20.1,.46-.33,.95-.67,1.46-1.02,7.46-5.21,18.74-13.07,18.74-24.49,0-5.03,1.04-8.8,2.04-12.45,.96-3.5,1.96-7.12,1.96-11.55v-7.58c.74,.69,1.63,1.56,2.7,2.68,9.75,10.14,21.87,14.82,26.43,16.59,.34,.13,.63,.24,.86,.34,.6,.24,1.46,.92,2.22,1.51,1.73,1.36,3.88,3.05,6.42,2,1.67-.68,2.68-2.28,2.99-4.75,.22-1.68,1.1-4.38,1.95-6.98,1.45-4.45,2.45-7.74,2.52-10.36,5.05,.25,9.63,.95,10.96,1.74,.78,1.62,1.79,2.88,2.68,4,.83,1.04,1.61,2.02,1.61,2.64,0,3.03,1.47,9.82,5.81,10.49,.22,.07,.73,.27,1.14,.44,2.76,1.12,7.91,3.21,13.76,2,2.44-.5,4.07,1.1,6.27,3.61,1.17,1.32,2.17,2.47,3.57,3.05,.63,.26,1.48,.58,2.42,.92,1.49,.55,4.57,1.68,5.37,2.28,.49,.55,1.07,.96,1.63,1.36,1.48,1.06,2.54,1.83,2.29,4.39-.24,2.44-1.77,7.06-3.36,11.32,3.07-.59,5.26,.07,6.52,1.49,1.58-4.32,3.13-9.16,3.43-12.15,.64-6.37-3.18-9.11-5.02-10.43-.22-.16-.53-.38-.56-.4-1.31-1.53-3.9-2.56-8.02-4.07-.77-.28-1.48-.54-2.02-.76-.28-.23-.86-.88-1.28-1.37-2.17-2.46-6.2-7.04-12.59-5.72-3.88,.8-7.67-.74-9.93-1.65-.69-.28-1.25-.51-1.78-.67-.43-.75-1.03-2.52-1.03-4.13,0-2.94-1.63-4.98-3.06-6.78-.78-.98-1.52-1.91-1.98-2.93-1.23-2.77-4.72-4.2-12.04-4.95-1.89-.19-3.73-.3-5.22-.37-.27-2.33-1.49-5-5.65-9.09-7.55-7.41-16.65-10.72-24.55-12.98-3.23-.92-8.09-2.31-12.96-2.2,80.54-17.21,164.43-35.03,168.39-35.5,2.1-.23,4-.71,5.73-1.41,1.19,5.71,3.28,15.82,4.97,24.17,.63,.18,.93,1.17,.72,3.55,.88,4.42,1.57,7.95,1.81,9.43,.56,3.52,2.26,5.93,3.91,8.25,1.57,2.22,3.05,4.31,3.75,7.63,.65,3.08,1.3,6.45,1.93,9.71,.92,4.75,1.78,9.23,2.49,11.94,1.22,4.62,8.12,22.31,9.92,25.79,.09,.45,.05,1.68,.02,2.51-.11,3.24-.26,7.68,2.81,10.73,1.84,1.83,4.47,2.75,7.84,2.75,.25,0,.51,0,.77-.02,11.01-.44,23.91-1.8,27.25-2.64,2.26-.57,3.76-2.24,4.96-3.58,.31-.35,.75-.84,1.06-1.12,1.03,.27,3.1,.91,5.56,1.7,1.65-2.23,2.6-4.19,2.99-6-3.42-1.12-6.65-2.12-7.85-2.34-3.2-.58-5.3,1.77-6.7,3.33-.48,.54-1.29,1.44-1.63,1.57-2.31,.58-14.19,1.98-25.91,2.45-1.26,.05-2.91-.05-3.68-.81-1.02-1.02-.93-3.67-.86-5.81,.08-2.21,.14-4.12-.73-5.74-1.49-2.77-8.33-20.32-9.42-24.47-.66-2.5-1.5-6.87-2.4-11.51-.64-3.29-1.29-6.7-1.96-9.83-.99-4.65-3.11-7.66-4.82-10.08-1.37-1.94-2.46-3.48-2.78-5.48-.82-5.12-6.57-32.78-8.12-40.17,1.61-1.74,2.92-3.87,3.95-6.43,1.49-3.72,7.48-6.26,15.64-6.64,9.99-.45,14.25-5.87,18.37-11.11,4.14-5.27,8.67-10.93,10.55-13.19,.27-.33,1.13-1.19,2.04-2.1,9.09-9.11,14.14-15.38,13.06-20.42-1.06-4.93-5.51-8.58-9.44-11.81-1.37-1.12-2.66-2.18-3.64-3.16-1.88-1.88-3.74-2.7-5.39-3.42-2.3-1.01-4.3-1.89-6.97-6.24-.5-.82-.94-1.53-1.31-2.14-2.65-4.36-3.11-4.97-6.51-6.52-.98-.45-2.33-1.06-4.35-2.15-2.93-1.58-3.23-2.27-3.24-2.29-.07-.31,.25-1.49,.48-2.35,.45-1.66,1.07-3.93,1.29-6.97,.27-3.75,1.12-5.53,1.94-7.25,.99-2.06,2.1-4.39,1.2-8.47-.66-2.99-1.9-5.12-2.89-6.83-1.23-2.13-1.77-3.14-1.55-4.88,.45-3.61,3.18-6.6,7.49-8.19,5.59-2.06,5.59-7.32,5.59-11.54,0-2.05,0-4.16,.38-6.46,.35-2.11,2.24-4.39,3.91-6.39,.68-.81,1.36-1.63,1.94-2.47,10.64,3.78,47.11,16.6,59.37,18.93,2.04,.39,3.42,1.31,4.36,2.91,1.73,2.94,1.65,7.56,1.07,11.54,2.38-1.47,2.23-3.82,4.46-4.56,1.01-.34,1.72-1.65,2.36-3.38-.29-2.45-.95-4.86-2.17-6.95-1.9-3.23-4.95-5.33-8.84-6.07Zm-376.62,218.01c24.65-5.29,55.14-11.82,86.52-18.53-2.92,1.34-5.5,3.72-7.29,7.71l-.64,1.43c-4.23,9.46-5.12,10.99-11.68,9.61-4.82-1.02-7.2-2.53-8.93-3.63-1.74-1.11-3.72-2.36-6.51-1.67-3.18,.79-5.03,4.15-6.82,7.39-.61,1.11-1.54,2.78-2,3.22-1.21,.77-3.79,3.27-12.2,11.63-5.56,5.52-13.82,13.73-16.06,15.4-2.75,.68-2.9,4.09-2.98,5.64-.03,.72-.1,2.09-.31,2.77-.03,0-.06,0-.1-.02-3.45-.62-5.58-7.41-5.58-13.35,0-3.92-1.62-9.53-3.18-14.96-1-3.48-2.04-7.08-2.15-8.77-.11-1.65-.12-2.92-.09-3.87Zm-897.58,92.21c1.65,3.49,2.74,5.79,3.09,7.45,.64,2.98,6.12,8.8,38.41,37.14,4.56,4,8.49,7.45,9.39,8.35,2.03,2.03,3.63,11.37,3.63,21.26,0,5.71,0,14.35,11.9,14.35,5.84,0,7.71-2.64,9-5.11,.16-.31,.41-.79,.52-.88,0,0,.18-.11,.77-.14,5.69-.3,12.96,.04,15.15,.53,.74,.76,1.74,1.33,2.85,1.96,.68,.39,1.91,1.08,2.32,1.51,.83,2.6,2.47,3.62,4.06,4.09-.45,2.34-1.56,6.27-2.42,9.34-1.14,4.04-2.31,8.21-3.01,11.72-.6,2.99-2.18,6.6-3.85,10.43-3.22,7.37-6.87,15.72-6.01,24.58,.87,8.94,14.48,19.42,22.51,24.88,10.02,6.8,22.88,13.55,29.03,13.37,.65-.02,.89,.08,.9,.08,.28,.27,.6,1.61,.82,2.5,.99,4.1,2.61,10.78,14.03,12.21l2.34,14.02,.4,2.26,2.24,.45c.73,.15,7.13,1.59,7.13,7.48,0,3.61-1.63,6.68-3.2,9.65-1.88,3.55-3.82,7.21-2.45,11.33,1.95,5.85,8.63,15.71,18.25,17.25,5.6,.9,9.34,2.59,10.53,3.35,.44,.82,1.34,1.65,3.15,1.96,.21,.04,.56,.1,.63,.13,0,0,.54,.75,.16,3.6-.58,4.36-1.56,6.02-2.43,7.48-.81,1.37-1.72,2.92-1.72,5.51-.03,.83-1.25,4.55-3.94,9.41-2.79,5.04-5.07,7.51-5.91,7.94-2.06,.34-5.01,1.95-11.07,10.46-2.37,3.34-6.35,9.21-6.35,11.05,0-.42,.08-.72,.09-.75-.43,1.49-6.15,15.66-6.79,16.95-.45,.91-.5,1.96-.12,2.9,.7,1.76,2.32,2.35,4.56,3.16,1.03,.37,3.6,1.31,4.44,2.07-3.47,5.78-8.69,12.15-10.47,13.24-.8,.08-2.15,.33-5.25,.9-5.36,1-14.32,2.68-22.39,3.53-11.35,1.2-14.61,.08-15.38-.33-.46-7.17,6.56-16.27,8.81-17.02,.49-.16,1.28-.1,2.12-.02,1.65,.14,4.15,.36,6.1-1.55,1.77-1.72,2.41-4.49,2.14-9.24,.09-1.98,.28-12.73-5.48-18.67-2.5-2.58-5.79-3.89-9.6-3.79-12.11,.3-309.86,13.42-347.51,15.08v-44.8h.51v-207.81c0-3.33-.98-5.76-2.92-7.22-1.52-1.14-3.33-1.38-4.72-1.21-12.11-2.22-13.37-10.56-13.42-10.89l-.16-1.41-1.13-.86c-.14-.11-14.11-10.9-14.99-21.63-.28-3.4,.83-6.38,3.41-9.12,6.38-6.8,9.49-13.27,9.23-19.22-.25-5.58-3.4-8.55-3.75-8.87l-2.4-2.14-2.21,2.33c-2.18,2.29-6.55,5.48-8.99,5.04-.33-.06-1.33-.24-2.29-2.48-5.09-11.88-14.16-10.26-16.77-9.51-.44,.02-.9,.03-1.36,.04-.53-18.45-13.77-31.33-19.63-37.03-.72-.7-1.52-1.48-1.95-1.95-.08-.84-.16-2.37-.23-3.64-.3-5.47-.58-9.01-1.11-11.35,17.82-.31,75.23-1.32,132.03-2.54,39.97-.86,71.82-1.66,94.66-2.37,13.58-.42,24.09-.82,31.25-1.18,3.88-.19,6.86-.38,8.86-.56,2.8-.25,5.96-.52,6.11-3.58,.18-.12,.5-.27,.73-.33,.09-.02,9.1-1.95,15.16-.49,4.66,1.13,15.28,14.57,17.83,18.72-.63,4.61-2.39,21.77,3.74,37.36,3.59,9.14,6.37,15.02,8.4,19.32Zm-325.35-63.41c.59,1.75,.93,8.02,1.08,10.76,.15,2.75,.24,4.23,.41,5.12,.3,1.5,1.31,2.48,3.76,4.87,5.69,5.54,17.16,16.7,17.62,32.44-105.8,2.03-457.3-17.66-495.18-19.81l5.26-99.21-144.41-9.56,15.75-184.48c52.33,2.79,383.12,20.41,395.5,20.78,.09,.19,.19,.43,.27,.62,.56,1.33,1.5,3.55,4.14,4.4,1.04,.33,2.51,1.19,3.93,2.03,1.62,.95,3.29,1.93,4.97,2.55,.81,.3,1.93,1.18,3.02,2.04,1.96,1.54,3.99,3.13,6.47,3.42,1.7,.2,3.24,1.49,3.7,2.35,1.72,3.25,6.29,3.81,10.72,4.35l.63,.08c1.69,.21,3.28-.29,4.47-1.42,1.2-1.14,1.79-2.71,2.07-4.17,9.45-.05,37.56-.2,41.38-.2,3.59,0,12.02,2.64,17.07,6.79,4.32,3.55,9.71,4.63,13.27,5.34,1,.2,2.38,.48,2.75,.66,2.16,1.08,8.17,6.46,8.74,8.34,.43,5.14,7.61,10.5,10.06,11.78,.25,.13,.55,.31,.87,.5,1.43,.84,3.53,2.07,5.63,2.1,1.85,2.6,5.19,8.54,5.19,17.48s6.02,16.48,10.86,22.45c2.94,3.63,5.98,7.38,6.12,9.84,.21,3.84,1.05,8.51,1.93,13.46,1.08,6.02,2.19,12.24,2.19,17.08,0,11.51,3.95,18.81,10.36,19.34,1.63,2.31,3.6,12.52,4.32,22.64l.05,.38c2.42,12.86,5.45,32.61,4.61,36.25-1.48,6.41,6.26,24.39,10.41,28.63Zm.23,.23c.26,.24,.51,.42,.73,.54-.33-.17-.57-.36-.73-.54Zm31.31,59.36l.6-.02,.56-.23c.55-.23,5.49-2.03,8.84,5.77,1.96,4.57,5,6,7.21,6.4,4.31,.78,8.76-1.82,11.69-4.08,.67,2.89,.08,8.1-7.23,15.88-3.88,4.13-5.62,8.91-5.18,14.22,.99,11.86,12.98,22.58,16.58,25.55,.94,3.66,4.73,12.95,19.19,15.31l.69,.15,.59-.17c.1,.24,.25,.78,.25,1.81v204.47c-111.8,5.63-423.54-8.85-573.27-16.48l15.28-288.16c39.12,2.22,409.93,22.98,504.19,19.58Zm-81.81-345.71v-.04c35.98-.43,321.74-3.97,367.03-8.66,.74,6.37,1.89,7.34,2.55,7.91,.44,.38,.97,.67,1.77,1.12,2.36,1.32,7.27,4.08,6.97,7.8-.19,2.34-1.44,4.42-2.89,6.83-2.07,3.43-4.65,7.71-4.46,13.89,.18,6.01,3.04,9.54,5.56,12.64,1.97,2.43,3.66,4.52,4.08,7.75,.14,1.06,.22,2.14,.3,3.18,.7,9.26,2.7,15.85,22.12,16.39,7.59,.21,9.27,3.81,12.96,11.71,4.34,9.28,10.89,23.3,32.35,37.96,.98,.82,10.64,9.23,8.64,19.02-1.25,6.12-4.85,9.26-8.33,12.3-2.84,2.48-5.78,5.04-6.88,8.96-.57,2.05-.85,3.77-1.07,5.15-.55,3.48-.72,4.53-4.83,7.06-2.68,1.65-4.93,3.1-6.91,4.37-3.41,2.2-5.87,3.78-8,4.77-.4,.17-1.94,.52-3.18,.79-8.37,1.87-27.97,6.25-30.11,23.87l-.02,.4c0,3.4,2.33,10.52,11.15,13.08,6.15,1.78,6.66,5.13,6.66,8.68-.1,1.82-4.22,8.03-5.98,9.43-1.03,.41-2.9,1.72-5.88,9.23-1.98,4.98-3.42,10.3-3.95,14.59-.38,3.04-1.9,3.72-6.14,4.87-2.77,.76-5.91,1.61-7.92,4.29-2.5,3.33-3.74,10.23-3.78,21.07-.76,.04-1.68-.03-2.22-.19-2.46-4.23-14.47-20.61-22.38-22.52-7.55-1.82-17.7,.37-18.12,.46-2.03,.43-4.16,1.72-5.24,3.73-17.98,1.89-168.8,5.02-270.83,6.74-2.95-5.44-7.42-16.51-6.71-19.63,1.44-6.25-3.43-32.97-4.52-38.78-2.07-28.57-8.16-28.57-10.17-28.57-2.2,0-4.48-4.77-4.48-12.74,0-5.42-1.16-11.94-2.29-18.25-.85-4.75-1.65-9.23-1.84-12.67-.26-4.6-3.65-8.79-7.59-13.65-4.4-5.42-9.38-11.57-9.38-18.27,0-11.32-4.55-18.84-6.89-21.96,.29-1.89-.06-4.07-.51-5.99-1.51-6.54-4.5-8.54-6.48-9.86-1.45-.97-1.85-1.23-2.02-3.58-.16-2.08,.03-2.56,.03-2.58,.03-.05,.15-.22,.24-.34,1.5-1.97,2.75-4.33,2.99-13.25,.2-7.56,1.44-9.28,2.87-11.28,1.42-1.98,3.03-4.22,3.7-9.8,.91-7.57-1.52-10.92-3.29-13.37-1.06-1.47-1.65-2.28-1.65-3.93,0-3.71-.06-5.35-.12-6.8-.04-1.11-.08-2.06-.08-3.79,0-4.04-2.24-5.87-3.72-7.07-.79-.64-1.24-1.03-1.56-1.62-.15-.29-.25-.57-.31-.83h10.76Zm-528.27-174.72h0v-.02l.3-3.46h-.02l6.93-85.97c32.9,2.29,352.83,24.28,492.94,24.28,5.61,0,10.92-.04,15.93-.11v8.48c-4.63,3.04-17.12,12.42-16.81,25.01,.23,9.6,7.76,18.41,22.37,26.2v173.69h-8.93l-.94,1.74c-.23,.43-2.2,4.34,.2,8.83,.96,1.79,2.27,2.86,3.22,3.64,1.17,.95,1.28,1.07,1.28,1.93,0,1.86,.04,2.93,.09,4.06,.06,1.39,.12,2.96,.12,6.54,0,3.8,1.61,6.03,2.91,7.82,1.5,2.07,2.68,3.71,2.08,8.7-.47,3.89-1.37,5.14-2.5,6.73-2.19,3.05-3.88,6.08-4.12,14.97-.2,7.52-1.1,8.71-1.64,9.42-1.33,1.76-1.92,3.32-1.61,7.41,.42,5.57,3.04,7.32,4.95,8.6,1.56,1.04,2.79,1.86,3.7,5.83,.13,.58,.23,1.07,.3,1.49-.2-.11-.38-.22-.53-.31-.43-.25-.83-.48-1.16-.66-2.5-1.3-6.34-5.1-6.52-6.44-.37-5.55-10.69-12.88-12.38-13.73-1.14-.57-2.59-.86-4.41-1.23-3.09-.62-7.32-1.47-10.37-3.97-6.05-4.96-15.88-8.29-21.27-8.29-4.59,0-44.1,.21-44.5,.22l-3.54,.02,.25,3.53c.04,.56-.02,1.39-.14,1.97-1.65-.2-4.69-.59-5.63-1.13-1.67-2.89-5.17-5.15-8.64-5.55-.62-.07-2.2-1.31-3.14-2.05-1.49-1.17-3.03-2.38-4.82-3.04-1.13-.42-2.55-1.25-3.92-2.06-1.64-.96-3.33-1.95-4.98-2.53-.1-.2-.24-.52-.34-.76-.61-1.43-2.02-4.79-6.27-4.67-5.92-.04-356.49-18.71-395.05-20.77l16.6-194.37Zm-534.79,230.01c.94-4.64,25.69-127.91,40.6-244.54,2.85-2.51,5.64-9.47,7.22-29.88,.68-1.68,2.72-7.05,3.45-12.26,42.85,5.9,410.41,56.31,476.61,59.58l-32.62,381.99c-34.43-3.51-321.63-32.91-363.43-41.68l.03-.22-142.46-23,10.6-89.99Zm-317,441.13c.05,1.22-.1,2.52-.28,4.03-.34,2.92-.77,6.54,.18,11.19,.43,2.11-.72,4.53-2.05,7.34-1.68,3.55-3.59,7.57-3.29,12.65,.18,3.11-.89,5.68-2.25,8.94-1.76,4.21-3.76,8.98-3.36,15.97,.62,10.81-7.96,14.99-8.94,15.43-2.36,1.06-3.28,3.13-3.9,4.5-.75,1.68-.91,2.04-3.37,1.82-1.94-.17-2.53-1.13-3.56-4.34-.68-2.13-1.94-6.11-6.1-5.72-2.39,.2-7.68-2.32-9.94-3.4l-.89-.42c-.13-.06-13.43-5.62-18.14-1.92-.11,.09-.24,.17-.38,.27-4.72,3.26-9.65,9.6-8.31,43.71,1.4,35.5-3.33,51.78-3.65,52.82-1.15,3.05-2.56,5.69-3.77,7.68l-311.32-466.95,74.18-281.9,417.67,98.85c-24.05,115.71-98.72,475.31-98.56,479.48Zm387.86,58.83l-380.11-65c8.77-45.28,65.69-319.93,97.28-471.93l205.04,39.11-11,93.37,142.32,22.97-53.54,381.46Zm6.56,.94l53.49-381.12c47.04,9.57,353.61,40.69,367.04,42.05l3.35,.34v-.12l138.02,9.14-20.54,387.47c-44.72-2.29-73.45-3.89-75.56-4.01l-465.8-53.74Zm1136.73,400.72c-1.48-.12-3.09-.55-3.87-1.66-1.92-2.74-9.88-7.11-26.32-15.77-6.39-3.37-14.33-7.55-15.67-8.68-2.17-2.4-5.08-3.78-8.21-3.89-4.24-.14-8.71,2.02-13.2,6.42-2.65,2.6-5.32,3.76-7.92,3.46-2.96-.35-4.98-2.42-5.63-3.47-2.92-4.67-9.33-2.17-15,.03-2.7,1.05-5.49,2.13-7.64,2.47-2.11,.33-4.59,.23-7.22,.13-5.24-.21-11.19-.46-17.19,2.49-5.34,2.62-6.69,6.05-7.5,8.1-.12,.31-.28,.71-.39,.93-.12,.02-.34,.05-.68,.05h-.78c-5.73,.02-11.14,.02-19.77-5.77-2.94-1.97-4.36-3.41-5.49-4.57-3.54-3.59-5.46-4.04-14.65-3.4-8.97,.62-9.55-.4-11.49-3.79-.53-.92-1.12-1.96-1.91-3.11-1.66-2.43-3.81-2.8-4.94-2.75-4.48,.07-8.24,5.34-12,11.21-.37,.58-.82,1.27-1.08,1.66-1.53,.79-5.92,2.24-7.86,1.32-.23-.11-.72-.34-.88-1.65-.27-2.14-1.16-3.68-2.65-4.57-2.54-1.53-5.43-.44-8.49,.72-6.03,2.27-10.67,3.44-15.39-2.18-3.81-4.54-7.56-6.86-11.46-7.09-5.29-.3-9.19,3.36-12.04,6.04-1.12,1.05-2.28,2.15-3.04,2.51-.37,.18-.91,.34-1.83-.01-2.4-.93-5.31-4.54-6.93-8.58-.43-1.09-.74-2.05-1.03-2.97-1.54-4.84-2.85-7.77-12.02-11.66-10.59-4.49-20.65,.96-24.95,3.3-.44,.24-.82,.44-1.13,.6-.98,.49-2.38,.54-3.56,.13-1.08-.38-1.86-1.07-2.32-2.06-3.79-8.11-25.02-7.11-25.24-7.09-3.41,.17-4.56-.36-6.64-1.33-1.69-.79-3.8-1.77-7.37-2.56-3.82-.84-7.66-1.03-10.75-1.19-1.43-.07-3.26-.16-4.35-.33-.03-1.6,.28-4.54,.47-6.27,.5-4.74,.75-7.1-1-8.48-.17-.21-.45-.6-.69-.93-2.61-3.58-8.03-11.02-14.95-9.29-2.49,.62-4.7,1.89-6.83,3.12-3.73,2.15-6.96,4.01-11.5,2.75-5.51-1.52-10.72-7.1-14.53-11.17-1.68-1.8-3.13-3.35-4.46-4.44-1.64-1.35-3.6-2.28-5.33-3.1-4.07-1.93-4.6-2.57-4.43-3.93,.76-6.08,.43-39.32,.4-41.88l6.03-108.9v-33.18l-3.1-.2c-2.1-.13-201.79-12.83-233.14-16.19l3.38-39.52c43.26,2.39,508.47,27.74,652.2,20.71v45.3l.08,.35c.17,.76,16.48,75.79,16.48,91.63,0,14.95-.49,158.9-.57,182.21Zm346.59-155.41c-2.59,1.89-5.53,4.03-7.09,7.59-1.35,3.08-1.81,6.54-2.21,9.6-.17,1.25-.38,2.84-.62,3.81-.18-.03-.38-.06-.59-.1-2.95-.53-6.2-.71-10.75,3.19-5.45,4.67-5.26,9.02-5.03,14.06,.05,1.21,.11,2.47,.11,3.89,0,6.9-3.93,19.53-6.13,24.66-2,4.67-2.71,5.99-7.25,8.59-6.26,3.58-12.29,7.95-14.01,15.71-.33,1.5-.65,3.38-1.01,5.56-.66,3.92-2.38,14.21-4.33,15.94-1.5,.07-2.85,.7-3.91,1.83-3.14,3.33-3.02,10.26-2.59,17.67,.05,.82,.09,1.54,.1,2.01-.35,.88-2.02,3.16-3.25,4.85-4.03,5.52-9.54,13.08-9.54,20.6,0,6.48,.74,8.33,2.98,10.61,.74,.76,1.51,1.54,2.58,3.92,2.3,5.12,7.7,17.11,5.03,21.85-2.56,4.55-2.65,10.63-2.35,14.56l-233.73,4.15v-53.99h-30.97c-.5-1.76-1.42-2.89-2.26-3.61-.98-.84-2.08-1.3-3.12-1.54,.08-23.33,.57-167.27,.57-182.22s-12.41-73.37-15.8-89.2c37.78-1.66,335.07-14.76,346.92-15.05,1.93-.05,3.44,.51,4.67,1.77,3.38,3.48,3.76,11.21,3.62,13.89v.39c.14,2.33,0,3.5-.13,4.03-.29-.01-.64-.04-.92-.06-1.27-.11-2.99-.26-4.79,.34-5.76,1.92-14.32,14.45-13.27,24.41,.17,1.63,1,3.05,2.41,4.1,2.15,1.6,5.85,2.29,10.87,2.29,7.84,0,18.9-1.68,32.26-4.17l.14-.03c-.19,2.35,.02,5.26,1.32,8.46,1.11,2.72-3.28,6.35-5.9,8.52-1.13,.94-2.03,1.68-2.64,2.42l-.07,.09c-2.08,2.49-5.21,6.25-5.21,18.59,0,2.18-.27,3.06-.39,3.34-.23,.05-.62,.1-.92,.13-2.02,.23-5.78,.66-7.86,5.84-.74,1.86-1.36,3.17-1.9,4.32-1.76,3.76-2.48,5.57-2.48,12.71,0,5.95,2.73,8.36,4.54,9.96,1.35,1.19,1.4,1.24,.87,3.02-.91,3.03-3.24,4.74-5.95,6.71Zm654.89-214.72c-.65,5.92-1.71,16.27-1.71,20.56v.03c-.38,.31-1.56,.79-2.44,1.14-3.84,1.54-10.26,4.12-13.74,13.85-1.45,4.05-3.13,8.37-4.62,9.68-.74,.65-1.79,.69-4.84,.62-1.34-.03-2.99-.03-4.51-.04-7.77-.06-15.78-.09-17.51,9.83-.95,5.47-3.7,7.83-4.78,8.31-.35-.39-.83-1.05-1.18-1.53-1.78-2.41-4.76-6.45-9.73-5.79-8.24,1.1-14.89,13.15-15.62,14.53l-.77,1.43c-2.24,4.18-3.73,6.94-4.83,12.26-.36,1.71-2.98,2.32-6.64,2.99-1.46,.27-2.83,.52-4.08,.94-4.16,1.39-18.25,14.2-24.65,20.14-5.91,2.2-12.93,4.53-14.39,4.61-3.15,0-14.44,3.53-17.82,8.98-.36,.57-1.62,1.06-2.85,1.52-3.08,1.17-8.24,3.14-8.24,10.67,0,6.29-2.06,11.12-3.09,12.42-2.54,.67-11.26,3.13-13.66,6-2.19,2.63-5.82,12.46-5.82,18.29v7l-96.92,13.92c-33.98,2.2-201.68,13.13-206.26,14.27-1.94,.48-3.39,1.7-4.08,3.43-.31,.78-.43,1.61-.43,2.44l-155.58,7.42c3.01-2.2,6.68-4.96,8.2-10.02,1.75-5.85-1.01-8.28-2.83-9.89-1.38-1.22-2.3-2.03-2.3-4.99,0-5.95,.43-6.87,1.85-9.9,.55-1.17,1.24-2.64,2.05-4.68,.6-1.5,.88-1.53,2.45-1.71,3.74-.42,7.19-1.94,7.19-10.06,0-9.94,2.04-12.39,3.67-14.35l.07-.09c.22-.27,1.12-1.01,1.78-1.55,3.76-3.11,10.75-8.89,7.81-16.12-1.38-3.39-.9-6.18-.48-7.59,5.46-3.13,12.21-14.18,13.08-15.62,1.37-2.28,1.14-4.23,.7-5.46-1.2-3.38-5.07-4.93-8.1-6.04,2.11-5.03,6.14-14.83,6.14-16.2,0,.66-.21,1.13-.23,1.19,.62-1.34,2.85-4.88,5.3-8.33,21.46-1.28,108.83-6.55,113.21-7.86,2.81-.84,3.33-2.91,3.43-3.76,.11-.98,.43-3.81-6.72-8.26v-6.97h6.68l338.18-27.92,.1-.09,149.54-23.68Zm-152.45,17.35l-335.51,27.71h-13.17v17.41l1.68,.95c.74,.42,1.5,.89,2.2,1.37-14.86,1.38-64.12,4.51-101.45,6.76,.46-.42,.87-.72,1.2-.87,6.97-1.19,15.28-19.64,15.28-23.87,0-.76,.15-1.05,.8-2.15,1.01-1.71,2.53-4.28,3.29-9.98,.83-6.25-1.05-9.95-5.61-11.01-.58-.58-1.33-1.12-2.18-1.6,4.5-8.35,9.64-15.6,11.6-16.21,7.83-1.16,12.71,.02,13.32,1.72,2.01,5.6,7.51,6.42,11.15,6.96,1.14,.17,2.21,.33,2.99,.58,1,.32,1.38,.57,1.85,.9,1.7,1.18,3.1,1.7,6.9,1.7s7.74-1.87,10.15-5c1.76-2.28,2.42-4.88,1.82-7.12-.45-1.69-1.32-2.96-2.16-4.19-1.15-1.67-2.33-3.41-2.86-6.87-.26-1.73-.58-3.15-.86-4.41-.83-3.73-.87-4.2,.74-5.8,.88-.88,2.26-1.07,4.44-1.31,3.1-.34,7.34-.8,10.09-5.18,.59-.94,.92-1.12,.91-1.12,.1-.02,.41-.02,.65-.01,2.45,.04,4.98-.47,7.28-4.5,3.14-5.5,1.79-8.83,.47-12.06-.48-1.17-.97-2.38-1.37-3.9-.64-2.42,1.08-6.31,2.6-9.75,.77,.08,1.62,.14,2.48,.14,2.13,0,4.36-.33,5.93-1.43,1.17-.82,1.93-2.03,2.14-3.39,.29-1.91,3.11-6.41,8.41-6.23,4.1,.14,4.66,.45,6.02,1.19,.86,.47,2.03,1.11,3.98,1.86,6.58,2.49,9.77-3.92,11.49-7.37,.61-1.22,1.23-2.48,1.81-3.22,2.1-2.67,2.22-2.83,7.22-3.27,4.29-.37,10.9,3.24,13.16,7.15,.42,.73,.82,1.66,1.21,2.56,1.13,2.63,2.54,5.9,5.93,6.1,3.52,.23,6.31-3.31,9.39-8.66,7.81-13.54,11.89-13.81,13.42-13.92,1.9-.14,4.05,1.68,6.54,5.52,1.69,2.62,4.11,3.98,6.85,3.89,3.73-.15,7.34-3.13,10.15-8.39,3.22-6.01,7.69-15.36,9.75-22.05,.3,.18,.61,.38,.89,.55,1.34,.84,3.01,1.88,5.07,2.69,1.38,.54,1.72,1.05,2.46,2.16,1.8,2.69,3.86,5.04,10.85,6.53,6.42,1.38,11.42,1.71,14.92-1.12,2.87-2.32,4.16-6.23,4.16-12.67,0-1.41-.01-2.61-.02-3.65,0-1.01-.02-1.98,0-2.75,.57,0,1.24-.03,2.02-.09,8.8-.77,11.27-12.78,12.75-19.96,.83-4.02,2.8-5.31,6.06-7.44,2.19-1.44,4.68-3.07,7.19-5.79,5.97-6.46,4.41-11.05,3.17-14.73-.34-1.02-.67-1.97-.88-3.02-.34-1.7,.08-3.56,1.15-5.11,1.08-1.57,2.72-2.64,4.49-2.93,1.83-.31,2.43,.31,3.89,2.12,.78,.97,1.66,2.07,2.94,2.81,1.61,.93,3.77,1.01,6.43,.22,3.7-1.1,8.59-4.08,10.56-8,.83-1.64,3.12-3.1,5.77-4.79,2.41-1.53,5.14-3.27,7.74-5.72,2.79-2.63,3.3-5.38,3.24-7.22-.14-4.29-3.4-7.42-4.22-8.13-5.44-5.51-3.56-8.05-1.37-10.98,.26-.35,.5-.68,.73-1.02,4.79,2.06,13.87,4.16,25.21-1.75,2.96-1.54,5.27-1.93,6.87-1.15,3.22,1.57,4.4,8.02,4.97,11.12,.17,.94,.31,1.68,.47,2.29,1.04,3.82,10.1,18.46,18.53,18.46,3.13,0,5.77-1.4,8.1-2.63,3.46-1.83,4.52-2.15,5.93-1.1,1.5,1.12,2.53,2.27,3.54,3.37,2.43,2.69,4.95,5.47,11.74,5.47,4.19,0,5.94-.87,7.64-1.92,.97-.6,1.81-1.11,6.11-.82,4.43,.31,8.25,.34,11.61,.38,4.14,.04,7.71,.08,10.9,.61,5.13,.85,10.39-3.32,15.48-7.37,2.46-1.95,5.25-4.17,6.84-4.67,1.38-.43,2.1-.16,2.52,.08,.93,.53,2.71,2.33,4.17,8.44,1.65,6.89,7.33,6.9,10.72,6.89,3.44-.02,5.46,.11,7.22,2.49,3.43,4.64,6.51,6.51,8.89,7.14v26.9l46.62,52.92,.18,.21,3.15,2.55-109.54,100.5Zm-430.12,8.13c.05,.15,.09,.3,.11,.47-.03-.16-.06-.32-.11-.47Zm807.79-366.39c7.1,2.03,15.24,4.96,21.73,11.34,3.88,3.81,3.8,4.94,3.71,6.24-.07,.99-.17,2.35,.38,4.04,.33,1.33-1.24,6.14-2.18,9.02-.69,2.11-1.35,4.13-1.79,5.94-.9-.69-1.91-1.37-3.04-1.82-.26-.1-.57-.22-.93-.36-4.19-1.62-15.31-5.92-24.04-15-5.45-5.66-8.99-8.4-12.14-6.63-1.61,.91-2.35,2.79-1.97,4.88v11.24c0,3.53-.8,6.43-1.72,9.79-1.07,3.88-2.28,8.29-2.28,14.21,0,7.95-9.57,14.63-15.91,19.05-.52,.36-1.02,.71-1.49,1.04-2.03,1.43-19.8,14.3-19.8,25.51,0,2.93-2,6.69-3.93,10.34-2.4,4.52-4.87,9.19-4.87,14.07,0,.98-.23,2.42-2.18,3.63-2.84,1.75-6.94,1.64-8.23,1-.38-.19-.85-.43-1.39-.7-14.87-7.55-19.36-8.72-21.85-5.71-2.41,2.92-12.19,33.22-9.39,41.63,1.64,4.91-11.04,30.3-17.42,38.05-3.41,4.14-4.31,12.84-5.27,22.05-.49,4.77-1.23,11.86-2.3,13.77-1.83,.46-3.52,1.04-5.16,1.6-3.04,1.04-6.19,2.12-10.67,2.6-5,.53-7.88,3.53-10.43,6.18-2.24,2.33-4.36,4.54-8.06,5.51-5.47,1.43-10.56,5.18-14.66,8.19-1.87,1.38-4.37,3.22-5.5,3.63-.39-.25-1-.76-1.44-1.12-3.22-2.65-9.93-8.18-19.24,2.24-6.93,7.76-13.37,8.81-15.42,8.95l-32.29-19.51-5.53-4.48-44.78-50.83v-25.48c2.76-1.09,5.58-2.1,6.48-2.27h.09c7.17,.37,11.92-6.18,14.94-20.66,1.89-9.08,2.74-16.56,3.43-22.57,.72-6.35,1.3-11.36,2.7-13.64,.92-1.49,4.05-1.6,7.37-1.71,3.49-.12,7.45-.25,10.75-2.09,5.66-3.15,3.97-10.17,2.61-15.82-.76-3.17-1.63-6.77-1.05-8.71,.5-1.68,1.3-2.22,3.51-3.55,2.92-1.75,6.91-4.15,10.26-11.27,3.37-7.16,6.68-5.86,10.86-4.22,.61,.24,1.18,.46,1.7,.63,2.94,.98,5.89,.12,19.57-20.05,6.61-9.74,12.8-19.78,12.87-19.88l.42-.67,5.87-70.97c1.93,11.64,3.53,21.74,3.55,23.32,0,1.66,.37,4.14,.88,7.58,.8,5.39,1.9,12.78,1.9,19.87,0,4.68,1.25,8.29,3.72,10.74,3.6,3.57,8.61,3.54,11.3,3.51h.52c2.07,0,13.99-1.11,25.52-2.69,23.41-3.21,25.52-5.52,26.53-7.08,1.42-.96,7.56-1.07,13.92-.34-.02,1.11,0,2.5,.12,4.17,.16,2.4,1.2,6,2.4,10.16,1.37,4.75,2.92,10.14,2.92,13.13,0,14.13,6.94,19.14,11.04,19.88,2.66,.48,4.4-.37,5.4-1.16,2.53-2.02,2.69-5.51,2.8-7.82,0-.13,.01-.27,.02-.41,2.15-1.56,6.4-5.64,17.06-16.23,4.45-4.42,9.99-9.92,11.09-10.74,1.75-1.08,2.9-3.18,4.25-5.61,.68-1.24,1.91-3.46,2.66-4.11,.31,.14,.86,.49,1.31,.78,2.04,1.3,5.13,3.26,11.13,4.52,11.96,2.52,14.96-4.15,19.09-13.39l.63-1.42c2.96-6.57,9.33-6.2,19.33-3.34Z"/><path class="e" d="M4317.34,623.21l-.05,.32c-.31,1.83-2.86,3.6-5.33,5.32-2.76,1.92-5.62,3.9-6.96,6.89-.75,1.68-5.88,1.36-9.62,1.14-1.57-.1-3.2-.19-4.73-.19-4.18,0-7.64,2.09-10.98,4.11-2.99,1.81-5.82,3.52-9.22,3.95-7.2,.91-40.44,4.89-48.04,5.79-.99-1.27-2.72-4.41-2.72-10.91,0-4.91,.88-6.12,1.35-6.77,1.88-2.57,1.28-4.57-.5-7.36-1.55-2.43-1.52-4.16-1.19-9.79,.15-2.58,.34-5.78,.34-9.93,0-1.89,.01-3.41,.02-4.64,.04-5.66,.04-6.25-1.33-9.3-.31-.7-.7-1.57-1.21-2.84-2.13-5.33-2.12-8.28-2.07-16.17,0-1.25,.02-2.6,.02-4.09,0-5.64,.96-7.01,1.97-8.45,.88-1.25,1.98-2.81,2.35-5.78,.67-5.37,1.58-9.84,3.35-16.48,.38-1.43,.72-2.59,1.02-3.62,1.18-4.05,1.84-6.29,1.84-13.25,0-5.58-2.03-8.09-3.66-10.11-1.16-1.44-2-2.48-2.31-4.94-.52-4.13-.22-4.55,1.7-7.25,.78-1.09,1.75-2.46,2.88-4.35,5.92-9.86,10.57-15.77,13.82-17.55,7.38-4.04,6.16-11.92,5.36-17.13-.58-3.76-2.91-6.31-4.79-8.35-1.94-2.11-2.7-3.09-2.49-4.29,.33-1.87,.76-3.47,1.21-5.16,.82-3.08,1.68-6.26,1.99-11.21,.33-5.24-2.69-21.45-4.83-32.05-2.16,1.22-4.16,2.43-6.03,3.63,2.3,11.65,4.48,24.28,4.24,28-.27,4.3-1,7.02-1.77,9.91-.47,1.76-.96,3.57-1.34,5.73-.8,4.54,1.94,7.53,4.14,9.92,1.53,1.67,2.85,3.11,3.12,4.88,1.03,6.67,.6,8.89-2,10.31-4.48,2.45-9.52,8.61-16.33,19.95-1.01,1.68-1.86,2.87-2.6,3.93-2.51,3.53-3.68,5.51-2.87,11.91,.54,4.34,2.31,6.52,3.73,8.28,1.32,1.63,2.19,2.71,2.19,5.94,0,6.01-.46,7.59-1.57,11.39-.31,1.07-.67,2.28-1.06,3.77-1.86,6.96-2.81,11.67-3.52,17.37-.17,1.33-.51,1.81-1.19,2.79-1.74,2.47-3.18,5.1-3.18,12.26,0,1.47,0,2.82-.02,4.05-.05,8.08-.07,12.14,2.54,18.68,.56,1.4,1,2.38,1.32,3.09q.78,1.74,.75,6.54c0,1.25-.02,2.78-.02,4.69,0,3.95-.18,7.05-.33,9.54-.34,5.86-.55,9.39,2.22,13.73,.13,.2,.23,.37,.32,.51-1.19,1.84-2.21,4.49-2.21,10.06s1.14,9.66,2.46,12.32c-10.9,2.79-34.62,9.55-44.62,12.41-.32-.62-.69-1.14-1.09-1.65-.59-.76-1.32-1.71-1.32-7.71,0-9.23-2.24-13.81-4.04-17.49-.93-1.9-1.67-3.4-2.02-5.33-.31-1.71-.5-3.54-.69-5.47-.53-5.26-1.13-11.21-4.66-16.26-2.04-2.91-1.81-7.27-1.61-11.12,.14-2.61,.26-5.07-.32-7.11-1.23-4.31-6.16-4.75-10.13-5.1-1.88-.17-5.38-.48-5.98-1.32-.8-1.12-.23-4.91,.22-7.96,.61-4.11,1.31-8.76,.31-13.08-1.04-4.52-3.55-8.19-5.76-11.43-1.83-2.68-3.56-5.22-3.78-7.38-.11-1.12,.09-3.68,.3-6.39,.82-10.49,2.21-28.04-6.34-39.14-6.54-8.5-9.69-32.7-10.83-47.23-2.17,.55-4.34,1.1-6.51,1.67,1.11,13.57,4.21,39.36,12.09,49.6,6.99,9.08,5.73,25.04,4.98,34.58-.27,3.4-.46,5.86-.29,7.57,.38,3.84,2.68,7.2,4.9,10.45,1.97,2.89,4.01,5.88,4.78,9.18,.71,3.1,.14,6.92-.41,10.61-.73,4.88-1.42,9.49,.94,12.79,2.37,3.32,6.84,3.72,10.79,4.07,1.37,.12,3.57,.32,4.42,.67,.18,1.06,.09,2.86,0,4.6-.24,4.67-.55,10.48,2.8,15.26,2.54,3.63,3,8.24,3.49,13.12,.2,1.98,.41,4.02,.76,5.99,.51,2.83,1.57,4.98,2.58,7.05,1.66,3.38,3.37,6.88,3.37,14.58s1.17,9.78,2.71,11.77c.5,.65,.9,1.16,.9,4.45v65.68l1.02,.98s4.89,4.85,4.89,9.88,2.47,17.65,4.27,26.9c.7,3.57,1.3,6.66,1.53,8.16,.17,1.12,.29,2.89,.43,4.95,.5,7.34,1.27,18.44,5.91,24.87,3.16,4.38,1.37,7.23-1.81,11.51-.39,.52-.76,1.03-1.1,1.51-2.8,4.01-.76,11.89,1.21,17.33,1.47-1.22,3.35-2.72,5.55-4.4-1.31-4.26-1.93-8.08-1.32-9.12,.31-.44,.65-.89,.99-1.36,3-4.04,8.02-10.81,1.86-19.34-3.54-4.9-4.22-14.86-4.67-21.44-.15-2.21-.28-4.11-.5-5.51-.25-1.63-.83-4.62-1.57-8.42-1.65-8.48-4.15-21.3-4.15-25.64,0-2.36-.6-4.6-1.44-6.58l112.84-24.89,16.5,61.45c2.09-.96,4.12-1.94,6.07-2.94l-16.12-60.05c3.26-.96,7.82-2.72,10.06-5.48,1.49-1.84,8.19-3.06,10.05-2.2,.59,.57,1.14,1.03,1.64,1.44,1.45,1.19,2.05,1.68,2.29,4.17,.4,4.12,2.61,5.69,3.8,6.53,.12,.09,.27,.19,.38,.28,0,.04,0,.08,0,.13,0,4.05,3.48,6.87,5.79,8.74,.2,.16,.43,.35,.64,.53,0,.06-.01,.12-.02,.19-.24,2.8-.37,5.08,.34,6.78,.3,.73,.84,2,9.32,8.25,1.28-1.92,2.59-3.72,3.89-5.38-3.18-2.36-6.08-4.62-7.1-5.63-.07-.88,.08-2.65,.15-3.46,.06-.75,.11-1.34,.11-1.82,0-2.03-1.47-3.23-3.17-4.6-.91-.74-3.33-2.7-3.33-3.59,0-3.56-2.07-5.03-3.18-5.81-.78-.56-.93-.66-1.03-1.76-.51-5.22-2.82-7.12-4.67-8.65-.46-.37-.89-.73-1.29-1.13-1.53-1.53-4.08-2.21-7.59-2.03-4.28,.22-9.71,1.82-12.18,4.87-1.25,1.54-5.76,3.11-8.87,3.84l-118.95,26.24c-.31-.39-.6-.73-.85-1.01v-62.96c0-.1,0-.2,0-.3,18.76-5.37,46.87-13.27,49.55-13.61h0c.44-.05,41.51-4.96,49.63-5.98,4.8-.6,8.53-2.86,11.82-4.85,2.8-1.69,5.22-3.15,7.55-3.15,1.34,0,2.79,.09,4.33,.18,5.98,.36,13.43,.82,16.06-5.03,.59-1.31,2.68-2.77,4.7-4.17,3.43-2.38,7.33-5.09,8.09-9.68l.05-.32c.89-5.34,1.02-6.16,4.7-8.92,1.77-1.32,5.14-2.36,8.43-3.06-.13-2.22-.05-4.54,.04-6.78-3.99,.74-9.23,2.11-12.45,4.53-5.8,4.35-6.29,7.28-7.26,13.13Z"/><path class="e" d="M4251.12,389.21l68.96,190.86c.26-.62,.75-1.01,1.52-1.01,2.28,0,3.56-.49,5.03-.39l-69.99-193.73c-1.64,1.42-3.47,2.84-5.51,4.26Z"/></g></g><g><path class="d" d="M935.55,1842.75l-30.55,493.49s16.42,9.43,23.22,7.66c6.8-1.76,2.52-3.78,5.54-3.78s6.8,3.53,9.82,5.54c3.02,2.02,3.27,2.02,8.56,2.02s10.33-.25,12.59,0c2.27,.25,4.28-3.78,7.56,0,3.27,3.78,4.28,6.3,4.53,11.08,.25,4.79,3.53,8.82,3.53,13.35s-.76,6.55,2.02,9.07c2.77,2.52,30.48,30.23,30.48,30.23,0,0,11.59-8.06,11.34-12.59s2.77-12.85,4.03-12.85,4.28-5.54,5.29-6.3c1.01-.76,13.35-5.79,16.88-4.79,3.53,1.01,17.13,8.82,17.13,8.82,0,0,45.09,56.17,55.42,63.22,10.33,7.05,12.09,34.26,13.1,35.52,1.01,1.26,8.06,13.1,11.84,14.11,3.78,1.01,25.44,3.27,25.44,3.27,0,0,9.13,1.62,8.52,10.96-.61,9.33,2.84,14.21,2.03,23.34,0,0,29.39,28.15,30.85,33.19,1.46,5.04,1.3,9.76,3.74,12.04,2.44,2.28,5.86,7.16,2.6,7.97s-8.3,3.9-8.78,6.34-2.44,4.39-5.53,4.39-5.37,.81-7.65,0c-2.28-.81-.65-4.55-2.6-7.65-1.95-3.09-2.11-6.67-2.11-9.92s.33-10.25-5.37-14.64c-5.69-4.39-6.3-12.96-21.4-.04-15.1,12.91-4.56-6.08-4.56-6.08,0,0,5.6-5.03,4.94-7.03-.66-1.99-7.5-15.57-10.07-17.19-2.56-1.61-7.03-9.69-6.84-14.72,.19-5.03,1.04-12.63,1.52-13.1s-20.61-3.62-23.76-3.62-13.13-4.44-17.02-5.92c-3.88-1.48,.18-14.06-2.77-16.28-2.96-2.22-7.77-23.31-12.76-24.42-4.99-1.11-26.08-31.82-27.56-34.22-1.48-2.4-10.17-22.75-11.84-26.45-1.66-3.7-4.99-6.66-6.84,0-1.85,6.66-.74,7.4,.18,10.73,.93,3.33,2.22,3.51,2.96,8.88,.74,5.36,.19,3.51,.74,8.88s3.51,9.43,4.07,10.54,3.75,4.27,3.75,5.68,2.05,3.34,4.1,3.67c2.05,.32-14.82-3.26-17.57-2.61-2.74,.65-12.27-1.57-19.84,1.7-7.57,3.26-10.7-1.57-14.36-1.7-3.65-.13-5.74-5.35-6.53-5.74-.78-.39-18.67-19.58-18.67-19.58,0,0-1.44-9.79-1.44-11.62s-11.62-4.7-15.01-6.4c-3.39-1.7-15.53-5.35-18.27-6.27-2.74-.91-11.62-11.62-14.23-12.4-2.61-.78-11.49-6.92-13.31-9.01-1.83-2.09-3.92-11.23-7.96-11.23s-17.36-3.65-19.19-3.65-9.53-5.87-13.97-5.87-11.36-3.79-17.88-3.39c-6.53,.39-3.13-10.57-11.75-9.92-8.61,.65-13.57,3-23.76,4.18-10.18,1.17-17.88-4.31-19.32-13.18-1.44-8.88-11.62-3.52-14.62-5.74-3-2.22-.91-12.01-1.44-13.44-.52-1.44-10.05-5.61-14.62-6.92-4.57-1.31-21.54,2.09-20.1-2.74,1.44-4.83,11.88-4.57,18.01-7.44,6.13-2.87,7.96-.78,11.36-1.7,3.39-.91,4.96-5.22,2.22-7.96s-14.23-4.05-17.49-.52c-3.26,3.52-8.48,6-9.27,2.74-.78-3.26,4.57-5.35,5.74-9.92s-2.22-7.18-15.4,2.35c-13.18,9.53-9.4,6-10.96,2.48-1.57-3.52-5.09,9.27-8.75,7.18-3.65-2.09-5.22-11.09-1.96-15.53,3.26-4.44-17.88,6.27-19.84,13.57-1.96,7.31,4.96,11.23,7.83,11.88,2.87,.65,5.35,3.13,7.18,5.61,1.83,2.48,4.57,8.48,.39,8.61-4.18,.13-12.14-4.96-12.14-.78s1.04,4.57,1.04,7.7-.65,5.61-3.65,6.66c-3,1.04-2.61,2.09-4.05,3.52-1.44,1.44-4.18,3.13-4.18,3.13,0,0-12.79,2.48-15.53-5.87-2.74-8.35-8.09-1.04-10.31,2.22-2.22,3.26-7.7,9.01-8.35,7.96-.65-1.04-3-1.44-6.66-1.44s-4.31,1.83-5.87,3.65c-1.57,1.83-5.09,4.18-5.09,3.13s2.61-.65,2.61-4.96,1.44-3.26,0-5.61c-1.44-2.35-4.05-3.26-6-2.61s-3.92,.26-5.09,3c-1.17,2.74-1.17,2.48-1.17,6s-.91,10.31-.91,10.31c0,0-5.61,4.18-6.66,6.79-1.04,2.61-1.83,6.53-6.92,3s-10.18-5.22-12.92-5.09c-2.74,.13-14.88,1.04-16.05-1.7-1.17-2.74,.26-10.44,7.18-10.44s15.01-2.61,18.67-4.83c3.65-2.22,9.53,1.31,9.4-6.4-.13-7.7-4.31-14.1-11.49-9.01-7.18,5.09-9.27,13.84-12.01,10.7-2.74-3.13-4.05-14.23-1.57-16.97,2.48-2.74,16.58-16.97,17.36-21.01,.78-4.05,3.13-6.13,3.13-11.62s7.44-7.57,12.79-5.87c5.35,1.7,5.48-.39,6.13-3.92,.65-3.52,3.39-3.52,6-3.52s6.27-3,6.92,.39c.65,3.39,2.22,2.48,4.57,4.57,2.35,2.09,5.87,.39,9.53,2.09,3.65,1.7,7.57,5.74,9.27,9.92,1.7,4.18,6,7.83,7.83,7.7,1.83-.13,5.09,1.57,4.31-3.13-.78-4.7-1.57-12.14-7.05-15.14s-5.09-9.92-21.93-9.79c0,0-1.3-3.49,2.35-4,3.65-.51,13.06-9.67,16.79-10.52,3.73-.85,5.77-5.09,.42-6.36-5.34-1.27-10.6-1.27-12.98,3.82-2.37,5.09-9.67,8.65-10.6,3.82-.93-4.83,3.73-7.63,.93-7.63s-6.45,1.27-10.26,4.66c-3.82,3.39-6.7,6.53-13.49,8.65-6.79,2.12-7.72,8.74-12.3,10.09s-8.91-3.05-12.72-1.27c-3.82,1.78-5.94,13.15-5.94,13.15,0,0-15.78,9.75-19.3,22.3s-6.91,12.55-6.91,12.55c0,0-17.07,3.53-19.04,.99-1.97-2.54-.56-3.39-6.35-3.24-5.78,.14-9.17-.71-10.01,5.64-.85,6.35-6.07,10.58-8.46,11.28-2.4,.71,.14,5.64,0,9.59-.14,3.95,5.5,13.12,5.5,13.12l1.83,3.53,15.09,.99s.56,4.09-.85,4.51c-1.41,.42-2.4,1.69-6.35,1.69s-2.54,3.53-4.8,4.23c-2.26,.71-2.12,3.1-2.12,6.07s-13.82,4.23-14.39,3.95c-.56-.28,1.13,4.8-1.27,4.8s-14.25,.14-15.66,.71c-1.41,.56-6.21,6.49-5.92,9.31,.28,2.82,1.13,11.14-2.12,10.86-3.24-.28-3.39-9.45-6.21-9.45s-6.63,2.68-7.19,5.64c-.56,2.96-6.07,9.31-6.77,9.31s-1.27-1.27-3.1-6.07c-1.83-4.8-17.77-8.32-18.48-4.09-.71,4.23-3.24,7.34,0,8.18,3.24,.85,9.31-.71,10.01,1.13,.71,1.83,.71,5.78,.56,7.76s3.53,7.62-.56,7.48c-4.09-.14-2.12-3.1-7.62-5.36-5.5-2.26-6.07-2.12-11.28,0-5.22,2.12-19.32,8.89-20.74,11.28-1.41,2.4-4.51,6.77-5.36,6.77s-4.23,1.55-5.08,3.53c-.85,1.97-2.68,4.65-4.37,3.1-1.69-1.55-.42-3.67-2.68-4.65-2.26-.99-5.22-2.68-7.05,.56-1.83,3.24-1.83,4.23-1.83,6.77s-4.23,4.65-6.77,2.4c-2.54-2.26,1.69-3.53,0-8.18s-9.73-4.94-10.58,.85c-.85,5.78-8.46,2.68-11,2.82-2.54,.14-3.53,9.31-3.53,9.31,0,0,2.26,1.55,5.36,3.67,3.1,2.12,7.48,2.96,4.09,4.51-3.39,1.55-6.49,3.1-11,3.1s-27.89,9.35-32.84,4.09c-4.95-5.26-3.71,6.5-6.81,12.07-3.09,5.57-5.26-.62-8.36-8.67-3.1-8.05-13.93-2.17-21.05-.31-7.12,1.86-5.26,4.02-17.33,3.4-12.07-.62-20.74,1.55-18.26-4.02,2.48-5.57,6.81-22.59-4.95-8.05-11.76,14.55-21.36,19.81-21.36-1.55s26-16.71,29.71-14.86c3.71,1.86,5.88,6.81,11.45,3.4,5.57-3.4-2.79-11.76,6.19-12.07,8.98-.31,8.05,6.81,19.5,6.81s24.14-11.76,31.26-14.86c7.12-3.09,15.17-2.17,19.81-2.17s33.12-29.09,36.21-29.09,18.88-30.02,33.12-26.62c14.24,3.4,2.17-21.66,17.64-24.45,15.47-2.79,22.59-25.07,22.59-25.07,0,0-25.69,18.57-48.9,22.9-23.21,4.33-7.43-20.12-9.28-20.12s-3.09,28.78-8.67,29.4c-5.57,.62-6.81-21.36-9.9-27.85-3.09-6.5-19.81-22.59-26.62-28.47-6.81-5.88-20.74-2.17-26.62,5.88-5.88,8.05-28.47,8.05-29.4,2.79s21.97-7.43,21.97-34.66,14.86-23.83,14.86-23.83c0,0,6.5-20.74-24.45-8.36-30.95,12.38-31.68-25.49-18.7-29.91,12.97-4.42-7.18-22.91-19.05-18.22-11.87,4.69-23.19-22.91,8.28-11.87,31.47,11.04-9.35-50.12-13.09-53.47-3.74-3.34-11.41-12.79-9.05-14.56,2.36-1.77,10.23-10.62,14.36-11.8,4.13-1.18,6.49,.59,10.62-.98s-.2-7.08,6.69-10.03c6.88-2.95,8.85,7.48,11.02,8.85,2.16,1.38,5.11,3.93,5.11,.2s-5.11-14.16,1.18-15.74c6.29-1.57,8.66-3.74,8.66,.98s-2.56,10.82,.79,11.41c3.34,.59,7.87,5.9,7.87,0s.39-13.38,6.29-11.41c5.9,1.97,17.51,24.2,17.51,24.2,0,0,6.69,9.84,6.88,18.1,.2,8.26,5.9,10.03,6.1,8.26,.2-1.77-.2-46.23,.2-52.13,.39-5.9,12.59-13.57,18.29-14.95,5.7-1.38,20.06,5.51,23.21,5.51s10.43,3.74,14.36,.39c3.93-3.34,14.75-2.16,16.72-5.31,1.97-3.15,14.95-12.39,9.64-14.56-5.31-2.16-10.23-8.07-5.11-11.61,5.11-3.54,7.08-3.15,5.31-10.43-1.77-7.28-2.16-.59-7.08-9.64-4.92-9.05,11.61-12.59,15.54-15.34,3.93-2.75,7.28-6.69,5.31-10.43-1.97-3.74,0-12.39-16.92-.79-16.92,11.61-25.18,19.87-29.31,19.87s-9.84-3.15-9.05-9.05c.79-5.9-21.31-5.65-24.08-10.43-2.76-4.79-26.88,.37-36.63-23.01-9.76-23.38-3.5-33.87-3.5-33.87,0,0,18.78,.37,22.09,2.21,3.31,1.84-32.4-26.14-34.06-31.66-1.66-5.52,.37-10.49,4.05-12.15,3.68-1.66,36.27-2.76,39.76-4.05s67.74-2.39,67.74-2.39c0,0-4.97,13.25-7.73,18.04-2.76,4.79-4.79,7.92-1.66,10.12,3.13,2.21,7.36,6.81,11.23,7.55,3.87,.74,11.41,2.39,13.07,8.47,1.66,6.07,1.66,9.02,5.71,9.39,4.05,.37,1.29,2.58,5.15,1.29s7.92-4.6,9.02-6.26c1.1-1.66,2.58-7.55,3.87-5.89s.55,10.86,.74,19.15c.18,8.28,.55,11.78,3.68,8.1,3.13-3.68,5.71,1.47,5.71-13.44s.92-16.02-6.81-18.04c-7.73-2.02-13.99-.92-15.28-12.33-1.29-11.41,2.76-25.59,16.75-13.99,13.99,11.6,15.28-9.76,4.79-13.07-10.49-3.31-20.62-18.78-23.56-8.84-2.95,9.94-16.02-2.03-14.17-9.57,1.84-7.55,7.36-17.67,5.52-22.46-1.84-4.79-31.11-40.13-31.11-40.13,0,0,.18-12.33,7.73-12.52,7.55-.18,2.02-21.91,2.02-21.91,0,0,12.52-16.38,19.88,0,7.36,16.38,12.33,.18,14.73-.55,2.39-.74,4.05,9.02,5.71,11.23,1.66,2.21,23.56-13.44,23.56-13.44l19.7-27.43,48.42-12.89,24.48-2.76,14.54-11.6s7-3.5,8.84,9.2c1.84,12.7,8.65,1.66,13.25-.18s26.51-8.28,27.06-8.47c.55-.18,8.65-12.66,11.23-.99,2.58,11.67,9.02,9.65,9.02,9.65,0,0-7.55,9.76-8.47,12.7-.92,2.95,11.23-4.6,13.81-4.79,2.58-.18,12.89-7.18,10.31,7.36-2.58,14.54-9.57,9.57-9.2,14.91,.37,5.34,5.89,7.55,7.92,7.55s36.63-.18,36.63-.18c0,0,2.95,7.18-.92,10.68s15.65,11.45,16.51,12.73c.85,1.28,5.16,3.37,25.25-3.02,20.08-6.39,21.61,19.78,21.61,23.43s13.39-5.48,13.39,9.43,30.74,1.83,30.74,1.83c0,0,10.04,8.83,17.35,9.13,7.3,.3,26.17-15.52,31.95-16.74,5.78-1.22,8.83,7.91,3.35,15.82-5.48,7.91,10.96,5.78,13.39,6.7,2.43,.91,16.39,9.69,17.24,12.52Z"/><path class="d" d="M264.39,2168.74s4.51,14.38,7.3,18.03c2.79,3.65,10.95,7.73,4.94,8.58-6.01,.86-21.25,6.65-24.25,7.08s-16.1-.64-18.03-11.16c-1.93-10.52-10.52-10.3-10.73-15.45-.21-5.15,18.25-2.79,27.58-8.8,9.33-6.01,12.76-3.43,13.19,1.72Z"/><path class="d" d="M209.38,1967.83s9.74-26.57,21.26-26.57,1.77,18.6,13.29,18.6,15.94,2.66,16.83,16.83c.89,14.17,16.83,24.8,10.63,30.11-6.2,5.31-12.03,2.66-20.19-3.54-8.15-6.2-1.41-17.71-10.1-19.49-8.69-1.77-31.71-15.94-31.71-15.94Z"/><path class="d" d="M76.67,2270.3s33.64-17.89,14.31-22.9c-19.32-5.01-31.49,1.43-28.63,7.16,2.86,5.73,14.31,15.74,14.31,15.74Z"/><path class="d" d="M223.61,2457.41s-1.51,19.38,7.67,19.72c9.18,.34,12.92-1.02,12.58-9.86-.34-8.84-11.9-14.62-21.42-9.86"/><path class="d" d="M155.09,2470s7.63,9.58,8.21,14.08,7.04,7.63,8.02,4.5c.98-3.13,6.65-6.45,7.24-10.17,.59-3.72-3.13-7.04,0-8.41,3.13-1.37,8.61-5.09,8.61,0s2.93,9,6.06,9.98c3.13,.98,3.91,1.76,9.58,1.76s8.41-1.37,9-6.26c.59-4.89,1.17-9.19,0-13.69-1.17-4.5-4.11-10.03-10.95-6.09-6.85,3.94-11.45,3.16-17.07,3.16s-6.79-1.76-6.79,2.93-3.13,10.17-5.09,7.04c-1.96-3.13-1.76-4.89-5.48-5.87-3.72-.98-4.3-4.3-6.85,1.17-2.54,5.48-3.52,.98-4.5,5.87Z"/><path class="d" d="M0,2507.96s44.88-26.07,50.25-22.84c5.37,3.22-9.67,13.71-26.34,24.99-16.66,11.29-23.92-2.15-23.92-2.15Z"/><path class="d" d="M75.85,2487.22s1.83-13.77,7.32-15.12c5.49-1.35,14.18,2.29,14.18,7.56s4.58,.7,4.58,7.56-10.98,3.98-13.04,12.51c-2.06,8.53-3.43,7.62-10.75,7.62s-21.05,7.78-21.05-2.75,10.07-1.37,15.56-6.86,3.2-10.52,3.2-10.52Z"/><path class="d" d="M109.31,2480.34s13.04-9.05,13.84,0c.16,1.84,.46,2.71,.85,2.94,1.53,.89,4.54-8.05,6.87-6.96,2.93,1.36,10.12,4.97,6.92,7.02-3.19,2.06-7.45,9.37-10.38,6.51-2.93-2.86-4.26,.99-10.12,0-5.86-.99-9.05-2.86-7.99-9.51Z"/><path class="d" d="M71.57,2310.57s7.26-9.67,14.51,0c7.26,9.67,10.28,12.7,0,11.49-10.28-1.21-13.91,1.81-14.51-11.49Z"/><path class="d" d="M499.54,2433.79s14.41-27.88,27.88-13.01c13.48,14.87,8.36,12.08,11.15-.93s-13.01-3.72-12.55-9.76c.46-6.04,14.41-4.65,20.91,0,6.51,4.65,18.12-1.39,19.52,2.32,1.39,3.72-3.72,4.8,0,7.51s4.18-.08,10.22,3.17c6.04,3.25,5.11-1.86,6.04,3.25,.93,5.11-2.32,5.11-5.58,9.76s-5.58,12.55-9.29,10.22-6.51-10.69-12.55-10.69,2.79,1.86,.93,8.83-9.6,16.27-15.02,11.62c-5.42-4.65-8.68-9.76-11-5.58-2.32,4.18-5.11,11.15-11.62,11.15s-6.04-11.15-8.36-13.01c-2.32-1.86,6.51,4.18-2.79,3.72-9.29-.46-10.69-5.58-10.22-10.69,.46-5.11,2.32-7.9,2.32-7.9Z"/><path class="d" d="M456.33,2492.35s4.18,6.51,2.79,9.76c-1.39,3.25-1.86,7.9-9.29,7.9s-12.55-.93-8.36-8.83c4.18-7.9,14.87-8.83,14.87-8.83Z"/><path class="d" d="M556,2394.95l4.85-6.07s4.04-6.07,6.87-5.66c2.83,.4,16.58-6.1,15.17-.02-1.42,6.09,8.69,8.92,3.03,11.75-5.66,2.83-15.77,6.07-19.01,6.47-3.24,.4-10.92,1.62-10.92-2.43v-4.04Z"/><path class="d" d="M1052.26,2453.87s-9.83-2.22-16.18,5.08c-6.34,7.3-5.71,7.3-2.54,12.69,3.17,5.39,11.74,10.47,12.05,17.13,.32,6.66,5.71,7.93,2.54,12.05-3.17,4.12-1.27-3.49,3.17-4.12s7.61-8.88,11.42-8.56c3.81,.32,9.2-3.17,3.81-8.25-5.39-5.08-13.64-6.03-13.01-13.01,.63-6.98,6.98-6.34,12.05-6.66,5.08-.32-2.86-10.79-13.32-6.34Z"/><path class="d" d="M1075.2,2452.78s-2.13,28.08,0,38.18,11.03,31.28,16.74,7.69c5.71-23.59,10.14-12.22,10.65-21.24,.51-9.02-17.11-21.8-27.39-24.63Z"/><path class="d" d="M1044.1,2513.3c4.7-1.21,6.14-9.93,10.44-11.26,4.3-1.33,15.66-1.33,16.89,3.89,1.23,5.22,2.15,9.21,6.14,14.13,3.99,4.91,4.3,2.76,4.3,8.29s6.76,17.81,3.38,20.57c-3.38,2.76-5.72,9.52-11-3.07-5.28-12.59-3.43-16.3-16.02-18.59-12.59-2.29-15.74-5.02-14.12-11.2,0,0-1.5-2.38,0-2.76Z"/><path class="d" d="M1090.5,2519.82s-5.49,20.13,0,21.59c5.49,1.46,5.86-2.93,8.78-6.95,2.93-4.03,6.95-2.2,6.95,4.76s1.1,7.69,1.1,13.18,2.2-2.56,4.03,9.52c1.83,12.08-.73,4.39,3.66,18.3,4.39,13.91,6.95,7.69,9.52,11.71s6.59-1.1,9.88,7.32c3.29,8.42,6.95,5.86,8.78,10.25,1.83,4.39,4.76-2.93,9.52,7.32,4.76,10.25,9.52,12.44,10.25,11.35,.73-1.1,8.42,1.46,4.39-12.08-4.03-13.54,2.56-16.1-7.32-20.13-9.88-4.03-2.93-9.15-9.88-10.98-6.95-1.83-6.95-1.1-8.05-10.98-1.1-9.88-4.76-9.88-10.98-14.64-6.22-4.76-12.81-6.59-13.18-11.35s-10.61-9.52-5.49-9.88,5.49-6.36,9.52-10.87c4.03-4.51,8.42-.85,4.39-7.44s-5.49-9.52-14.27-8.42c-8.78,1.1-15.74,3.66-16.84,4.03-1.1,.37-3.66,2.93-3.66,2.93l-1.1,1.46Z"/><path class="d" d="M1169.73,2572.83s-1.27,17.45-.63,23.48c.63,6.03,.32,12.69,5.39,13.96,5.08,1.27,8.25,10.47,8.25,1.27s6.34-6.98,6.03-18.08c-.32-11.1-2.54-19.35-6.66-20.62-4.12-1.27-6.34-4.44-12.37,0Z"/></g><g><path class="d" d="M1109.92,2149.64s-21.76,19.24-21.49,23.89,4.64,16.59,10.75,11.28c6.1-5.31,4.11-19.24,10.75-19.24s13.93-13.93,0-15.92Z"/><path class="d" d="M1152.49,2138.32s6.14-14.82,16.04-14.82,37.33-5.19,40.29,0c2.96,5.19,9.64-2.31,9.64,6.26s2.96,15.98-3.71,26.35c-6.67,10.38-5.93,9.48-22.24,11.78-16.31,2.3-21.5-7.34-29.65-11.04-8.15-3.71-14.82-2.77-14.82-12.13s4.45-6.4,4.45-6.4Z"/><path class="d" d="M1356.09,2215.68s6.02,13.25,13.25,20.48c7.23,7.23,3.61,22.89,8.43,21.68,4.82-1.2,15.66-9.64,15.66-9.64,0,0,14.46,6.15,19.27,9.7,4.82,3.55,24.09,12.11,24.09,0s4.82-27.77-9.64-27.77-14.46-19.27-19.27-25.3c-4.82-6.02-18.07-15.66-21.68-6.02-3.61,9.64-24.09,20.48-30.12,16.86Z"/><path class="d" d="M1481.83,2273.64s54.65,4.05,68.15,0c13.49-4.05,23.62-5.17,22.27,1.8-1.35,6.97-10.8,14.39-18.89,15.07-8.1,.67-32.39,6.07-37.79,0-5.4-6.07-6.75,4.36-20.92,2.86-14.17-1.51-31.04,5.24-23.62-8.25,7.42-13.49,10.8-11.47,10.8-11.47Z"/><path class="d" d="M1520.79,2309.62s7.97,7.93,8.53,12.46c.57,4.53,3.96,17.56,6.23,17.56s8.5-1.13,12.46,0c3.97,1.13,11.33-5.1,10.2-12.46-1.13-7.36-2.27-19.26-9.63-17.56-7.36,1.7-18.2,0-27.79,0Z"/><path class="d" d="M1599.35,2309.45s-6.79-18.75-17.39-10.27c-10.61,8.49-9.76,18.67-7.64,20.36,2.12,1.7,12.3,8.06,17.39,8.06s12.3-.42,12.3,5.52,0,17.39,2.12,19.52,4.67,4.67,11.03,4.67h19.09c10.18,0,15.27-.85,19.52-6.79,4.24-5.94,7.21,.14,6.36-10.75-.85-10.89-33.09-25.31-33.09-25.31,0,0-25.71,2.37-29.7-5.01Z"/><path class="d" d="M1570.57,2366.11s13.59-12.08,14.8-11.18c1.21,.91,10.27,6.65,6.04,11.18-4.23,4.53-7.25,9.97-12.38,9.06-5.13-.91-9.67-5.44-8.46-9.06Z"/><path class="d" d="M1679.5,2412.92s6.98,19.21,6.4,23.86c-.58,4.66-4.66,12.8-6.4,16.3-1.75,3.49,0,8.73-5.82,10.48-5.82,1.75-10.48,4.66-15.13,11.64-4.66,6.98,.49,16.88,3.74,20.37,3.25,3.49,1.5,6.98,4.41,12.22,2.91,5.24,11.64,7.57,11.64,15.71s0,15.13-1.16,24.44-7.65,9.31-5.86,18.62c1.79,9.31,6.44,6.98,8.77,12.8,2.33,5.82,14.55,5.82,18.04,11.06s-.58,2.91,6.4,6.4c6.98,3.49,6.4,6.98,9.89,3.49,3.49-3.49,22.83-28.47,29.8-31.34,6.97-2.87,6.97-8.61,11.89-11.48,4.92-2.87,12.3-5.74,12.3-5.74,0,0,19.28-2.46,22.97-2.46s11.89-7.38,15.18-8.61,10.66-1.23,16-9.02c5.33-7.79,7.79-15.59,4.92-16s-6.15,5.33-13.12-2.46c-6.97-7.79-6.15-18.05-11.07-20.1-4.92-2.05-5.74-10.66-9.43-14.35-3.69-3.69-15.59-18.05-17.23-18.05s-27.89-23.38-27.89-23.38c0,0-16.41-5.74-16.41-11.07s-15.18-.82-15.18-.82c0,0-16.82-16.82-20.1-16.41-3.28,.41-12.54-1.63-17.55,3.9Z"/></g></g></g></g></svg>