<?xml version="1.0" encoding="utf-8"?>
<!-- Generator: Adobe Illustrator 22.1.0, SVG Export Plug-In . SVG Version: 6.00 Build 0)  -->
<svg version="1.1" id="Layer_1" xmlns="http://www.w3.org/2000/svg" xmlns:xlink="http://www.w3.org/1999/xlink" x="0px" y="0px"
	 viewBox="0 0 145.1 234.1" style="enable-background:new 0 0 145.1 234.1;" xml:space="preserve">
<style type="text/css">
	.st0{fill:none;stroke:#404041;stroke-width:5;stroke-linecap:round;stroke-linejoin:round;stroke-miterlimit:10;}
	
		.st1{clip-path:url(#SVGID_2_);fill:none;stroke:#404041;stroke-width:5;stroke-linecap:round;stroke-linejoin:round;stroke-miterlimit:10;}
	.st2{clip-path:url(#SVGID_2_);fill:#FFF100;}
</style>
<line class="st0" x1="62.4" y1="210" x2="61.2" y2="212.3"/>
<line class="st0" x1="83.9" y1="212.3" x2="82.7" y2="210"/>
<g>
	<defs>
		<rect id="SVGID_1_" width="145.1" height="234.1"/>
	</defs>
	<clipPath id="SVGID_2_">
		<use xlink:href="#SVGID_1_"  style="overflow:visible;"/>
	</clipPath>
	<line class="st1" x1="91.3" y1="62.4" x2="136.5" y2="2.5"/>
	<path class="st2" d="M129.2,27.8c0,8-6.4,14.4-14.4,14.4s-14.4-6.4-14.4-14.4c0-8,6.4-14.4,14.4-14.4S129.2,19.9,129.2,27.8"/>
	<path class="st1" d="M128.4,220.7c0,6-25,10.9-55.9,10.9c-30.9,0-55.9-4.9-55.9-10.9c0-5.3,19.7-9.8,45.8-10.7l3.3-6.2
		c2.7-5.1,3-10.7,2.9-16.4l-0.8-67.5c-0.2-7.2-2.8-14.2-7.3-19.8l-58-72.2h140.1l-58,72.2c-4.5,5.6-7.1,12.6-7.3,19.8l-0.8,67.5
		c-0.2,5.7,0.2,11.4,2.9,16.4l3.3,6.2C108.7,210.9,128.4,215.4,128.4,220.7z"/>
	<line class="st1" x1="30.3" y1="62.4" x2="114.8" y2="62.4"/>
</g>
</svg>
