<?xml version="1.0" encoding="utf-8"?>
<!-- Generator: Adobe Illustrator 22.1.0, SVG Export Plug-In . SVG Version: 6.00 Build 0)  -->
<svg version="1.1" id="Layer_1" xmlns="http://www.w3.org/2000/svg" xmlns:xlink="http://www.w3.org/1999/xlink" x="0px" y="0px"
	 viewBox="0 0 670.3 332" style="enable-background:new 0 0 670.3 332;" xml:space="preserve">
<style type="text/css">
	.st0{clip-path:url(#SVGID_2_); fill: #ffffff;}
</style>
<g>
	<defs>
		<rect id="SVGID_1_" width="670.3" height="332"/>
	</defs>
	<clipPath id="SVGID_2_">
		<use xlink:href="#SVGID_1_"  style="overflow:visible;"/>
	</clipPath>
	<path class="st0" d="M668.1,106.3c-39.8,5-77.5,18.1-114.2,33.7c-18.6,7.9-37.2,16-55.8,24.1c-16.8,7.4-35.8,16.6-54.6,12.9
		c3.2-6.5,4.8-14,9.5-19.4c1.4-1.6,0.1-4.5-2.2-3.8c-31.3,10.2-54.7,33.3-78,55.7c9.1-15.5,16.9-31.9,25.2-47.9
		c3.7-2.6,7.3-5.3,10.8-8.1c12.1-9.6,39.6-32.1,28.7-50.5c-0.8-1.3-2.5-1.5-3.5-0.5c-16.9,16.1-28.6,35.7-39.3,56
		c-7.1,4.9-14.5,9.4-22.1,13.5c-6.5,3.5-14.2,7.5-21.8,8.6c3.2-10.2,3.5-20.6,3.5-31.3c0-1.7-1.9-2.9-3.4-1.9
		c-1.4,0.9-2.8,1.8-4.2,2.6c-0.6-0.6-1.6-0.8-2.6-0.4c-12.2,5.5-25.1,9.6-37.8,14.1c0.8-0.6,1.5-1.3,2.2-1.9
		c16.1-14.1,36.5-33.8,39.2-56.3c1.3-10.8-4.4-23.6-14-29.5c2.9-7,5.8-14,8.6-21.1c1.5-3.9,7.6-13.1,4.1-17c-0.9-1-2.3-0.7-3.2,0
		c-1.9,1.5-2.6,4.2-4.1,6c-1.3,1.6-0.1,3.6,1.4,3.9c-1.2,2.7-2.4,5.4-2.6,5.9c-1.7,4.4-3.5,8.8-5.3,13.2c-1,2.4-2,4.8-2.9,7.1
		c-2.6-1-5.5-1.4-8.5-1.2c-15.8,1.2-26.8,19.7-33.7,31.8c-14.5,25.3-24.1,53.7-32.1,81.6c-0.6,2.1-1.2,4.3-1.8,6.4
		c-0.1,0.1-0.1,0.1-0.2,0.2c-0.7,0.7-0.8,1.6-0.5,2.4c-2.5,9.5-4.8,19-6.6,28.6c-1.4,7.2-3.1,15.1-2.6,22.5c0.2,2.1,3.1,3.2,4.2,1.1
		c12-21.7,23.8-43.5,35.3-65.5c4.5-3.1,9-6.5,13.2-9.9c10.5-4.1,21.4-7.6,32.1-11.4c-0.2,0.2-0.5,0.4-0.7,0.6
		c-1.9,1.8,0.6,5,2.7,3.5c6.2-4,12.8-7.5,19.1-11.4c-0.1,10-0.9,19.7-4.4,29.2c-0.5,1.4,0.8,2.9,2.2,2.9c9.1-0.2,18.1-4.8,26-8.8
		c5.8-2.9,11.4-6.2,16.8-9.7c-9.7,19-19.1,38.4-31.2,55.8c-1.5,2.2,1.7,4.4,3.5,2.7c25.7-23.7,50-51.9,83.2-64.9
		c-2.8,5.5-4.5,11.8-7.7,17c-0.8,1.2,0,2.9,1.3,3.3c16.7,4.5,33.5-1.2,48.9-7.5c18.6-7.6,36.9-16,55.3-24
		c40-17.4,80.9-33,124.4-38.4C671,110.4,671,105.9,668.1,106.3 M334.6,82.5c8.6,7.2,10.5,17.5,7.6,28c-5.8,20.7-24.6,37.8-40.3,51.2
		c-2.6,2.2-5.3,4.5-8.1,6.7c-1.5,0.6-2.9,1.2-4.3,1.8c5.4-10.5,10.8-21.1,16-31.8c9.1-18.7,17.8-37.6,26-56.7
		c0.2-0.4,0.3-0.8,0.5-1.2C332.8,81.1,333.7,81.7,334.6,82.5 M281.4,126.7c7.4-16.5,17.1-38.6,33.8-47.6c4.4-2.4,8.6-2.3,12.6-0.7
		c-2.4,5.6-4.8,11.1-7.2,16.6c-7.7,17.3-15.8,34.3-24.2,51.2c-4.5,9-9,17.9-13.6,26.8c-8.1,3.8-15.9,8.3-23,14.1
		C265.7,166.5,272.7,146.2,281.4,126.7 M248.3,237.4c0.9-13.2,5.4-27,8.5-39.2c0.2-0.8,0.4-1.6,0.7-2.5c6.2-2.3,12.3-5.4,18.2-9
		C266.7,203.8,257.5,220.6,248.3,237.4 M434.9,107.9c1.9,6.7-2.4,13.9-6.2,19.4c-6.8,9.7-16.3,17.8-25.6,25
		C411.9,136.2,421.8,121,434.9,107.9"/>
	<path class="st0" d="M262.5,122.7c-19.1,14.9-37.7,31.1-60.2,40.6c1.5-4.4,3.1-8.8,5-13c0.9-1.9-1-4.4-3.1-3.1
		c-10.2,6.3-19.9,13.4-30.3,19.4c2-4,4.2-7.8,6.3-11.8c0.6-1.1,0.3-2.5-0.8-3.1c-1.3-0.7-2.7-0.3-4.1,0.5c0.3-0.8,0.5-1.6,0.6-2.5
		c0.3-1.9-2.2-4.2-3.8-2.2c-5.6,7-12.8,12.2-19.6,17.9c4.5-19.5,12.4-39.6,23.2-57.6c11.7-15.1,24.1-29.5,38-42.8
		c1.8-1.7-0.6-5.1-2.7-3.5c-15.4,11.3-28.4,26.5-38.8,43.6c-25.6,33.1-47.4,69.3-71.8,103.3c2.3-14.4,6.5-28.7,10.6-42.6
		c2.7-9,5.5-17.9,8.6-26.7c9.5-15,18.4-30.5,29.6-44.2c13.3-16.2,29.9-29.4,44.1-44.7c12.4-13.3,24.1-29.1,25.7-47.8
		c0.1-1.3-1.1-2.1-2.3-2.3c-17.2-1.7-31.7,10.6-42.4,22.6c-16.5,18.6-28.3,41.4-38.6,63.9c-7.2,15.7-13.6,31.9-19.4,48.2
		c-13.7,21.4-27.9,42.1-49.6,56.7c4.6-19,10.2-37.8,18-55.8c2.3-5.4,5.2-11.7,8.7-17.9c12.6-8.1,24.5-17.2,34.7-28.2
		c1.2-1.3,0.5-4-1.6-3.9c-16.4,1.4-27.8,14.6-36.1,28.6c-12.4,7.9-25.5,14.8-38.5,21.6c-0.1,0-0.1,0-0.2,0
		c7.4-12.2,14.2-24.9,20.2-37.7c1-2.2-1.8-4.9-3.5-2.7c-11.8,14.9-22.6,31-31.8,47.9c-0.7,0.5-1.4,1.1-2,1.7
		c-0.9,0.8-0.8,1.9-0.3,2.7c-3.3,6.3-6.4,12.8-9.3,19.3c-6.1,7.8-12.5,15.3-19.2,22.5c9.7-52.5,43.1-97.3,64-145.6
		c1-2.2-1.6-4.7-3.5-2.7C54.7,52.7,42.3,62.9,30.9,74.1c-9.6,9.3-20.7,20.4-24.1,33.8c-0.7,2.8,3.6,4,4.4,1.2
		c3.4-13.4,15-24.1,24.5-33.4c8.2-8,16.8-15.4,25.2-23.1C38.7,99.5,7.3,143.9,0,196c-0.3,2.1,2,4,3.8,2.2
		c5.2-5.3,10.3-10.8,15.1-16.5C13.8,195.2,9.7,209,6.8,223c-0.4,1.8,1.5,3.7,3.3,2.5c14.8-9.7,26.3-24,35.8-38.8
		c9.8-15.3,17.8-33,19.5-51.2c0-0.5-0.1-1-0.4-1.4c7.1-3.8,14.1-7.6,21-11.8c-1.1,2.1-2.1,4.2-3,6.2C72.8,150,66.3,173,61,196
		c-0.4,1.9,1.6,3.6,3.3,2.5c18.8-11.3,33.3-27.6,45.9-45.3c-0.9,2.8-1.8,5.6-2.6,8.5c-5.5,17.9-10.8,36.5-12.8,55.2
		c-0.3,2.5,3,2.7,4.2,1.1c21.1-28.7,40-59.2,60.6-88.2c-5.8,13.6-10.1,27.7-12.8,41.3c-0.4,2.2,2.1,3.8,3.8,2.2
		c5.3-5.1,11.2-9.4,16.7-14.2c0.2,0.4,0.5,0.8,0.9,1c1.5,0.8,3.1,0.2,4.6-0.9c-2.1,3.8-4.1,7.7-5.6,11.8c-0.7,2,1.7,3.4,3.3,2.5
		c10.6-5.4,20.2-12.3,30.1-18.8c-1.5,3.9-2.8,7.8-4.1,11.7c-0.5,1.5,1.2,3.4,2.8,2.8c23-8.7,41.9-24,60.9-39.1
		c-20.9,73.1-73.9,131.8-108.6,198.3c-1.3,2.6,2.6,4.9,3.9,2.3c35.9-68.9,91.2-129.4,110.8-206C266.8,122.5,264.2,121.4,262.5,122.7
		 M54.3,122.6c-3,5.4-6.2,10.7-9.5,16c-0.2,0.1-0.3,0.1-0.5,0.2C47.5,133.3,50.9,127.9,54.3,122.6 M43.2,182.6
		c-8,13.3-18.2,26.3-30.7,35.8c3.8-16.7,9.4-33,16.3-48.8c6.5-8.4,12.5-17,18.2-26c2.2-1.2,4.5-2.3,6.7-3.5c2.2-0.6,4.5-1.1,6.9-1.7
		C58.5,154.3,51.3,169.1,43.2,182.6 M119.5,91.9c-6.3,6.1-13,11.5-20.2,16.5C104.8,101,111.4,94.7,119.5,91.9 M137.4,93.7
		c9.8-22.2,21.2-44.4,36.5-63.5c9.8-12.2,23.6-25.9,40.3-25.6c-2.5,19.3-16.9,35.1-29.9,48.6c-13.4,13.8-28.4,26.1-40.4,41.2
		c-5.8,7.3-11.1,15-16.1,22.8C130.8,109.2,134,101.4,137.4,93.7"/>
</g>
</svg>
